%TF.GenerationSoftware,KiCad,Pcbnew,8.0.4*%
%TF.CreationDate,2025-08-04T00:55:42+05:30*%
%TF.ProjectId,Receiver,52656365-6976-4657-922e-6b696361645f,rev?*%
%TF.SameCoordinates,Original*%
%TF.FileFunction,Copper,L2,Bot*%
%TF.FilePolarity,Positive*%
%FSLAX46Y46*%
G04 Gerber Fmt 4.6, Leading zero omitted, Abs format (unit mm)*
G04 Created by KiCad (PCBNEW 8.0.4) date 2025-08-04 00:55:42*
%MOMM*%
%LPD*%
G01*
G04 APERTURE LIST*
%TA.AperFunction,ComponentPad*%
%ADD10C,0.300000*%
%TD*%
%TA.AperFunction,ComponentPad*%
%ADD11R,1.050000X1.500000*%
%TD*%
%TA.AperFunction,ComponentPad*%
%ADD12O,1.050000X1.500000*%
%TD*%
%TA.AperFunction,ComponentPad*%
%ADD13O,1.000000X2.100000*%
%TD*%
%TA.AperFunction,ComponentPad*%
%ADD14O,1.000000X1.800000*%
%TD*%
%TA.AperFunction,ComponentPad*%
%ADD15R,2.200000X2.200000*%
%TD*%
%TA.AperFunction,ComponentPad*%
%ADD16C,2.200000*%
%TD*%
%TA.AperFunction,ViaPad*%
%ADD17C,0.600000*%
%TD*%
%TA.AperFunction,Conductor*%
%ADD18C,0.100000*%
%TD*%
G04 APERTURE END LIST*
D10*
%TO.P,U2,40*%
%TO.N,N/C*%
X134550000Y-57400000D03*
%TO.P,U2,41*%
X135950000Y-57400000D03*
%TO.P,U2,42*%
X133850000Y-58100000D03*
%TO.P,U2,43*%
X135250000Y-58100000D03*
%TO.P,U2,44*%
X136650000Y-58100000D03*
%TO.P,U2,45*%
X134550000Y-58800000D03*
%TO.P,U2,46*%
X135950000Y-58800000D03*
%TO.P,U2,47*%
X133850000Y-59500000D03*
%TO.P,U2,48*%
X135250000Y-59500000D03*
%TO.P,U2,49*%
X136650000Y-59500000D03*
%TO.P,U2,50*%
X134550000Y-60200000D03*
%TO.P,U2,51*%
X135950000Y-60200000D03*
%TD*%
D11*
%TO.P,Q2,1,E*%
%TO.N,GND*%
X131460000Y-123000000D03*
D12*
%TO.P,Q2,2,B*%
%TO.N,Net-(Q2-B)*%
X132730000Y-123000000D03*
%TO.P,Q2,3,C*%
%TO.N,Net-(Q2-C)*%
X134000000Y-123000000D03*
%TD*%
D11*
%TO.P,Q1,1,E*%
%TO.N,GND*%
X148960000Y-123000000D03*
D12*
%TO.P,Q1,2,B*%
%TO.N,Net-(Q1-B)*%
X150230000Y-123000000D03*
%TO.P,Q1,3,C*%
%TO.N,Net-(Q1-C)*%
X151500000Y-123000000D03*
%TD*%
D13*
%TO.P,J4,S1,SHIELD*%
%TO.N,Net-(J4-SHIELD)*%
X135180000Y-143320000D03*
D14*
X135180000Y-147500000D03*
D13*
X143820000Y-143320000D03*
D14*
X143820000Y-147500000D03*
%TD*%
D15*
%TO.P,J1,1,Pin_1*%
%TO.N,+12V*%
X161500000Y-62000000D03*
D16*
%TO.P,J1,2,Pin_2*%
%TO.N,GND*%
X161500000Y-59460000D03*
%TD*%
D17*
%TO.N,+12V*%
X156000000Y-66000000D03*
%TO.N,Net-(U3-D-)*%
X139500000Y-140500000D03*
X137500000Y-136500000D03*
%TO.N,Net-(U3-D+)*%
X140500000Y-140500000D03*
%TO.N,Net-(J4-CC1)*%
X138209620Y-140709620D03*
X137000000Y-139000000D03*
%TO.N,Net-(U2-IO26)*%
X131139000Y-96085300D03*
X133331900Y-97624300D03*
%TO.N,Net-(U2-IO23)*%
X151882000Y-95673800D03*
X143402000Y-97900100D03*
%TO.N,Net-(U2-IO14)*%
X135053100Y-99276800D03*
X129289700Y-94609300D03*
%TO.N,Net-(U2-IO18)*%
X142970800Y-58078200D03*
X148088100Y-58078200D03*
%TO.N,Net-(U3-~{RTS})*%
X147198800Y-124177600D03*
X143233600Y-125568000D03*
%TO.N,Net-(Q1-C)*%
X156053500Y-94245400D03*
X145503900Y-92473200D03*
%TO.N,Net-(J5-SIG)*%
X104355600Y-95578600D03*
X137606800Y-94483000D03*
%TO.N,Net-(J4-CC2)*%
X143634000Y-140396700D03*
%TO.N,Net-(U3-D+)*%
X138984300Y-137500000D03*
%TO.N,Net-(U5-VR_PA)*%
X143093700Y-96424800D03*
X127957700Y-104559700D03*
%TO.N,Net-(U5-VR_DIG)*%
X127382700Y-101003900D03*
X133916700Y-98314800D03*
%TO.N,Net-(U2-EN)*%
X132013400Y-94998300D03*
X132302000Y-99156200D03*
%TO.N,Net-(U1-OUT)*%
X155679100Y-90505300D03*
X148496300Y-90931300D03*
X121794100Y-134780600D03*
X135000000Y-134151100D03*
X109978400Y-126289300D03*
X140489000Y-127800000D03*
X138277700Y-134151100D03*
X134059600Y-54319200D03*
X148837600Y-60213400D03*
%TO.N,+12V*%
X155307000Y-88650000D03*
X107326000Y-92631500D03*
%TO.N,GND*%
X153000000Y-60500000D03*
X148911600Y-51427800D03*
X148053400Y-100803500D03*
X151882000Y-101472800D03*
X137030000Y-129075900D03*
%TD*%
D18*
%TO.N,+12V*%
X161500000Y-64500000D02*
X161500000Y-62000000D01*
X160000000Y-66000000D02*
X161500000Y-64500000D01*
%TO.N,GND*%
X158540000Y-56500000D02*
X161500000Y-59460000D01*
X157000000Y-56500000D02*
X158540000Y-56500000D01*
%TO.N,+12V*%
X156000000Y-66000000D02*
X160000000Y-66000000D01*
%TO.N,GND*%
X157000000Y-56500000D02*
X157040000Y-56460000D01*
X153000000Y-60500000D02*
X157000000Y-56500000D01*
X153000000Y-55516200D02*
X148911600Y-51427800D01*
X153000000Y-60500000D02*
X153000000Y-55516200D01*
%TO.N,Net-(U3-D-)*%
X139500000Y-140000000D02*
X139500000Y-140500000D01*
X137500000Y-138000000D02*
X139500000Y-140000000D01*
X137500000Y-136500000D02*
X137500000Y-138000000D01*
%TO.N,Net-(U3-D+)*%
X138984300Y-137984300D02*
X138984300Y-137500000D01*
X140500000Y-140500000D02*
X140500000Y-139500000D01*
X140500000Y-139500000D02*
X138984300Y-137984300D01*
%TO.N,Net-(U1-OUT)*%
X136040300Y-134151100D02*
X135000000Y-134151100D01*
X135000000Y-134151100D02*
X135762200Y-134151100D01*
X135762200Y-134151100D02*
X140489000Y-129424300D01*
X140489000Y-129424300D02*
X140489000Y-127800000D01*
%TO.N,Net-(J4-CC1)*%
X138209620Y-140209620D02*
X137000000Y-139000000D01*
X138209620Y-140709620D02*
X138209620Y-140209620D01*
%TO.N,Net-(U2-IO26)*%
X132678000Y-97624300D02*
X133331900Y-97624300D01*
X131139000Y-96085300D02*
X132678000Y-97624300D01*
%TO.N,Net-(U2-IO23)*%
X149655700Y-97900100D02*
X143402000Y-97900100D01*
X151882000Y-95673800D02*
X149655700Y-97900100D01*
%TO.N,Net-(U2-IO14)*%
X129574300Y-94324700D02*
X129289700Y-94609300D01*
X132271700Y-94324700D02*
X129574300Y-94324700D01*
X135053100Y-97106100D02*
X132271700Y-94324700D01*
X135053100Y-99276800D02*
X135053100Y-97106100D01*
%TO.N,Net-(U2-IO18)*%
X142970800Y-58078200D02*
X148088100Y-58078200D01*
%TO.N,Net-(U3-~{RTS})*%
X145808400Y-125568000D02*
X143233600Y-125568000D01*
X147198800Y-124177600D02*
X145808400Y-125568000D01*
%TO.N,Net-(Q1-C)*%
X154281300Y-92473200D02*
X145503900Y-92473200D01*
X156053500Y-94245400D02*
X154281300Y-92473200D01*
%TO.N,Net-(J5-SIG)*%
X106034700Y-93899500D02*
X104355600Y-95578600D01*
X137023300Y-93899500D02*
X106034700Y-93899500D01*
X137606800Y-94483000D02*
X137023300Y-93899500D01*
%TO.N,Net-(U5-VR_PA)*%
X134958800Y-104559700D02*
X127957700Y-104559700D01*
X143093700Y-96424800D02*
X134958800Y-104559700D01*
%TO.N,Net-(U5-VR_DIG)*%
X133916700Y-98314900D02*
X133916700Y-98314800D01*
X130071700Y-98314900D02*
X133916700Y-98314900D01*
X127382700Y-101003900D02*
X130071700Y-98314900D01*
%TO.N,Net-(U2-EN)*%
X134077800Y-99156200D02*
X132302000Y-99156200D01*
X134582100Y-98651900D02*
X134077800Y-99156200D01*
X134582100Y-97567000D02*
X134582100Y-98651900D01*
X132013400Y-94998300D02*
X134582100Y-97567000D01*
%TO.N,Net-(J4-SHIELD)*%
X135180000Y-146248300D02*
X143820000Y-146248300D01*
X135180000Y-147500000D02*
X135180000Y-146248300D01*
X143820000Y-147500000D02*
X143820000Y-146248300D01*
%TO.N,Net-(U1-OUT)*%
X118469700Y-134780600D02*
X121794100Y-134780600D01*
X109978400Y-126289300D02*
X118469700Y-134780600D01*
X136040300Y-134151100D02*
X138277700Y-134151100D01*
X122423600Y-134151100D02*
X121794100Y-134780600D01*
X136040300Y-134151100D02*
X122423600Y-134151100D01*
X148922300Y-90505300D02*
X148496300Y-90931300D01*
X155679100Y-90505300D02*
X148922300Y-90505300D01*
X148837600Y-57893000D02*
X148837600Y-60213400D01*
X145263800Y-54319200D02*
X148837600Y-57893000D01*
X134059600Y-54319200D02*
X145263800Y-54319200D01*
%TO.N,+12V*%
X111307500Y-88650000D02*
X155307000Y-88650000D01*
X107326000Y-92631500D02*
X111307500Y-88650000D01*
%TO.N,GND*%
X148960000Y-123000000D02*
X148083300Y-123000000D01*
X131460000Y-123000000D02*
X131460000Y-124101700D01*
X151212700Y-100803500D02*
X151882000Y-101472800D01*
X148053400Y-100803500D02*
X151212700Y-100803500D01*
X138131700Y-123000000D02*
X137030000Y-124101700D01*
X148083300Y-123000000D02*
X138131700Y-123000000D01*
X137030000Y-129075900D02*
X137030000Y-124101700D01*
X137030000Y-124101700D02*
X131460000Y-124101700D01*
%TD*%
M02*
