%TF.GenerationSoftware,KiCad,Pcbnew,8.0.4*%
%TF.CreationDate,2025-08-04T00:55:42+05:30*%
%TF.ProjectId,Receiver,52656365-6976-4657-922e-6b696361645f,rev?*%
%TF.SameCoordinates,Original*%
%TF.FileFunction,Copper,L1,Top*%
%TF.FilePolarity,Positive*%
%FSLAX46Y46*%
G04 Gerber Fmt 4.6, Leading zero omitted, Abs format (unit mm)*
G04 Created by KiCad (PCBNEW 8.0.4) date 2025-08-04 00:55:42*
%MOMM*%
%LPD*%
G01*
G04 APERTURE LIST*
G04 Aperture macros list*
%AMRoundRect*
0 Rectangle with rounded corners*
0 $1 Rounding radius*
0 $2 $3 $4 $5 $6 $7 $8 $9 X,Y pos of 4 corners*
0 Add a 4 corners polygon primitive as box body*
4,1,4,$2,$3,$4,$5,$6,$7,$8,$9,$2,$3,0*
0 Add four circle primitives for the rounded corners*
1,1,$1+$1,$2,$3*
1,1,$1+$1,$4,$5*
1,1,$1+$1,$6,$7*
1,1,$1+$1,$8,$9*
0 Add four rect primitives between the rounded corners*
20,1,$1+$1,$2,$3,$4,$5,0*
20,1,$1+$1,$4,$5,$6,$7,0*
20,1,$1+$1,$6,$7,$8,$9,0*
20,1,$1+$1,$8,$9,$2,$3,0*%
G04 Aperture macros list end*
%TA.AperFunction,SMDPad,CuDef*%
%ADD10RoundRect,0.075000X-0.312500X-0.075000X0.312500X-0.075000X0.312500X0.075000X-0.312500X0.075000X0*%
%TD*%
%TA.AperFunction,SMDPad,CuDef*%
%ADD11RoundRect,0.075000X-0.075000X-0.312500X0.075000X-0.312500X0.075000X0.312500X-0.075000X0.312500X0*%
%TD*%
%TA.AperFunction,HeatsinkPad*%
%ADD12R,4.800000X4.800000*%
%TD*%
%TA.AperFunction,SMDPad,CuDef*%
%ADD13RoundRect,0.062500X-0.350000X-0.062500X0.350000X-0.062500X0.350000X0.062500X-0.350000X0.062500X0*%
%TD*%
%TA.AperFunction,SMDPad,CuDef*%
%ADD14RoundRect,0.062500X-0.062500X-0.350000X0.062500X-0.350000X0.062500X0.350000X-0.062500X0.350000X0*%
%TD*%
%TA.AperFunction,HeatsinkPad*%
%ADD15R,2.600000X2.600000*%
%TD*%
%TA.AperFunction,SMDPad,CuDef*%
%ADD16R,1.500000X0.900000*%
%TD*%
%TA.AperFunction,SMDPad,CuDef*%
%ADD17R,0.900000X0.900000*%
%TD*%
%TA.AperFunction,ComponentPad*%
%ADD18C,0.300000*%
%TD*%
%TA.AperFunction,SMDPad,CuDef*%
%ADD19RoundRect,0.250000X-2.050000X-0.300000X2.050000X-0.300000X2.050000X0.300000X-2.050000X0.300000X0*%
%TD*%
%TA.AperFunction,SMDPad,CuDef*%
%ADD20RoundRect,0.250000X-2.025000X-2.375000X2.025000X-2.375000X2.025000X2.375000X-2.025000X2.375000X0*%
%TD*%
%TA.AperFunction,SMDPad,CuDef*%
%ADD21RoundRect,0.250002X-4.449998X-5.149998X4.449998X-5.149998X4.449998X5.149998X-4.449998X5.149998X0*%
%TD*%
%TA.AperFunction,SMDPad,CuDef*%
%ADD22RoundRect,0.237500X0.300000X0.237500X-0.300000X0.237500X-0.300000X-0.237500X0.300000X-0.237500X0*%
%TD*%
%TA.AperFunction,SMDPad,CuDef*%
%ADD23RoundRect,0.237500X-0.300000X-0.237500X0.300000X-0.237500X0.300000X0.237500X-0.300000X0.237500X0*%
%TD*%
%TA.AperFunction,ComponentPad*%
%ADD24R,1.050000X1.500000*%
%TD*%
%TA.AperFunction,ComponentPad*%
%ADD25O,1.050000X1.500000*%
%TD*%
%TA.AperFunction,SMDPad,CuDef*%
%ADD26R,1.050000X1.100000*%
%TD*%
%TA.AperFunction,SMDPad,CuDef*%
%ADD27R,1.100000X2.250000*%
%TD*%
%TA.AperFunction,SMDPad,CuDef*%
%ADD28RoundRect,0.150000X-0.150000X-0.425000X0.150000X-0.425000X0.150000X0.425000X-0.150000X0.425000X0*%
%TD*%
%TA.AperFunction,SMDPad,CuDef*%
%ADD29RoundRect,0.075000X-0.075000X-0.500000X0.075000X-0.500000X0.075000X0.500000X-0.075000X0.500000X0*%
%TD*%
%TA.AperFunction,ComponentPad*%
%ADD30O,1.000000X2.100000*%
%TD*%
%TA.AperFunction,ComponentPad*%
%ADD31O,1.000000X1.800000*%
%TD*%
%TA.AperFunction,ComponentPad*%
%ADD32R,2.200000X2.200000*%
%TD*%
%TA.AperFunction,ComponentPad*%
%ADD33C,2.200000*%
%TD*%
%TA.AperFunction,SMDPad,CuDef*%
%ADD34RoundRect,0.250000X-0.337500X-0.475000X0.337500X-0.475000X0.337500X0.475000X-0.337500X0.475000X0*%
%TD*%
%TA.AperFunction,SMDPad,CuDef*%
%ADD35RoundRect,0.100000X-0.217500X-0.100000X0.217500X-0.100000X0.217500X0.100000X-0.217500X0.100000X0*%
%TD*%
%TA.AperFunction,SMDPad,CuDef*%
%ADD36RoundRect,0.100000X0.217500X0.100000X-0.217500X0.100000X-0.217500X-0.100000X0.217500X-0.100000X0*%
%TD*%
%TA.AperFunction,SMDPad,CuDef*%
%ADD37RoundRect,0.225000X0.225000X0.250000X-0.225000X0.250000X-0.225000X-0.250000X0.225000X-0.250000X0*%
%TD*%
%TA.AperFunction,SMDPad,CuDef*%
%ADD38RoundRect,0.225000X-0.225000X-0.250000X0.225000X-0.250000X0.225000X0.250000X-0.225000X0.250000X0*%
%TD*%
%TA.AperFunction,SMDPad,CuDef*%
%ADD39R,2.200000X1.600000*%
%TD*%
%TA.AperFunction,ViaPad*%
%ADD40C,0.600000*%
%TD*%
%TA.AperFunction,Conductor*%
%ADD41C,0.100000*%
%TD*%
G04 APERTURE END LIST*
D10*
%TO.P,U5,1,RFI_LF*%
%TO.N,unconnected-(U5-RFI_LF-Pad1)*%
X136062500Y-96537500D03*
%TO.P,U5,2,VR_ANA*%
%TO.N,Net-(U5-VR_ANA)*%
X136062500Y-97187500D03*
%TO.P,U5,3,VBAT_ANA*%
%TO.N,Net-(U1-OUT)*%
X136062500Y-97837500D03*
%TO.P,U5,4,VR_DIG*%
%TO.N,Net-(U5-VR_DIG)*%
X136062500Y-98487500D03*
%TO.P,U5,5,XTA*%
%TO.N,unconnected-(U5-XTA-Pad5)*%
X136062500Y-99137500D03*
%TO.P,U5,6,XTB*%
%TO.N,unconnected-(U5-XTB-Pad6)*%
X136062500Y-99787500D03*
%TO.P,U5,7,~{RESET}*%
%TO.N,Net-(U2-IO14)*%
X136062500Y-100437500D03*
D11*
%TO.P,U5,8,DIO0*%
%TO.N,Net-(U2-IO26)*%
X137100000Y-101475000D03*
%TO.P,U5,9,DIO1*%
%TO.N,unconnected-(U5-DIO1-Pad9)*%
X137750000Y-101475000D03*
%TO.P,U5,10,DIO2*%
%TO.N,unconnected-(U5-DIO2-Pad10)*%
X138400000Y-101475000D03*
%TO.P,U5,11,DIO3*%
%TO.N,unconnected-(U5-DIO3-Pad11)*%
X139050000Y-101475000D03*
%TO.P,U5,12,DIO4*%
%TO.N,unconnected-(U5-DIO4-Pad12)*%
X139700000Y-101475000D03*
%TO.P,U5,13,DIO5*%
%TO.N,unconnected-(U5-DIO5-Pad13)*%
X140350000Y-101475000D03*
%TO.P,U5,14,VBAT_DIG*%
%TO.N,Net-(U1-OUT)*%
X141000000Y-101475000D03*
D10*
%TO.P,U5,15,GND*%
%TO.N,GND*%
X142037500Y-100437500D03*
%TO.P,U5,16,SCK*%
%TO.N,Net-(U2-IO18)*%
X142037500Y-99787500D03*
%TO.P,U5,17,MISO*%
%TO.N,Net-(U2-IO19)*%
X142037500Y-99137500D03*
%TO.P,U5,18,MOSI*%
%TO.N,Net-(U2-IO23)*%
X142037500Y-98487500D03*
%TO.P,U5,19,NSS*%
%TO.N,Net-(U2-IO5)*%
X142037500Y-97837500D03*
%TO.P,U5,20,RXTX/RF_MOD*%
%TO.N,unconnected-(U5-RXTX{slash}RF_MOD-Pad20)*%
X142037500Y-97187500D03*
%TO.P,U5,21,GND*%
%TO.N,GND*%
X142037500Y-96537500D03*
D11*
%TO.P,U5,22,GND*%
X141000000Y-95500000D03*
%TO.P,U5,23,GND*%
X140350000Y-95500000D03*
%TO.P,U5,24,VBAT_RF*%
%TO.N,unconnected-(U5-VBAT_RF-Pad24)*%
X139700000Y-95500000D03*
%TO.P,U5,25,VR_PA*%
%TO.N,Net-(U5-VR_PA)*%
X139050000Y-95500000D03*
%TO.P,U5,26,GND*%
%TO.N,GND*%
X138400000Y-95500000D03*
%TO.P,U5,27,PA_BOOST*%
%TO.N,Net-(J5-SIG)*%
X137750000Y-95500000D03*
%TO.P,U5,28,RFO_LF*%
%TO.N,unconnected-(U5-RFO_LF-Pad28)*%
X137100000Y-95500000D03*
D12*
%TO.P,U5,29,GND*%
%TO.N,GND*%
X139050000Y-98487500D03*
%TD*%
D13*
%TO.P,U3,1,~{RI}/CLK*%
%TO.N,unconnected-(U3-~{RI}{slash}CLK-Pad1)*%
X138812500Y-130312500D03*
%TO.P,U3,2,GND*%
%TO.N,GND*%
X138812500Y-130812500D03*
%TO.P,U3,3,D+*%
%TO.N,Net-(U3-D+)*%
X138812500Y-131312500D03*
%TO.P,U3,4,D-*%
%TO.N,Net-(U3-D-)*%
X138812500Y-131812500D03*
%TO.P,U3,5,VIO*%
%TO.N,Net-(U1-OUT)*%
X138812500Y-132312500D03*
%TO.P,U3,6,VDD*%
%TO.N,unconnected-(U3-VDD-Pad6)*%
X138812500Y-132812500D03*
D14*
%TO.P,U3,7,VREGIN*%
%TO.N,Net-(U3-VBUS)*%
X139500000Y-133500000D03*
%TO.P,U3,8,VBUS*%
X140000000Y-133500000D03*
%TO.P,U3,9,~{RST}*%
%TO.N,unconnected-(U3-~{RST}-Pad9)*%
X140500000Y-133500000D03*
%TO.P,U3,10,NC*%
%TO.N,unconnected-(U3-NC-Pad10)*%
X141000000Y-133500000D03*
%TO.P,U3,11,~{WAKEUP}/GPIO.3*%
%TO.N,unconnected-(U3-~{WAKEUP}{slash}GPIO.3-Pad11)*%
X141500000Y-133500000D03*
%TO.P,U3,12,RS485/GPIO.2*%
%TO.N,unconnected-(U3-RS485{slash}GPIO.2-Pad12)*%
X142000000Y-133500000D03*
D13*
%TO.P,U3,13,~{RXT}/GPIO.1*%
%TO.N,unconnected-(U3-~{RXT}{slash}GPIO.1-Pad13)*%
X142687500Y-132812500D03*
%TO.P,U3,14,~{TXT}/GPIO.0*%
%TO.N,unconnected-(U3-~{TXT}{slash}GPIO.0-Pad14)*%
X142687500Y-132312500D03*
%TO.P,U3,15,~{SUSPEND}*%
%TO.N,unconnected-(U3-~{SUSPEND}-Pad15)*%
X142687500Y-131812500D03*
%TO.P,U3,16,NC*%
%TO.N,unconnected-(U3-NC-Pad16)*%
X142687500Y-131312500D03*
%TO.P,U3,17,SUSPEND*%
%TO.N,unconnected-(U3-SUSPEND-Pad17)*%
X142687500Y-130812500D03*
%TO.P,U3,18,~{CTS}*%
%TO.N,unconnected-(U3-~{CTS}-Pad18)*%
X142687500Y-130312500D03*
D14*
%TO.P,U3,19,~{RTS}*%
%TO.N,Net-(U3-~{RTS})*%
X142000000Y-129625000D03*
%TO.P,U3,20,RXD*%
%TO.N,Net-(U2-TXD0)*%
X141500000Y-129625000D03*
%TO.P,U3,21,TXD*%
%TO.N,Net-(U2-RXD0)*%
X141000000Y-129625000D03*
%TO.P,U3,22,~{DSR}*%
%TO.N,unconnected-(U3-~{DSR}-Pad22)*%
X140500000Y-129625000D03*
%TO.P,U3,23,~{DTR}*%
%TO.N,Net-(U3-~{DTR})*%
X140000000Y-129625000D03*
%TO.P,U3,24,~{DCD}*%
%TO.N,unconnected-(U3-~{DCD}-Pad24)*%
X139500000Y-129625000D03*
D15*
%TO.P,U3,25,GND*%
%TO.N,GND*%
X140750000Y-131562500D03*
%TD*%
D16*
%TO.P,U2,1,GND*%
%TO.N,GND*%
X128000000Y-51000000D03*
%TO.P,U2,2,3V3*%
%TO.N,Net-(U1-OUT)*%
X128000000Y-52270000D03*
%TO.P,U2,3,EN*%
%TO.N,Net-(U2-EN)*%
X128000000Y-53540000D03*
%TO.P,U2,4,SENSOR_VP*%
%TO.N,unconnected-(U2-SENSOR_VP-Pad4)*%
X128000000Y-54810000D03*
%TO.P,U2,5,SENSOR_VN*%
%TO.N,unconnected-(U2-SENSOR_VN-Pad5)*%
X128000000Y-56080000D03*
%TO.P,U2,6,IO34*%
%TO.N,unconnected-(U2-IO34-Pad6)*%
X128000000Y-57350000D03*
%TO.P,U2,7,IO35*%
%TO.N,unconnected-(U2-IO35-Pad7)*%
X128000000Y-58620000D03*
%TO.P,U2,8,IO32*%
%TO.N,unconnected-(U2-IO32-Pad8)*%
X128000000Y-59890000D03*
%TO.P,U2,9,IO33*%
%TO.N,unconnected-(U2-IO33-Pad9)*%
X128000000Y-61160000D03*
%TO.P,U2,10,IO25*%
%TO.N,unconnected-(U2-IO25-Pad10)*%
X128000000Y-62430000D03*
%TO.P,U2,11,IO26*%
%TO.N,Net-(U2-IO26)*%
X128000000Y-63700000D03*
%TO.P,U2,12,IO27*%
%TO.N,unconnected-(U2-IO27-Pad12)*%
X128000000Y-64970000D03*
%TO.P,U2,13,IO14*%
%TO.N,Net-(U2-IO14)*%
X128000000Y-66240000D03*
%TO.P,U2,14,IO12*%
%TO.N,unconnected-(U2-IO12-Pad14)*%
X128000000Y-67510000D03*
%TO.P,U2,15,GND*%
%TO.N,GND*%
X128000000Y-68780000D03*
%TO.P,U2,16,IO13*%
%TO.N,unconnected-(U2-IO13-Pad16)*%
X128000000Y-70050000D03*
%TO.P,U2,17,NC*%
%TO.N,unconnected-(U2-NC-Pad17)*%
X128000000Y-71320000D03*
%TO.P,U2,18,NC*%
%TO.N,unconnected-(U2-NC-Pad18)*%
X128000000Y-72590000D03*
%TO.P,U2,19,NC*%
%TO.N,unconnected-(U2-NC-Pad19)*%
X128000000Y-73860000D03*
%TO.P,U2,20,NC*%
%TO.N,unconnected-(U2-NC-Pad20)*%
X145500000Y-73860000D03*
%TO.P,U2,21,NC*%
%TO.N,unconnected-(U2-NC-Pad21)*%
X145500000Y-72590000D03*
%TO.P,U2,22,NC*%
%TO.N,unconnected-(U2-NC-Pad22)*%
X145500000Y-71320000D03*
%TO.P,U2,23,IO15*%
%TO.N,unconnected-(U2-IO15-Pad23)*%
X145500000Y-70050000D03*
%TO.P,U2,24,IO2*%
%TO.N,unconnected-(U2-IO2-Pad24)*%
X145500000Y-68780000D03*
%TO.P,U2,25,IO0*%
%TO.N,Net-(Q1-C)*%
X145500000Y-67510000D03*
%TO.P,U2,26,IO4*%
%TO.N,unconnected-(U2-IO4-Pad26)*%
X145500000Y-66240000D03*
%TO.P,U2,27,NC*%
%TO.N,unconnected-(U2-NC-Pad27)*%
X145500000Y-64970000D03*
%TO.P,U2,28,NC*%
%TO.N,unconnected-(U2-NC-Pad28)*%
X145500000Y-63700000D03*
%TO.P,U2,29,IO5*%
%TO.N,Net-(U2-IO5)*%
X145500000Y-62430000D03*
%TO.P,U2,30,IO18*%
%TO.N,Net-(U2-IO18)*%
X145500000Y-61160000D03*
%TO.P,U2,31,IO19*%
%TO.N,Net-(U2-IO19)*%
X145500000Y-59890000D03*
%TO.P,U2,32,NC*%
%TO.N,unconnected-(U2-NC-Pad32)*%
X145500000Y-58620000D03*
%TO.P,U2,33,IO21*%
%TO.N,unconnected-(U2-IO21-Pad33)*%
X145500000Y-57350000D03*
%TO.P,U2,34,RXD0*%
%TO.N,Net-(U2-RXD0)*%
X145500000Y-56080000D03*
%TO.P,U2,35,TXD0*%
%TO.N,Net-(U2-TXD0)*%
X145500000Y-54810000D03*
%TO.P,U2,36,IO22*%
%TO.N,unconnected-(U2-IO22-Pad36)*%
X145500000Y-53540000D03*
%TO.P,U2,37,IO23*%
%TO.N,Net-(U2-IO23)*%
X145500000Y-52270000D03*
%TO.P,U2,38,GND*%
%TO.N,GND*%
X145500000Y-51000000D03*
D17*
%TO.P,U2,39_1,EXP*%
%TO.N,Net-(U2-EXP-Pad39_1)*%
X133850000Y-57400000D03*
%TO.P,U2,39_2,EXP*%
X135250000Y-57400000D03*
%TO.P,U2,39_3,EXP*%
X136650000Y-57400000D03*
%TO.P,U2,39_4,EXP*%
X133850000Y-58800000D03*
%TO.P,U2,39_5,EXP*%
X135250000Y-58800000D03*
%TO.P,U2,39_6,EXP*%
X136650000Y-58800000D03*
%TO.P,U2,39_7,EXP*%
X133850000Y-60200000D03*
%TO.P,U2,39_8,EXP*%
X135250000Y-60200000D03*
%TO.P,U2,39_9,EXP*%
X136650000Y-60200000D03*
D18*
%TO.P,U2,40*%
%TO.N,N/C*%
X134550000Y-57400000D03*
%TO.P,U2,41*%
X135950000Y-57400000D03*
%TO.P,U2,42*%
X133850000Y-58100000D03*
%TO.P,U2,43*%
X135250000Y-58100000D03*
%TO.P,U2,44*%
X136650000Y-58100000D03*
%TO.P,U2,45*%
X134550000Y-58800000D03*
%TO.P,U2,46*%
X135950000Y-58800000D03*
%TO.P,U2,47*%
X133850000Y-59500000D03*
%TO.P,U2,48*%
X135250000Y-59500000D03*
%TO.P,U2,49*%
X136650000Y-59500000D03*
%TO.P,U2,50*%
X134550000Y-60200000D03*
%TO.P,U2,51*%
X135950000Y-60200000D03*
%TD*%
D19*
%TO.P,U1,1,VIN*%
%TO.N,+12V*%
X107000000Y-125000000D03*
%TO.P,U1,2,OUT*%
%TO.N,Net-(U1-OUT)*%
X107000000Y-126700000D03*
%TO.P,U1,3,GND*%
%TO.N,GND*%
X107000000Y-128400000D03*
D20*
X113725000Y-125625000D03*
X113725000Y-131175000D03*
D21*
X116150000Y-128400000D03*
D20*
X118575000Y-125625000D03*
X118575000Y-131175000D03*
D19*
%TO.P,U1,4,FB*%
%TO.N,unconnected-(U1-FB-Pad4)*%
X107000000Y-130100000D03*
%TO.P,U1,5,~{ON}/OFF*%
%TO.N,unconnected-(U1-~{ON}{slash}OFF-Pad5)*%
X107000000Y-131800000D03*
%TD*%
D22*
%TO.P,R5,1*%
%TO.N,Net-(J4-CC1)*%
X135500000Y-139000000D03*
%TO.P,R5,2*%
%TO.N,GND*%
X133775000Y-139000000D03*
%TD*%
D23*
%TO.P,R4,1*%
%TO.N,Net-(J4-CC2)*%
X144775000Y-139000000D03*
%TO.P,R4,2*%
%TO.N,GND*%
X146500000Y-139000000D03*
%TD*%
%TO.P,R3,1*%
%TO.N,Net-(U3-~{DTR})*%
X131275000Y-129500000D03*
%TO.P,R3,2*%
%TO.N,Net-(Q2-B)*%
X133000000Y-129500000D03*
%TD*%
%TO.P,R2,1*%
%TO.N,Net-(U3-~{RTS})*%
X149775000Y-129500000D03*
%TO.P,R2,2*%
%TO.N,Net-(Q1-B)*%
X151500000Y-129500000D03*
%TD*%
D24*
%TO.P,Q2,1,E*%
%TO.N,GND*%
X131460000Y-123000000D03*
D25*
%TO.P,Q2,2,B*%
%TO.N,Net-(Q2-B)*%
X132730000Y-123000000D03*
%TO.P,Q2,3,C*%
%TO.N,Net-(Q2-C)*%
X134000000Y-123000000D03*
%TD*%
D24*
%TO.P,Q1,1,E*%
%TO.N,GND*%
X148960000Y-123000000D03*
D25*
%TO.P,Q1,2,B*%
%TO.N,Net-(Q1-B)*%
X150230000Y-123000000D03*
%TO.P,Q1,3,C*%
%TO.N,Net-(Q1-C)*%
X151500000Y-123000000D03*
%TD*%
D26*
%TO.P,J5,3,SIG*%
%TO.N,Net-(J5-SIG)*%
X103500000Y-90500000D03*
D27*
%TO.P,J5,2,GND*%
%TO.N,GND*%
X104975000Y-88950000D03*
%TO.P,J5,1,GND*%
X102025000Y-88950000D03*
%TD*%
D28*
%TO.P,J4,A1,GND*%
%TO.N,GND*%
X136300000Y-142745000D03*
%TO.P,J4,A4,VBUS*%
%TO.N,Net-(U3-VBUS)*%
X137100000Y-142745000D03*
D29*
%TO.P,J4,A5,CC1*%
%TO.N,Net-(J4-CC1)*%
X138250000Y-142745000D03*
%TO.P,J4,A6,D+*%
%TO.N,Net-(U3-D+)*%
X139250000Y-142745000D03*
%TO.P,J4,A7,D-*%
%TO.N,Net-(U3-D-)*%
X139750000Y-142745000D03*
%TO.P,J4,A8,SBU1*%
%TO.N,unconnected-(J4-SBU1-PadA8)*%
X140750000Y-142745000D03*
D28*
%TO.P,J4,A9,VBUS*%
%TO.N,Net-(U3-VBUS)*%
X141900000Y-142745000D03*
%TO.P,J4,A12,GND*%
%TO.N,GND*%
X142700000Y-142745000D03*
%TO.P,J4,B1,GND*%
X142700000Y-142745000D03*
%TO.P,J4,B4,VBUS*%
%TO.N,Net-(U3-VBUS)*%
X141900000Y-142745000D03*
D29*
%TO.P,J4,B5,CC2*%
%TO.N,Net-(J4-CC2)*%
X141250000Y-142745000D03*
%TO.P,J4,B6,D+*%
%TO.N,Net-(U3-D+)*%
X140250000Y-142745000D03*
%TO.P,J4,B7,D-*%
%TO.N,Net-(U3-D-)*%
X138750000Y-142745000D03*
%TO.P,J4,B8,SBU2*%
%TO.N,unconnected-(J4-SBU2-PadB8)*%
X137750000Y-142745000D03*
D28*
%TO.P,J4,B9,VBUS*%
%TO.N,Net-(U3-VBUS)*%
X137100000Y-142745000D03*
%TO.P,J4,B12,GND*%
%TO.N,GND*%
X136300000Y-142745000D03*
D30*
%TO.P,J4,S1,SHIELD*%
%TO.N,Net-(J4-SHIELD)*%
X135180000Y-143320000D03*
D31*
X135180000Y-147500000D03*
D30*
X143820000Y-143320000D03*
D31*
X143820000Y-147500000D03*
%TD*%
D32*
%TO.P,J1,1,Pin_1*%
%TO.N,+12V*%
X161500000Y-62000000D03*
D33*
%TO.P,J1,2,Pin_2*%
%TO.N,GND*%
X161500000Y-59460000D03*
%TD*%
D34*
%TO.P,C13,2*%
%TO.N,GND*%
X127000000Y-116500000D03*
%TO.P,C13,1*%
%TO.N,Net-(U5-VR_PA)*%
X124925000Y-116500000D03*
%TD*%
%TO.P,C12,2*%
%TO.N,GND*%
X130000000Y-102500000D03*
%TO.P,C12,1*%
%TO.N,Net-(U5-VR_DIG)*%
X127925000Y-102500000D03*
%TD*%
D23*
%TO.P,C11,2*%
%TO.N,GND*%
X123500000Y-96000000D03*
%TO.P,C11,1*%
%TO.N,Net-(U5-VR_ANA)*%
X121775000Y-96000000D03*
%TD*%
D35*
%TO.P,C10,2*%
%TO.N,GND*%
X135340000Y-132500000D03*
%TO.P,C10,1*%
%TO.N,Net-(U1-OUT)*%
X134525000Y-132500000D03*
%TD*%
D36*
%TO.P,C9,2*%
%TO.N,GND*%
X147160000Y-102000000D03*
%TO.P,C9,1*%
%TO.N,Net-(U1-OUT)*%
X147975000Y-102000000D03*
%TD*%
D37*
%TO.P,C8,1*%
%TO.N,Net-(U1-OUT)*%
X154000000Y-92500000D03*
%TO.P,C8,2*%
%TO.N,GND*%
X152450000Y-92500000D03*
%TD*%
D35*
%TO.P,C7,2*%
%TO.N,GND*%
X144907500Y-106500000D03*
%TO.P,C7,1*%
%TO.N,Net-(U1-OUT)*%
X144092500Y-106500000D03*
%TD*%
D38*
%TO.P,C6,1*%
%TO.N,Net-(U2-EN)*%
X134450000Y-113000000D03*
%TO.P,C6,2*%
%TO.N,Net-(Q2-C)*%
X136000000Y-113000000D03*
%TD*%
D23*
%TO.P,C5,1*%
%TO.N,Net-(J4-SHIELD)*%
X130775000Y-146000000D03*
%TO.P,C5,2*%
%TO.N,GND*%
X132500000Y-146000000D03*
%TD*%
D37*
%TO.P,C4,1*%
%TO.N,Net-(U1-OUT)*%
X156000000Y-99000000D03*
%TO.P,C4,2*%
%TO.N,GND*%
X154450000Y-99000000D03*
%TD*%
D39*
%TO.P,C3,1*%
%TO.N,Net-(U1-OUT)*%
X121500000Y-140500000D03*
%TO.P,C3,2*%
%TO.N,GND*%
X124500000Y-140500000D03*
%TD*%
%TO.P,C2,1*%
%TO.N,+12V*%
X105500000Y-115000000D03*
%TO.P,C2,2*%
%TO.N,GND*%
X108500000Y-115000000D03*
%TD*%
D38*
%TO.P,C1,1*%
%TO.N,+12V*%
X155950000Y-84000000D03*
%TO.P,C1,2*%
%TO.N,GND*%
X157500000Y-84000000D03*
%TD*%
D40*
%TO.N,+12V*%
X156000000Y-66000000D03*
%TO.N,Net-(U3-D-)*%
X139500000Y-140500000D03*
X137500000Y-136500000D03*
%TO.N,Net-(U3-D+)*%
X140500000Y-140500000D03*
%TO.N,Net-(J4-CC1)*%
X138209620Y-140709620D03*
X137000000Y-139000000D03*
%TO.N,Net-(U2-IO26)*%
X131139000Y-96085300D03*
X133331900Y-97624300D03*
%TO.N,Net-(U2-IO23)*%
X151882000Y-95673800D03*
X143402000Y-97900100D03*
%TO.N,Net-(U2-IO14)*%
X135053100Y-99276800D03*
X129289700Y-94609300D03*
%TO.N,Net-(U2-IO18)*%
X142970800Y-58078200D03*
X148088100Y-58078200D03*
%TO.N,Net-(U3-~{RTS})*%
X147198800Y-124177600D03*
X143233600Y-125568000D03*
%TO.N,Net-(Q1-C)*%
X156053500Y-94245400D03*
X145503900Y-92473200D03*
%TO.N,Net-(J5-SIG)*%
X104355600Y-95578600D03*
X137606800Y-94483000D03*
%TO.N,Net-(J4-CC2)*%
X143634000Y-140396700D03*
%TO.N,Net-(U3-D+)*%
X138984300Y-137500000D03*
%TO.N,Net-(U5-VR_PA)*%
X143093700Y-96424800D03*
X127957700Y-104559700D03*
%TO.N,Net-(U5-VR_DIG)*%
X127382700Y-101003900D03*
X133916700Y-98314800D03*
%TO.N,Net-(U2-EN)*%
X132013400Y-94998300D03*
X132302000Y-99156200D03*
%TO.N,Net-(U1-OUT)*%
X155679100Y-90505300D03*
X148496300Y-90931300D03*
X121794100Y-134780600D03*
X135000000Y-134151100D03*
X109978400Y-126289300D03*
X140489000Y-127800000D03*
X138277700Y-134151100D03*
X134059600Y-54319200D03*
X148837600Y-60213400D03*
%TO.N,+12V*%
X155307000Y-88650000D03*
X107326000Y-92631500D03*
%TO.N,GND*%
X153000000Y-60500000D03*
X148911600Y-51427800D03*
X148053400Y-100803500D03*
X151882000Y-101472800D03*
X137030000Y-129075900D03*
%TD*%
D41*
%TO.N,+12V*%
X155950000Y-66050000D02*
X156000000Y-66000000D01*
X155950000Y-84000000D02*
X155950000Y-66050000D01*
%TO.N,GND*%
X157500000Y-65000000D02*
X157500000Y-84000000D01*
X153000000Y-60500000D02*
X157500000Y-65000000D01*
%TO.N,Net-(U3-D-)*%
X138750000Y-141250000D02*
X138750000Y-142745000D01*
X139500000Y-140500000D02*
X138750000Y-141250000D01*
%TO.N,Net-(U3-D+)*%
X140500000Y-141000000D02*
X140250000Y-141250000D01*
X140500000Y-140500000D02*
X140500000Y-141000000D01*
X140250000Y-141250000D02*
X140250000Y-142745000D01*
%TO.N,Net-(U3-D-)*%
X137000000Y-136000000D02*
X137500000Y-136500000D01*
X137000000Y-133036214D02*
X137000000Y-136000000D01*
X137018107Y-133018107D02*
X137000000Y-133036214D01*
X138223714Y-131812500D02*
X137018107Y-133018107D01*
X138812500Y-131812500D02*
X138223714Y-131812500D01*
%TO.N,Net-(U3-D+)*%
X136000000Y-133040686D02*
X137728186Y-131312500D01*
X136000000Y-133500000D02*
X136000000Y-133040686D01*
X135650000Y-133850000D02*
X136000000Y-133500000D01*
X137000000Y-137500000D02*
X135650000Y-136150000D01*
X138984300Y-137500000D02*
X137000000Y-137500000D01*
X135650000Y-136150000D02*
X135650000Y-133850000D01*
X137728186Y-131312500D02*
X138812500Y-131312500D01*
%TO.N,Net-(U1-OUT)*%
X134525000Y-133025000D02*
X134525000Y-132500000D01*
X135000000Y-133500000D02*
X134525000Y-133025000D01*
X135000000Y-134151100D02*
X135000000Y-133500000D01*
%TO.N,GND*%
X135975000Y-132500000D02*
X135340000Y-132500000D01*
%TO.N,Net-(J4-CC1)*%
X138209620Y-140709620D02*
X138250000Y-140750000D01*
X138250000Y-140750000D02*
X138250000Y-142745000D01*
%TO.N,Net-(U3-VBUS)*%
X141290200Y-139790200D02*
X139495100Y-139790200D01*
X141900000Y-140400000D02*
X141290200Y-139790200D01*
X141900000Y-142745000D02*
X141900000Y-140400000D01*
X137100000Y-140900000D02*
X137100000Y-142745000D01*
X138209800Y-139790200D02*
X137100000Y-140900000D01*
X139495100Y-139790200D02*
X138209800Y-139790200D01*
X139500000Y-136433700D02*
X139500000Y-133500000D01*
X139634300Y-139651000D02*
X139634300Y-136568000D01*
X139495100Y-139790200D02*
X139634300Y-139651000D01*
X139634300Y-136568000D02*
X139500000Y-136433700D01*
%TO.N,Net-(J4-CC1)*%
X135500000Y-139000000D02*
X137000000Y-139000000D01*
%TO.N,Net-(U2-IO26)*%
X131139000Y-65737300D02*
X131139000Y-96085300D01*
X129101700Y-63700000D02*
X131139000Y-65737300D01*
X128000000Y-63700000D02*
X129101700Y-63700000D01*
X136094900Y-101475000D02*
X137100000Y-101475000D01*
X134651400Y-100031500D02*
X136094900Y-101475000D01*
X134651400Y-99971100D02*
X134651400Y-100031500D01*
X133265000Y-98584700D02*
X134651400Y-99971100D01*
X133265000Y-97691200D02*
X133265000Y-98584700D01*
X133331900Y-97624300D02*
X133265000Y-97691200D01*
%TO.N,Net-(U2-IO23)*%
X150390500Y-94182300D02*
X151882000Y-95673800D01*
X150390500Y-56058800D02*
X150390500Y-94182300D01*
X146601700Y-52270000D02*
X150390500Y-56058800D01*
X145500000Y-52270000D02*
X146601700Y-52270000D01*
X142814600Y-98487500D02*
X143402000Y-97900100D01*
X142037500Y-98487500D02*
X142814600Y-98487500D01*
%TO.N,Net-(U2-RXD0)*%
X145500000Y-56080000D02*
X146601700Y-56080000D01*
X147948200Y-57426500D02*
X146601700Y-56080000D01*
X148358100Y-57426500D02*
X147948200Y-57426500D01*
X149510300Y-58578700D02*
X148358100Y-57426500D01*
X149510300Y-117241800D02*
X149510300Y-58578700D01*
X141140700Y-125611400D02*
X149510300Y-117241800D01*
X141140700Y-128070000D02*
X141140700Y-125611400D01*
X141000000Y-128210700D02*
X141140700Y-128070000D01*
X141000000Y-129625000D02*
X141000000Y-128210700D01*
%TO.N,Net-(U2-IO14)*%
X135053100Y-99806900D02*
X135053100Y-99276800D01*
X135683700Y-100437500D02*
X135053100Y-99806900D01*
X136062500Y-100437500D02*
X135683700Y-100437500D01*
X129101700Y-94421300D02*
X129289700Y-94609300D01*
X129101700Y-66240000D02*
X129101700Y-94421300D01*
X128000000Y-66240000D02*
X129101700Y-66240000D01*
%TO.N,Net-(U2-IO18)*%
X144398300Y-59505700D02*
X142970800Y-58078200D01*
X144398300Y-61160000D02*
X144398300Y-59505700D01*
X145500000Y-61160000D02*
X144398300Y-61160000D01*
X143005500Y-99787500D02*
X142037500Y-99787500D01*
X147844600Y-94948400D02*
X143005500Y-99787500D01*
X147844600Y-58321700D02*
X147844600Y-94948400D01*
X148088100Y-58078200D02*
X147844600Y-58321700D01*
%TO.N,Net-(U2-TXD0)*%
X145500000Y-54810000D02*
X146601700Y-54810000D01*
X148431400Y-56639700D02*
X146601700Y-54810000D01*
X148431400Y-56931800D02*
X148431400Y-56639700D01*
X148431500Y-56931800D02*
X148431400Y-56931800D01*
X149988800Y-58489100D02*
X148431500Y-56931800D01*
X149988800Y-117486600D02*
X149988800Y-58489100D01*
X141542400Y-125933000D02*
X149988800Y-117486600D01*
X141542400Y-128236400D02*
X141542400Y-125933000D01*
X141500000Y-128278800D02*
X141542400Y-128236400D01*
X141500000Y-129625000D02*
X141500000Y-128278800D01*
%TO.N,Net-(U2-IO5)*%
X145500000Y-62430000D02*
X146601700Y-62430000D01*
X147003400Y-62831700D02*
X146601700Y-62430000D01*
X147003400Y-93456200D02*
X147003400Y-62831700D01*
X143383100Y-97076500D02*
X147003400Y-93456200D01*
X143168500Y-97076500D02*
X143383100Y-97076500D01*
X142407500Y-97837500D02*
X143168500Y-97076500D01*
X142037500Y-97837500D02*
X142407500Y-97837500D01*
%TO.N,Net-(U2-EXP-Pad39_1)*%
X133850000Y-60292500D02*
X133850000Y-60200000D01*
X134264800Y-60707300D02*
X133850000Y-60292500D01*
X134837300Y-60707300D02*
X134264800Y-60707300D01*
X135250000Y-60294600D02*
X134837300Y-60707300D01*
X135663300Y-60707900D02*
X135250000Y-60294600D01*
X136159100Y-60707900D02*
X135663300Y-60707900D01*
X136650000Y-60217000D02*
X136159100Y-60707900D01*
X136650000Y-60200000D02*
X136650000Y-60217000D01*
X135250000Y-60294600D02*
X135250000Y-60200000D01*
X133850000Y-58800000D02*
X133343400Y-58800000D01*
X133709000Y-57400000D02*
X133850000Y-57400000D01*
X133343400Y-57765600D02*
X133709000Y-57400000D01*
X133343400Y-58800000D02*
X133343400Y-57765600D01*
X134340900Y-56892100D02*
X135250000Y-56892100D01*
X133850000Y-57383000D02*
X134340900Y-56892100D01*
X133850000Y-57400000D02*
X133850000Y-57383000D01*
X135250000Y-56892100D02*
X135250000Y-57400000D01*
X136650000Y-57284500D02*
X136650000Y-57400000D01*
X136257600Y-56892100D02*
X136650000Y-57284500D01*
X135250000Y-56892100D02*
X136257600Y-56892100D01*
X136744400Y-57400000D02*
X136650000Y-57400000D01*
X137156700Y-57812300D02*
X136744400Y-57400000D01*
X137156700Y-58306900D02*
X137156700Y-57812300D01*
X136663600Y-58800000D02*
X137156700Y-58306900D01*
X136650000Y-58800000D02*
X136663600Y-58800000D01*
X133343400Y-59798800D02*
X133343400Y-58800000D01*
X133744600Y-60200000D02*
X133343400Y-59798800D01*
X133850000Y-60200000D02*
X133744600Y-60200000D01*
%TO.N,Net-(U2-IO19)*%
X145500000Y-59890000D02*
X146601700Y-59890000D01*
X147405100Y-60693400D02*
X146601700Y-59890000D01*
X147405100Y-94818700D02*
X147405100Y-60693400D01*
X143086300Y-99137500D02*
X147405100Y-94818700D01*
X142037500Y-99137500D02*
X143086300Y-99137500D01*
%TO.N,Net-(U3-~{DTR})*%
X132350800Y-128424200D02*
X131275000Y-129500000D01*
X139319300Y-128424200D02*
X132350800Y-128424200D01*
X140000000Y-129104900D02*
X139319300Y-128424200D01*
X140000000Y-129625000D02*
X140000000Y-129104900D01*
%TO.N,Net-(U3-~{RTS})*%
X147198800Y-126923800D02*
X147198800Y-124177600D01*
X149775000Y-129500000D02*
X147198800Y-126923800D01*
X142000000Y-126801600D02*
X142000000Y-129625000D01*
X143233600Y-125568000D02*
X142000000Y-126801600D01*
%TO.N,Net-(Q2-B)*%
X132730000Y-125082500D02*
X132730000Y-123000000D01*
X130361100Y-127451400D02*
X132730000Y-125082500D01*
X130361100Y-129963600D02*
X130361100Y-127451400D01*
X130758300Y-130360800D02*
X130361100Y-129963600D01*
X132139200Y-130360800D02*
X130758300Y-130360800D01*
X133000000Y-129500000D02*
X132139200Y-130360800D01*
%TO.N,Net-(Q1-B)*%
X150230000Y-128230000D02*
X151500000Y-129500000D01*
X150230000Y-123000000D02*
X150230000Y-128230000D01*
%TO.N,Net-(Q1-C)*%
X156842500Y-95034400D02*
X156053500Y-94245400D01*
X156842500Y-118534200D02*
X156842500Y-95034400D01*
X152376700Y-123000000D02*
X156842500Y-118534200D01*
X151500000Y-123000000D02*
X152376700Y-123000000D01*
X146601700Y-91375400D02*
X146601700Y-67510000D01*
X145503900Y-92473200D02*
X146601700Y-91375400D01*
X145500000Y-67510000D02*
X146601700Y-67510000D01*
%TO.N,Net-(J5-SIG)*%
X103500000Y-94723000D02*
X103500000Y-90500000D01*
X104355600Y-95578600D02*
X103500000Y-94723000D01*
X137606800Y-95356800D02*
X137750000Y-95500000D01*
X137606800Y-94483000D02*
X137606800Y-95356800D01*
%TO.N,Net-(J4-CC2)*%
X143634000Y-140141000D02*
X144775000Y-139000000D01*
X143634000Y-140396700D02*
X143634000Y-140141000D01*
%TO.N,Net-(U3-VBUS)*%
X139500000Y-133500000D02*
X140000000Y-133500000D01*
%TO.N,Net-(U5-VR_PA)*%
X141427100Y-94758200D02*
X143093700Y-96424800D01*
X139365800Y-94758200D02*
X141427100Y-94758200D01*
X139050000Y-95074000D02*
X139365800Y-94758200D01*
X139050000Y-95500000D02*
X139050000Y-95074000D01*
X124925000Y-107592400D02*
X127957700Y-104559700D01*
X124925000Y-116500000D02*
X124925000Y-107592400D01*
%TO.N,Net-(U5-VR_DIG)*%
X127382700Y-101957700D02*
X127382700Y-101003900D01*
X127925000Y-102500000D02*
X127382700Y-101957700D01*
X134985300Y-98487500D02*
X134594600Y-98096800D01*
X136062500Y-98487500D02*
X134985300Y-98487500D01*
X134376600Y-98314800D02*
X133916700Y-98314800D01*
X134594600Y-98096800D02*
X134376600Y-98314800D01*
%TO.N,Net-(U5-VR_ANA)*%
X135361400Y-97187500D02*
X136062500Y-97187500D01*
X134744800Y-96570900D02*
X135361400Y-97187500D01*
X132466100Y-96570900D02*
X134744800Y-96570900D01*
X132262400Y-96774600D02*
X132466100Y-96570900D01*
X130533400Y-96774600D02*
X132262400Y-96774600D01*
X128922400Y-95163600D02*
X130533400Y-96774600D01*
X122611400Y-95163600D02*
X128922400Y-95163600D01*
X121775000Y-96000000D02*
X122611400Y-95163600D01*
%TO.N,Net-(Q2-C)*%
X136000000Y-121876700D02*
X134876700Y-123000000D01*
X136000000Y-113000000D02*
X136000000Y-121876700D01*
X134000000Y-123000000D02*
X134876700Y-123000000D01*
%TO.N,Net-(U2-EN)*%
X132302000Y-110852000D02*
X134450000Y-113000000D01*
X132302000Y-99156200D02*
X132302000Y-110852000D01*
X128000000Y-53540000D02*
X129101700Y-53540000D01*
X132013400Y-56451700D02*
X132013400Y-94998300D01*
X129101700Y-53540000D02*
X132013400Y-56451700D01*
%TO.N,Net-(J4-SHIELD)*%
X143820000Y-147500000D02*
X143820000Y-143320000D01*
X135180000Y-147500000D02*
X135180000Y-146248300D01*
X135180000Y-146248300D02*
X135180000Y-143320000D01*
X131616300Y-146841300D02*
X130775000Y-146000000D01*
X134234200Y-146841300D02*
X131616300Y-146841300D01*
X134827200Y-146248300D02*
X134234200Y-146841300D01*
X135180000Y-146248300D02*
X134827200Y-146248300D01*
%TO.N,Net-(U1-OUT)*%
X155679100Y-90820900D02*
X155679100Y-90505300D01*
X154000000Y-92500000D02*
X155679100Y-90820900D01*
X109567700Y-126700000D02*
X109978400Y-126289300D01*
X107000000Y-126700000D02*
X109567700Y-126700000D01*
X145327800Y-107086600D02*
X144503900Y-107086600D01*
X147975000Y-104439400D02*
X145327800Y-107086600D01*
X147975000Y-102000000D02*
X147975000Y-104439400D01*
X140489000Y-111101500D02*
X140489000Y-127800000D01*
X144503900Y-107086600D02*
X140489000Y-111101500D01*
X144092500Y-106675200D02*
X144503900Y-107086600D01*
X144092500Y-106500000D02*
X144092500Y-106675200D01*
X121500000Y-135074700D02*
X121794100Y-134780600D01*
X121500000Y-140500000D02*
X121500000Y-135074700D01*
X155999900Y-99000000D02*
X156000000Y-99000000D01*
X155999900Y-95115500D02*
X155999900Y-99000000D01*
X154000000Y-93115600D02*
X155999900Y-95115500D01*
X154000000Y-92500000D02*
X154000000Y-93115600D01*
X138289400Y-132312500D02*
X138812500Y-132312500D01*
X138046200Y-132555700D02*
X138289400Y-132312500D01*
X138046200Y-133919600D02*
X138046200Y-132555700D01*
X138277700Y-134151100D02*
X138046200Y-133919600D01*
X132010400Y-52270000D02*
X134059600Y-54319200D01*
X128000000Y-52270000D02*
X132010400Y-52270000D01*
X148752300Y-101222700D02*
X148752300Y-90931300D01*
X147975000Y-102000000D02*
X148752300Y-101222700D01*
X148837600Y-90846000D02*
X148752300Y-90931300D01*
X148837600Y-60213400D02*
X148837600Y-90846000D01*
X148752300Y-90931300D02*
X148496300Y-90931300D01*
X141000000Y-103407500D02*
X144092500Y-106500000D01*
X141000000Y-102252100D02*
X141000000Y-103407500D01*
X141000000Y-101475000D02*
X141000000Y-102252100D01*
X136303800Y-102252100D02*
X141000000Y-102252100D01*
X133011000Y-98959300D02*
X136303800Y-102252100D01*
X133011000Y-98898800D02*
X133011000Y-98959300D01*
X132680200Y-98568000D02*
X133011000Y-98898800D01*
X132680200Y-97354400D02*
X132680200Y-98568000D01*
X133062000Y-96972600D02*
X132680200Y-97354400D01*
X134412100Y-96972600D02*
X133062000Y-96972600D01*
X135277000Y-97837500D02*
X134412100Y-96972600D01*
X136062500Y-97837500D02*
X135277000Y-97837500D01*
%TO.N,+12V*%
X155307000Y-84643000D02*
X155950000Y-84000000D01*
X155307000Y-88650000D02*
X155307000Y-84643000D01*
X105500000Y-123500000D02*
X105500000Y-115000000D01*
X107000000Y-125000000D02*
X105500000Y-123500000D01*
X105500000Y-115000000D02*
X105500000Y-113848300D01*
X107326000Y-112022300D02*
X107326000Y-92631500D01*
X105500000Y-113848300D02*
X107326000Y-112022300D01*
%TO.N,GND*%
X124500000Y-140500000D02*
X124500000Y-139348300D01*
X116150000Y-128400000D02*
X113725000Y-128400000D01*
X113725000Y-125625000D02*
X113725000Y-128400000D01*
X113725000Y-128400000D02*
X113725000Y-131175000D01*
X131460000Y-123000000D02*
X130583300Y-123000000D01*
X116150000Y-128050000D02*
X118575000Y-125625000D01*
X116150000Y-128400000D02*
X116150000Y-128050000D01*
X140000000Y-130812500D02*
X140750000Y-131562500D01*
X138812500Y-130812500D02*
X140000000Y-130812500D01*
X138400000Y-97837500D02*
X138400000Y-95500000D01*
X139050000Y-98487500D02*
X138400000Y-97837500D01*
X140350000Y-95500000D02*
X141000000Y-95500000D01*
X141768200Y-96537500D02*
X142037500Y-96537500D01*
X141000000Y-95769300D02*
X141768200Y-96537500D01*
X141000000Y-95500000D02*
X141000000Y-95769300D01*
X102083400Y-87414900D02*
X102025000Y-87473300D01*
X104916600Y-87414900D02*
X102083400Y-87414900D01*
X104975000Y-87473300D02*
X104916600Y-87414900D01*
X104975000Y-88950000D02*
X104975000Y-87473300D01*
X128972300Y-116500000D02*
X127000000Y-116500000D01*
X129331800Y-102500000D02*
X130000000Y-102500000D01*
X129331800Y-101831800D02*
X129331800Y-102500000D01*
X123500000Y-96000000D02*
X129331800Y-101831800D01*
X118575000Y-125625000D02*
X118575000Y-131175000D01*
X148483800Y-51000000D02*
X145500000Y-51000000D01*
X148911600Y-51427800D02*
X148483800Y-51000000D01*
X140350000Y-97187500D02*
X140350000Y-95500000D01*
X139050000Y-98487500D02*
X140350000Y-97187500D01*
X129331800Y-116140500D02*
X129331800Y-102500000D01*
X128972300Y-116500000D02*
X129331800Y-116140500D01*
X142700000Y-139702900D02*
X142700000Y-142745000D01*
X144230500Y-138172400D02*
X142700000Y-139702900D01*
X145319500Y-138172400D02*
X144230500Y-138172400D01*
X146147000Y-138999900D02*
X145319500Y-138172400D01*
X146147000Y-139000000D02*
X146147000Y-138999900D01*
X146500000Y-139000000D02*
X146147000Y-139000000D01*
X126898300Y-51000000D02*
X126898300Y-68780000D01*
X128000000Y-51000000D02*
X126898300Y-51000000D01*
X108500000Y-122442000D02*
X111623700Y-125565700D01*
X108500000Y-115000000D02*
X108500000Y-122442000D01*
X126899800Y-68780000D02*
X126898300Y-68780000D01*
X126999200Y-68780000D02*
X126899800Y-68780000D01*
X128000000Y-68780000D02*
X126999200Y-68780000D01*
X122669000Y-96831000D02*
X123500000Y-96000000D01*
X121191600Y-96831000D02*
X122669000Y-96831000D01*
X120884900Y-96524300D02*
X121191600Y-96831000D01*
X120884900Y-74794900D02*
X120884900Y-96524300D01*
X126899800Y-68780000D02*
X120884900Y-74794900D01*
X141302900Y-96537500D02*
X142037500Y-96537500D01*
X141273800Y-96566600D02*
X141302900Y-96537500D01*
X141273800Y-100039800D02*
X141273800Y-96566600D01*
X141671500Y-100437500D02*
X141273800Y-100039800D01*
X142037500Y-100437500D02*
X141671500Y-100437500D01*
X144907500Y-103307500D02*
X144907500Y-106500000D01*
X142037500Y-100437500D02*
X144907500Y-103307500D01*
X102025000Y-88211600D02*
X102025000Y-87473300D01*
X102025000Y-88211600D02*
X102025000Y-88950000D01*
X154450000Y-94500000D02*
X152450000Y-92500000D01*
X154450000Y-99000000D02*
X154450000Y-94500000D01*
X146500000Y-123954800D02*
X146500000Y-139000000D01*
X147454800Y-123000000D02*
X146500000Y-123954800D01*
X148083300Y-123000000D02*
X147454800Y-123000000D01*
X113665700Y-125565700D02*
X113725000Y-125625000D01*
X111623700Y-125565700D02*
X113665700Y-125565700D01*
X108789400Y-128400000D02*
X111623700Y-125565700D01*
X107000000Y-128400000D02*
X108789400Y-128400000D01*
X148960000Y-123000000D02*
X148521700Y-123000000D01*
X148521700Y-123000000D02*
X148083300Y-123000000D01*
X105445000Y-128400000D02*
X107000000Y-128400000D01*
X102025000Y-124980000D02*
X105445000Y-128400000D01*
X102025000Y-88950000D02*
X102025000Y-124980000D01*
X130583200Y-118110900D02*
X130583200Y-123000000D01*
X128972300Y-116500000D02*
X130583200Y-118110900D01*
X130583200Y-123000000D02*
X130583300Y-123000000D01*
X129959400Y-123623800D02*
X130583200Y-123000000D01*
X129959400Y-135184400D02*
X129959400Y-123623800D01*
X133775000Y-139000000D02*
X129959400Y-135184400D01*
X157500000Y-87450000D02*
X152450000Y-92500000D01*
X157500000Y-84000000D02*
X157500000Y-87450000D01*
X147160000Y-104247500D02*
X147160000Y-102000000D01*
X144907500Y-106500000D02*
X147160000Y-104247500D01*
X147160000Y-101696900D02*
X148053400Y-100803500D01*
X147160000Y-102000000D02*
X147160000Y-101696900D01*
X123216900Y-139348300D02*
X124500000Y-139348300D01*
X122951700Y-139613500D02*
X123216900Y-139348300D01*
X122951700Y-141445700D02*
X122951700Y-139613500D01*
X122745700Y-141651700D02*
X122951700Y-141445700D01*
X120254300Y-141651700D02*
X122745700Y-141651700D01*
X118575000Y-139972400D02*
X120254300Y-141651700D01*
X118575000Y-131175000D02*
X118575000Y-139972400D01*
X127000000Y-136848300D02*
X127000000Y-116500000D01*
X124500000Y-139348300D02*
X127000000Y-136848300D01*
X151977200Y-101472800D02*
X151882000Y-101472800D01*
X154450000Y-99000000D02*
X151977200Y-101472800D01*
X151882000Y-119639700D02*
X148521700Y-123000000D01*
X151882000Y-101472800D02*
X151882000Y-119639700D01*
X136300000Y-142632200D02*
X136300000Y-142745000D01*
X135176700Y-141508900D02*
X136300000Y-142632200D01*
X132500000Y-144185600D02*
X135176700Y-141508900D01*
X132500000Y-146000000D02*
X132500000Y-144185600D01*
X137662500Y-130812500D02*
X138812500Y-130812500D01*
X136952700Y-131522300D02*
X137662500Y-130812500D01*
X136952600Y-131522300D02*
X136952700Y-131522300D01*
X136952600Y-131522400D02*
X136952600Y-131522300D01*
X135975000Y-132500000D02*
X136952600Y-131522400D01*
X137662500Y-129708400D02*
X137030000Y-129075900D01*
X137662500Y-130812500D02*
X137662500Y-129708400D01*
X135176700Y-140401700D02*
X135176700Y-141508900D01*
X133775000Y-139000000D02*
X135176700Y-140401700D01*
%TD*%
M02*
