%TF.GenerationSoftware,KiCad,Pcbnew,8.0.4*%
%TF.CreationDate,2025-08-04T00:55:42+05:30*%
%TF.ProjectId,Receiver,52656365-6976-4657-922e-6b696361645f,rev?*%
%TF.SameCoordinates,Original*%
%TF.FileFunction,Soldermask,Top*%
%TF.FilePolarity,Negative*%
%FSLAX46Y46*%
G04 Gerber Fmt 4.6, Leading zero omitted, Abs format (unit mm)*
G04 Created by KiCad (PCBNEW 8.0.4) date 2025-08-04 00:55:42*
%MOMM*%
%LPD*%
G01*
G04 APERTURE LIST*
G04 Aperture macros list*
%AMRoundRect*
0 Rectangle with rounded corners*
0 $1 Rounding radius*
0 $2 $3 $4 $5 $6 $7 $8 $9 X,Y pos of 4 corners*
0 Add a 4 corners polygon primitive as box body*
4,1,4,$2,$3,$4,$5,$6,$7,$8,$9,$2,$3,0*
0 Add four circle primitives for the rounded corners*
1,1,$1+$1,$2,$3*
1,1,$1+$1,$4,$5*
1,1,$1+$1,$6,$7*
1,1,$1+$1,$8,$9*
0 Add four rect primitives between the rounded corners*
20,1,$1+$1,$2,$3,$4,$5,0*
20,1,$1+$1,$4,$5,$6,$7,0*
20,1,$1+$1,$6,$7,$8,$9,0*
20,1,$1+$1,$8,$9,$2,$3,0*%
G04 Aperture macros list end*
%ADD10RoundRect,0.075000X-0.312500X-0.075000X0.312500X-0.075000X0.312500X0.075000X-0.312500X0.075000X0*%
%ADD11RoundRect,0.075000X-0.075000X-0.312500X0.075000X-0.312500X0.075000X0.312500X-0.075000X0.312500X0*%
%ADD12R,4.800000X4.800000*%
%ADD13RoundRect,0.062500X-0.350000X-0.062500X0.350000X-0.062500X0.350000X0.062500X-0.350000X0.062500X0*%
%ADD14RoundRect,0.062500X-0.062500X-0.350000X0.062500X-0.350000X0.062500X0.350000X-0.062500X0.350000X0*%
%ADD15R,2.600000X2.600000*%
%ADD16RoundRect,0.102000X-0.750000X-0.450000X0.750000X-0.450000X0.750000X0.450000X-0.750000X0.450000X0*%
%ADD17RoundRect,0.102000X-0.450000X-0.450000X0.450000X-0.450000X0.450000X0.450000X-0.450000X0.450000X0*%
%ADD18RoundRect,0.250000X-2.050000X-0.300000X2.050000X-0.300000X2.050000X0.300000X-2.050000X0.300000X0*%
%ADD19RoundRect,0.250002X-4.449998X-5.149998X4.449998X-5.149998X4.449998X5.149998X-4.449998X5.149998X0*%
%ADD20RoundRect,0.237500X0.300000X0.237500X-0.300000X0.237500X-0.300000X-0.237500X0.300000X-0.237500X0*%
%ADD21RoundRect,0.237500X-0.300000X-0.237500X0.300000X-0.237500X0.300000X0.237500X-0.300000X0.237500X0*%
%ADD22R,1.050000X1.500000*%
%ADD23O,1.050000X1.500000*%
%ADD24RoundRect,0.102000X-0.525000X-0.550000X0.525000X-0.550000X0.525000X0.550000X-0.525000X0.550000X0*%
%ADD25RoundRect,0.102000X-0.550000X-1.125000X0.550000X-1.125000X0.550000X1.125000X-0.550000X1.125000X0*%
%ADD26C,0.650000*%
%ADD27RoundRect,0.150000X-0.150000X-0.425000X0.150000X-0.425000X0.150000X0.425000X-0.150000X0.425000X0*%
%ADD28RoundRect,0.075000X-0.075000X-0.500000X0.075000X-0.500000X0.075000X0.500000X-0.075000X0.500000X0*%
%ADD29O,1.000000X2.100000*%
%ADD30O,1.000000X1.800000*%
%ADD31C,1.100000*%
%ADD32R,2.200000X2.200000*%
%ADD33C,2.200000*%
%ADD34RoundRect,0.250000X-0.337500X-0.475000X0.337500X-0.475000X0.337500X0.475000X-0.337500X0.475000X0*%
%ADD35RoundRect,0.100000X-0.217500X-0.100000X0.217500X-0.100000X0.217500X0.100000X-0.217500X0.100000X0*%
%ADD36RoundRect,0.100000X0.217500X0.100000X-0.217500X0.100000X-0.217500X-0.100000X0.217500X-0.100000X0*%
%ADD37RoundRect,0.225000X0.225000X0.250000X-0.225000X0.250000X-0.225000X-0.250000X0.225000X-0.250000X0*%
%ADD38RoundRect,0.225000X-0.225000X-0.250000X0.225000X-0.250000X0.225000X0.250000X-0.225000X0.250000X0*%
%ADD39R,2.200000X1.600000*%
G04 APERTURE END LIST*
D10*
%TO.C,U5*%
X136062500Y-96537500D03*
X136062500Y-97187500D03*
X136062500Y-97837500D03*
X136062500Y-98487500D03*
X136062500Y-99137500D03*
X136062500Y-99787500D03*
X136062500Y-100437500D03*
D11*
X137100000Y-101475000D03*
X137750000Y-101475000D03*
X138400000Y-101475000D03*
X139050000Y-101475000D03*
X139700000Y-101475000D03*
X140350000Y-101475000D03*
X141000000Y-101475000D03*
D10*
X142037500Y-100437500D03*
X142037500Y-99787500D03*
X142037500Y-99137500D03*
X142037500Y-98487500D03*
X142037500Y-97837500D03*
X142037500Y-97187500D03*
X142037500Y-96537500D03*
D11*
X141000000Y-95500000D03*
X140350000Y-95500000D03*
X139700000Y-95500000D03*
X139050000Y-95500000D03*
X138400000Y-95500000D03*
X137750000Y-95500000D03*
X137100000Y-95500000D03*
D12*
X139050000Y-98487500D03*
%TD*%
D13*
%TO.C,U3*%
X138812500Y-130312500D03*
X138812500Y-130812500D03*
X138812500Y-131312500D03*
X138812500Y-131812500D03*
X138812500Y-132312500D03*
X138812500Y-132812500D03*
D14*
X139500000Y-133500000D03*
X140000000Y-133500000D03*
X140500000Y-133500000D03*
X141000000Y-133500000D03*
X141500000Y-133500000D03*
X142000000Y-133500000D03*
D13*
X142687500Y-132812500D03*
X142687500Y-132312500D03*
X142687500Y-131812500D03*
X142687500Y-131312500D03*
X142687500Y-130812500D03*
X142687500Y-130312500D03*
D14*
X142000000Y-129625000D03*
X141500000Y-129625000D03*
X141000000Y-129625000D03*
X140500000Y-129625000D03*
X140000000Y-129625000D03*
X139500000Y-129625000D03*
D15*
X140750000Y-131562500D03*
%TD*%
D16*
%TO.C,U2*%
X128000000Y-51000000D03*
X128000000Y-52270000D03*
X128000000Y-53540000D03*
X128000000Y-54810000D03*
X128000000Y-56080000D03*
X128000000Y-57350000D03*
X128000000Y-58620000D03*
X128000000Y-59890000D03*
X128000000Y-61160000D03*
X128000000Y-62430000D03*
X128000000Y-63700000D03*
X128000000Y-64970000D03*
X128000000Y-66240000D03*
X128000000Y-67510000D03*
X128000000Y-68780000D03*
X128000000Y-70050000D03*
X128000000Y-71320000D03*
X128000000Y-72590000D03*
X128000000Y-73860000D03*
X145500000Y-73860000D03*
X145500000Y-72590000D03*
X145500000Y-71320000D03*
X145500000Y-70050000D03*
X145500000Y-68780000D03*
X145500000Y-67510000D03*
X145500000Y-66240000D03*
X145500000Y-64970000D03*
X145500000Y-63700000D03*
X145500000Y-62430000D03*
X145500000Y-61160000D03*
X145500000Y-59890000D03*
X145500000Y-58620000D03*
X145500000Y-57350000D03*
X145500000Y-56080000D03*
X145500000Y-54810000D03*
X145500000Y-53540000D03*
X145500000Y-52270000D03*
X145500000Y-51000000D03*
D17*
X133850000Y-57400000D03*
X135250000Y-57400000D03*
X136650000Y-57400000D03*
X133850000Y-58800000D03*
X135250000Y-58800000D03*
X136650000Y-58800000D03*
X133850000Y-60200000D03*
X135250000Y-60200000D03*
X136650000Y-60200000D03*
%TD*%
D18*
%TO.C,U1*%
X107000000Y-125000000D03*
X107000000Y-126700000D03*
X107000000Y-128400000D03*
D19*
X116150000Y-128400000D03*
D18*
X107000000Y-130100000D03*
X107000000Y-131800000D03*
%TD*%
D20*
%TO.C,R5*%
X135500000Y-139000000D03*
X133775000Y-139000000D03*
%TD*%
D21*
%TO.C,R4*%
X144775000Y-139000000D03*
X146500000Y-139000000D03*
%TD*%
%TO.C,R3*%
X131275000Y-129500000D03*
X133000000Y-129500000D03*
%TD*%
%TO.C,R2*%
X149775000Y-129500000D03*
X151500000Y-129500000D03*
%TD*%
D22*
%TO.C,Q2*%
X131460000Y-123000000D03*
D23*
X132730000Y-123000000D03*
X134000000Y-123000000D03*
%TD*%
D22*
%TO.C,Q1*%
X148960000Y-123000000D03*
D23*
X150230000Y-123000000D03*
X151500000Y-123000000D03*
%TD*%
D24*
%TO.C,J5*%
X103500000Y-90500000D03*
D25*
X104975000Y-88950000D03*
X102025000Y-88950000D03*
%TD*%
D26*
%TO.C,J4*%
X136610000Y-143820000D03*
X142390000Y-143820000D03*
D27*
X136300000Y-142745000D03*
X137100000Y-142745000D03*
D28*
X138250000Y-142745000D03*
X139250000Y-142745000D03*
X139750000Y-142745000D03*
X140750000Y-142745000D03*
D27*
X141900000Y-142745000D03*
X142700000Y-142745000D03*
X142700000Y-142745000D03*
X141900000Y-142745000D03*
D28*
X141250000Y-142745000D03*
X140250000Y-142745000D03*
X138750000Y-142745000D03*
X137750000Y-142745000D03*
D27*
X137100000Y-142745000D03*
X136300000Y-142745000D03*
D29*
X135180000Y-143320000D03*
D30*
X135180000Y-147500000D03*
D29*
X143820000Y-143320000D03*
D30*
X143820000Y-147500000D03*
%TD*%
D31*
%TO.C,J1*%
X164040000Y-62000000D03*
X164040000Y-59460000D03*
D32*
X161500000Y-62000000D03*
D33*
X161500000Y-59460000D03*
%TD*%
D34*
%TO.C,C13*%
X127000000Y-116500000D03*
X124925000Y-116500000D03*
%TD*%
%TO.C,C12*%
X130000000Y-102500000D03*
X127925000Y-102500000D03*
%TD*%
D21*
%TO.C,C11*%
X123500000Y-96000000D03*
X121775000Y-96000000D03*
%TD*%
D35*
%TO.C,C10*%
X135340000Y-132500000D03*
X134525000Y-132500000D03*
%TD*%
D36*
%TO.C,C9*%
X147160000Y-102000000D03*
X147975000Y-102000000D03*
%TD*%
D37*
%TO.C,C8*%
X154000000Y-92500000D03*
X152450000Y-92500000D03*
%TD*%
D35*
%TO.C,C7*%
X144907500Y-106500000D03*
X144092500Y-106500000D03*
%TD*%
D38*
%TO.C,C6*%
X134450000Y-113000000D03*
X136000000Y-113000000D03*
%TD*%
D21*
%TO.C,C5*%
X130775000Y-146000000D03*
X132500000Y-146000000D03*
%TD*%
D37*
%TO.C,C4*%
X156000000Y-99000000D03*
X154450000Y-99000000D03*
%TD*%
D39*
%TO.C,C3*%
X121500000Y-140500000D03*
X124500000Y-140500000D03*
%TD*%
%TO.C,C2*%
X105500000Y-115000000D03*
X108500000Y-115000000D03*
%TD*%
D38*
%TO.C,C1*%
X155950000Y-84000000D03*
X157500000Y-84000000D03*
%TD*%
M02*
