%TF.GenerationSoftware,KiCad,Pcbnew,8.0.4*%
%TF.CreationDate,2025-08-04T00:55:42+05:30*%
%TF.ProjectId,Receiver,52656365-6976-4657-922e-6b696361645f,rev?*%
%TF.SameCoordinates,Original*%
%TF.FileFunction,Legend,Top*%
%TF.FilePolarity,Positive*%
%FSLAX46Y46*%
G04 Gerber Fmt 4.6, Leading zero omitted, Abs format (unit mm)*
G04 Created by KiCad (PCBNEW 8.0.4) date 2025-08-04 00:55:42*
%MOMM*%
%LPD*%
G01*
G04 APERTURE LIST*
%ADD10C,0.150000*%
%ADD11C,0.120000*%
%ADD12C,0.127000*%
%ADD13C,0.200000*%
G04 APERTURE END LIST*
D10*
X138288095Y-93612319D02*
X138288095Y-94421842D01*
X138288095Y-94421842D02*
X138335714Y-94517080D01*
X138335714Y-94517080D02*
X138383333Y-94564700D01*
X138383333Y-94564700D02*
X138478571Y-94612319D01*
X138478571Y-94612319D02*
X138669047Y-94612319D01*
X138669047Y-94612319D02*
X138764285Y-94564700D01*
X138764285Y-94564700D02*
X138811904Y-94517080D01*
X138811904Y-94517080D02*
X138859523Y-94421842D01*
X138859523Y-94421842D02*
X138859523Y-93612319D01*
X139811904Y-93612319D02*
X139335714Y-93612319D01*
X139335714Y-93612319D02*
X139288095Y-94088509D01*
X139288095Y-94088509D02*
X139335714Y-94040890D01*
X139335714Y-94040890D02*
X139430952Y-93993271D01*
X139430952Y-93993271D02*
X139669047Y-93993271D01*
X139669047Y-93993271D02*
X139764285Y-94040890D01*
X139764285Y-94040890D02*
X139811904Y-94088509D01*
X139811904Y-94088509D02*
X139859523Y-94183747D01*
X139859523Y-94183747D02*
X139859523Y-94421842D01*
X139859523Y-94421842D02*
X139811904Y-94517080D01*
X139811904Y-94517080D02*
X139764285Y-94564700D01*
X139764285Y-94564700D02*
X139669047Y-94612319D01*
X139669047Y-94612319D02*
X139430952Y-94612319D01*
X139430952Y-94612319D02*
X139335714Y-94564700D01*
X139335714Y-94564700D02*
X139288095Y-94517080D01*
X139988095Y-127717319D02*
X139988095Y-128526842D01*
X139988095Y-128526842D02*
X140035714Y-128622080D01*
X140035714Y-128622080D02*
X140083333Y-128669700D01*
X140083333Y-128669700D02*
X140178571Y-128717319D01*
X140178571Y-128717319D02*
X140369047Y-128717319D01*
X140369047Y-128717319D02*
X140464285Y-128669700D01*
X140464285Y-128669700D02*
X140511904Y-128622080D01*
X140511904Y-128622080D02*
X140559523Y-128526842D01*
X140559523Y-128526842D02*
X140559523Y-127717319D01*
X140940476Y-127717319D02*
X141559523Y-127717319D01*
X141559523Y-127717319D02*
X141226190Y-128098271D01*
X141226190Y-128098271D02*
X141369047Y-128098271D01*
X141369047Y-128098271D02*
X141464285Y-128145890D01*
X141464285Y-128145890D02*
X141511904Y-128193509D01*
X141511904Y-128193509D02*
X141559523Y-128288747D01*
X141559523Y-128288747D02*
X141559523Y-128526842D01*
X141559523Y-128526842D02*
X141511904Y-128622080D01*
X141511904Y-128622080D02*
X141464285Y-128669700D01*
X141464285Y-128669700D02*
X141369047Y-128717319D01*
X141369047Y-128717319D02*
X141083333Y-128717319D01*
X141083333Y-128717319D02*
X140988095Y-128669700D01*
X140988095Y-128669700D02*
X140940476Y-128622080D01*
X130163095Y-75739819D02*
X130163095Y-76549342D01*
X130163095Y-76549342D02*
X130210714Y-76644580D01*
X130210714Y-76644580D02*
X130258333Y-76692200D01*
X130258333Y-76692200D02*
X130353571Y-76739819D01*
X130353571Y-76739819D02*
X130544047Y-76739819D01*
X130544047Y-76739819D02*
X130639285Y-76692200D01*
X130639285Y-76692200D02*
X130686904Y-76644580D01*
X130686904Y-76644580D02*
X130734523Y-76549342D01*
X130734523Y-76549342D02*
X130734523Y-75739819D01*
X131163095Y-75835057D02*
X131210714Y-75787438D01*
X131210714Y-75787438D02*
X131305952Y-75739819D01*
X131305952Y-75739819D02*
X131544047Y-75739819D01*
X131544047Y-75739819D02*
X131639285Y-75787438D01*
X131639285Y-75787438D02*
X131686904Y-75835057D01*
X131686904Y-75835057D02*
X131734523Y-75930295D01*
X131734523Y-75930295D02*
X131734523Y-76025533D01*
X131734523Y-76025533D02*
X131686904Y-76168390D01*
X131686904Y-76168390D02*
X131115476Y-76739819D01*
X131115476Y-76739819D02*
X131734523Y-76739819D01*
X113888095Y-121204819D02*
X113888095Y-122014342D01*
X113888095Y-122014342D02*
X113935714Y-122109580D01*
X113935714Y-122109580D02*
X113983333Y-122157200D01*
X113983333Y-122157200D02*
X114078571Y-122204819D01*
X114078571Y-122204819D02*
X114269047Y-122204819D01*
X114269047Y-122204819D02*
X114364285Y-122157200D01*
X114364285Y-122157200D02*
X114411904Y-122109580D01*
X114411904Y-122109580D02*
X114459523Y-122014342D01*
X114459523Y-122014342D02*
X114459523Y-121204819D01*
X115459523Y-122204819D02*
X114888095Y-122204819D01*
X115173809Y-122204819D02*
X115173809Y-121204819D01*
X115173809Y-121204819D02*
X115078571Y-121347676D01*
X115078571Y-121347676D02*
X114983333Y-121442914D01*
X114983333Y-121442914D02*
X114888095Y-121490533D01*
X134470833Y-140884819D02*
X134137500Y-140408628D01*
X133899405Y-140884819D02*
X133899405Y-139884819D01*
X133899405Y-139884819D02*
X134280357Y-139884819D01*
X134280357Y-139884819D02*
X134375595Y-139932438D01*
X134375595Y-139932438D02*
X134423214Y-139980057D01*
X134423214Y-139980057D02*
X134470833Y-140075295D01*
X134470833Y-140075295D02*
X134470833Y-140218152D01*
X134470833Y-140218152D02*
X134423214Y-140313390D01*
X134423214Y-140313390D02*
X134375595Y-140361009D01*
X134375595Y-140361009D02*
X134280357Y-140408628D01*
X134280357Y-140408628D02*
X133899405Y-140408628D01*
X135375595Y-139884819D02*
X134899405Y-139884819D01*
X134899405Y-139884819D02*
X134851786Y-140361009D01*
X134851786Y-140361009D02*
X134899405Y-140313390D01*
X134899405Y-140313390D02*
X134994643Y-140265771D01*
X134994643Y-140265771D02*
X135232738Y-140265771D01*
X135232738Y-140265771D02*
X135327976Y-140313390D01*
X135327976Y-140313390D02*
X135375595Y-140361009D01*
X135375595Y-140361009D02*
X135423214Y-140456247D01*
X135423214Y-140456247D02*
X135423214Y-140694342D01*
X135423214Y-140694342D02*
X135375595Y-140789580D01*
X135375595Y-140789580D02*
X135327976Y-140837200D01*
X135327976Y-140837200D02*
X135232738Y-140884819D01*
X135232738Y-140884819D02*
X134994643Y-140884819D01*
X134994643Y-140884819D02*
X134899405Y-140837200D01*
X134899405Y-140837200D02*
X134851786Y-140789580D01*
X145470833Y-138024819D02*
X145137500Y-137548628D01*
X144899405Y-138024819D02*
X144899405Y-137024819D01*
X144899405Y-137024819D02*
X145280357Y-137024819D01*
X145280357Y-137024819D02*
X145375595Y-137072438D01*
X145375595Y-137072438D02*
X145423214Y-137120057D01*
X145423214Y-137120057D02*
X145470833Y-137215295D01*
X145470833Y-137215295D02*
X145470833Y-137358152D01*
X145470833Y-137358152D02*
X145423214Y-137453390D01*
X145423214Y-137453390D02*
X145375595Y-137501009D01*
X145375595Y-137501009D02*
X145280357Y-137548628D01*
X145280357Y-137548628D02*
X144899405Y-137548628D01*
X146327976Y-137358152D02*
X146327976Y-138024819D01*
X146089881Y-136977200D02*
X145851786Y-137691485D01*
X145851786Y-137691485D02*
X146470833Y-137691485D01*
X131970833Y-128524819D02*
X131637500Y-128048628D01*
X131399405Y-128524819D02*
X131399405Y-127524819D01*
X131399405Y-127524819D02*
X131780357Y-127524819D01*
X131780357Y-127524819D02*
X131875595Y-127572438D01*
X131875595Y-127572438D02*
X131923214Y-127620057D01*
X131923214Y-127620057D02*
X131970833Y-127715295D01*
X131970833Y-127715295D02*
X131970833Y-127858152D01*
X131970833Y-127858152D02*
X131923214Y-127953390D01*
X131923214Y-127953390D02*
X131875595Y-128001009D01*
X131875595Y-128001009D02*
X131780357Y-128048628D01*
X131780357Y-128048628D02*
X131399405Y-128048628D01*
X132304167Y-127524819D02*
X132923214Y-127524819D01*
X132923214Y-127524819D02*
X132589881Y-127905771D01*
X132589881Y-127905771D02*
X132732738Y-127905771D01*
X132732738Y-127905771D02*
X132827976Y-127953390D01*
X132827976Y-127953390D02*
X132875595Y-128001009D01*
X132875595Y-128001009D02*
X132923214Y-128096247D01*
X132923214Y-128096247D02*
X132923214Y-128334342D01*
X132923214Y-128334342D02*
X132875595Y-128429580D01*
X132875595Y-128429580D02*
X132827976Y-128477200D01*
X132827976Y-128477200D02*
X132732738Y-128524819D01*
X132732738Y-128524819D02*
X132447024Y-128524819D01*
X132447024Y-128524819D02*
X132351786Y-128477200D01*
X132351786Y-128477200D02*
X132304167Y-128429580D01*
X150470833Y-128524819D02*
X150137500Y-128048628D01*
X149899405Y-128524819D02*
X149899405Y-127524819D01*
X149899405Y-127524819D02*
X150280357Y-127524819D01*
X150280357Y-127524819D02*
X150375595Y-127572438D01*
X150375595Y-127572438D02*
X150423214Y-127620057D01*
X150423214Y-127620057D02*
X150470833Y-127715295D01*
X150470833Y-127715295D02*
X150470833Y-127858152D01*
X150470833Y-127858152D02*
X150423214Y-127953390D01*
X150423214Y-127953390D02*
X150375595Y-128001009D01*
X150375595Y-128001009D02*
X150280357Y-128048628D01*
X150280357Y-128048628D02*
X149899405Y-128048628D01*
X150851786Y-127620057D02*
X150899405Y-127572438D01*
X150899405Y-127572438D02*
X150994643Y-127524819D01*
X150994643Y-127524819D02*
X151232738Y-127524819D01*
X151232738Y-127524819D02*
X151327976Y-127572438D01*
X151327976Y-127572438D02*
X151375595Y-127620057D01*
X151375595Y-127620057D02*
X151423214Y-127715295D01*
X151423214Y-127715295D02*
X151423214Y-127810533D01*
X151423214Y-127810533D02*
X151375595Y-127953390D01*
X151375595Y-127953390D02*
X150804167Y-128524819D01*
X150804167Y-128524819D02*
X151423214Y-128524819D01*
X132634761Y-119990057D02*
X132539523Y-119942438D01*
X132539523Y-119942438D02*
X132444285Y-119847200D01*
X132444285Y-119847200D02*
X132301428Y-119704342D01*
X132301428Y-119704342D02*
X132206190Y-119656723D01*
X132206190Y-119656723D02*
X132110952Y-119656723D01*
X132158571Y-119894819D02*
X132063333Y-119847200D01*
X132063333Y-119847200D02*
X131968095Y-119751961D01*
X131968095Y-119751961D02*
X131920476Y-119561485D01*
X131920476Y-119561485D02*
X131920476Y-119228152D01*
X131920476Y-119228152D02*
X131968095Y-119037676D01*
X131968095Y-119037676D02*
X132063333Y-118942438D01*
X132063333Y-118942438D02*
X132158571Y-118894819D01*
X132158571Y-118894819D02*
X132349047Y-118894819D01*
X132349047Y-118894819D02*
X132444285Y-118942438D01*
X132444285Y-118942438D02*
X132539523Y-119037676D01*
X132539523Y-119037676D02*
X132587142Y-119228152D01*
X132587142Y-119228152D02*
X132587142Y-119561485D01*
X132587142Y-119561485D02*
X132539523Y-119751961D01*
X132539523Y-119751961D02*
X132444285Y-119847200D01*
X132444285Y-119847200D02*
X132349047Y-119894819D01*
X132349047Y-119894819D02*
X132158571Y-119894819D01*
X132968095Y-118990057D02*
X133015714Y-118942438D01*
X133015714Y-118942438D02*
X133110952Y-118894819D01*
X133110952Y-118894819D02*
X133349047Y-118894819D01*
X133349047Y-118894819D02*
X133444285Y-118942438D01*
X133444285Y-118942438D02*
X133491904Y-118990057D01*
X133491904Y-118990057D02*
X133539523Y-119085295D01*
X133539523Y-119085295D02*
X133539523Y-119180533D01*
X133539523Y-119180533D02*
X133491904Y-119323390D01*
X133491904Y-119323390D02*
X132920476Y-119894819D01*
X132920476Y-119894819D02*
X133539523Y-119894819D01*
X150134761Y-119990057D02*
X150039523Y-119942438D01*
X150039523Y-119942438D02*
X149944285Y-119847200D01*
X149944285Y-119847200D02*
X149801428Y-119704342D01*
X149801428Y-119704342D02*
X149706190Y-119656723D01*
X149706190Y-119656723D02*
X149610952Y-119656723D01*
X149658571Y-119894819D02*
X149563333Y-119847200D01*
X149563333Y-119847200D02*
X149468095Y-119751961D01*
X149468095Y-119751961D02*
X149420476Y-119561485D01*
X149420476Y-119561485D02*
X149420476Y-119228152D01*
X149420476Y-119228152D02*
X149468095Y-119037676D01*
X149468095Y-119037676D02*
X149563333Y-118942438D01*
X149563333Y-118942438D02*
X149658571Y-118894819D01*
X149658571Y-118894819D02*
X149849047Y-118894819D01*
X149849047Y-118894819D02*
X149944285Y-118942438D01*
X149944285Y-118942438D02*
X150039523Y-119037676D01*
X150039523Y-119037676D02*
X150087142Y-119228152D01*
X150087142Y-119228152D02*
X150087142Y-119561485D01*
X150087142Y-119561485D02*
X150039523Y-119751961D01*
X150039523Y-119751961D02*
X149944285Y-119847200D01*
X149944285Y-119847200D02*
X149849047Y-119894819D01*
X149849047Y-119894819D02*
X149658571Y-119894819D01*
X151039523Y-119894819D02*
X150468095Y-119894819D01*
X150753809Y-119894819D02*
X150753809Y-118894819D01*
X150753809Y-118894819D02*
X150658571Y-119037676D01*
X150658571Y-119037676D02*
X150563333Y-119132914D01*
X150563333Y-119132914D02*
X150468095Y-119180533D01*
X103537626Y-86164359D02*
X103537626Y-86879449D01*
X103537626Y-86879449D02*
X103489953Y-87022467D01*
X103489953Y-87022467D02*
X103394608Y-87117813D01*
X103394608Y-87117813D02*
X103251590Y-87165485D01*
X103251590Y-87165485D02*
X103156245Y-87165485D01*
X104491080Y-86164359D02*
X104014353Y-86164359D01*
X104014353Y-86164359D02*
X103966680Y-86641086D01*
X103966680Y-86641086D02*
X104014353Y-86593413D01*
X104014353Y-86593413D02*
X104109698Y-86545741D01*
X104109698Y-86545741D02*
X104348062Y-86545741D01*
X104348062Y-86545741D02*
X104443407Y-86593413D01*
X104443407Y-86593413D02*
X104491080Y-86641086D01*
X104491080Y-86641086D02*
X104538752Y-86736431D01*
X104538752Y-86736431D02*
X104538752Y-86974795D01*
X104538752Y-86974795D02*
X104491080Y-87070140D01*
X104491080Y-87070140D02*
X104443407Y-87117813D01*
X104443407Y-87117813D02*
X104348062Y-87165485D01*
X104348062Y-87165485D02*
X104109698Y-87165485D01*
X104109698Y-87165485D02*
X104014353Y-87117813D01*
X104014353Y-87117813D02*
X103966680Y-87070140D01*
X156794819Y-61063333D02*
X157509104Y-61063333D01*
X157509104Y-61063333D02*
X157651961Y-61110952D01*
X157651961Y-61110952D02*
X157747200Y-61206190D01*
X157747200Y-61206190D02*
X157794819Y-61349047D01*
X157794819Y-61349047D02*
X157794819Y-61444285D01*
X157794819Y-60063333D02*
X157794819Y-60634761D01*
X157794819Y-60349047D02*
X156794819Y-60349047D01*
X156794819Y-60349047D02*
X156937676Y-60444285D01*
X156937676Y-60444285D02*
X157032914Y-60539523D01*
X157032914Y-60539523D02*
X157080533Y-60634761D01*
X125319642Y-115179580D02*
X125272023Y-115227200D01*
X125272023Y-115227200D02*
X125129166Y-115274819D01*
X125129166Y-115274819D02*
X125033928Y-115274819D01*
X125033928Y-115274819D02*
X124891071Y-115227200D01*
X124891071Y-115227200D02*
X124795833Y-115131961D01*
X124795833Y-115131961D02*
X124748214Y-115036723D01*
X124748214Y-115036723D02*
X124700595Y-114846247D01*
X124700595Y-114846247D02*
X124700595Y-114703390D01*
X124700595Y-114703390D02*
X124748214Y-114512914D01*
X124748214Y-114512914D02*
X124795833Y-114417676D01*
X124795833Y-114417676D02*
X124891071Y-114322438D01*
X124891071Y-114322438D02*
X125033928Y-114274819D01*
X125033928Y-114274819D02*
X125129166Y-114274819D01*
X125129166Y-114274819D02*
X125272023Y-114322438D01*
X125272023Y-114322438D02*
X125319642Y-114370057D01*
X126272023Y-115274819D02*
X125700595Y-115274819D01*
X125986309Y-115274819D02*
X125986309Y-114274819D01*
X125986309Y-114274819D02*
X125891071Y-114417676D01*
X125891071Y-114417676D02*
X125795833Y-114512914D01*
X125795833Y-114512914D02*
X125700595Y-114560533D01*
X126605357Y-114274819D02*
X127224404Y-114274819D01*
X127224404Y-114274819D02*
X126891071Y-114655771D01*
X126891071Y-114655771D02*
X127033928Y-114655771D01*
X127033928Y-114655771D02*
X127129166Y-114703390D01*
X127129166Y-114703390D02*
X127176785Y-114751009D01*
X127176785Y-114751009D02*
X127224404Y-114846247D01*
X127224404Y-114846247D02*
X127224404Y-115084342D01*
X127224404Y-115084342D02*
X127176785Y-115179580D01*
X127176785Y-115179580D02*
X127129166Y-115227200D01*
X127129166Y-115227200D02*
X127033928Y-115274819D01*
X127033928Y-115274819D02*
X126748214Y-115274819D01*
X126748214Y-115274819D02*
X126652976Y-115227200D01*
X126652976Y-115227200D02*
X126605357Y-115179580D01*
X128319642Y-101179580D02*
X128272023Y-101227200D01*
X128272023Y-101227200D02*
X128129166Y-101274819D01*
X128129166Y-101274819D02*
X128033928Y-101274819D01*
X128033928Y-101274819D02*
X127891071Y-101227200D01*
X127891071Y-101227200D02*
X127795833Y-101131961D01*
X127795833Y-101131961D02*
X127748214Y-101036723D01*
X127748214Y-101036723D02*
X127700595Y-100846247D01*
X127700595Y-100846247D02*
X127700595Y-100703390D01*
X127700595Y-100703390D02*
X127748214Y-100512914D01*
X127748214Y-100512914D02*
X127795833Y-100417676D01*
X127795833Y-100417676D02*
X127891071Y-100322438D01*
X127891071Y-100322438D02*
X128033928Y-100274819D01*
X128033928Y-100274819D02*
X128129166Y-100274819D01*
X128129166Y-100274819D02*
X128272023Y-100322438D01*
X128272023Y-100322438D02*
X128319642Y-100370057D01*
X129272023Y-101274819D02*
X128700595Y-101274819D01*
X128986309Y-101274819D02*
X128986309Y-100274819D01*
X128986309Y-100274819D02*
X128891071Y-100417676D01*
X128891071Y-100417676D02*
X128795833Y-100512914D01*
X128795833Y-100512914D02*
X128700595Y-100560533D01*
X129652976Y-100370057D02*
X129700595Y-100322438D01*
X129700595Y-100322438D02*
X129795833Y-100274819D01*
X129795833Y-100274819D02*
X130033928Y-100274819D01*
X130033928Y-100274819D02*
X130129166Y-100322438D01*
X130129166Y-100322438D02*
X130176785Y-100370057D01*
X130176785Y-100370057D02*
X130224404Y-100465295D01*
X130224404Y-100465295D02*
X130224404Y-100560533D01*
X130224404Y-100560533D02*
X130176785Y-100703390D01*
X130176785Y-100703390D02*
X129605357Y-101274819D01*
X129605357Y-101274819D02*
X130224404Y-101274819D01*
X121994642Y-94929580D02*
X121947023Y-94977200D01*
X121947023Y-94977200D02*
X121804166Y-95024819D01*
X121804166Y-95024819D02*
X121708928Y-95024819D01*
X121708928Y-95024819D02*
X121566071Y-94977200D01*
X121566071Y-94977200D02*
X121470833Y-94881961D01*
X121470833Y-94881961D02*
X121423214Y-94786723D01*
X121423214Y-94786723D02*
X121375595Y-94596247D01*
X121375595Y-94596247D02*
X121375595Y-94453390D01*
X121375595Y-94453390D02*
X121423214Y-94262914D01*
X121423214Y-94262914D02*
X121470833Y-94167676D01*
X121470833Y-94167676D02*
X121566071Y-94072438D01*
X121566071Y-94072438D02*
X121708928Y-94024819D01*
X121708928Y-94024819D02*
X121804166Y-94024819D01*
X121804166Y-94024819D02*
X121947023Y-94072438D01*
X121947023Y-94072438D02*
X121994642Y-94120057D01*
X122947023Y-95024819D02*
X122375595Y-95024819D01*
X122661309Y-95024819D02*
X122661309Y-94024819D01*
X122661309Y-94024819D02*
X122566071Y-94167676D01*
X122566071Y-94167676D02*
X122470833Y-94262914D01*
X122470833Y-94262914D02*
X122375595Y-94310533D01*
X123899404Y-95024819D02*
X123327976Y-95024819D01*
X123613690Y-95024819D02*
X123613690Y-94024819D01*
X123613690Y-94024819D02*
X123518452Y-94167676D01*
X123518452Y-94167676D02*
X123423214Y-94262914D01*
X123423214Y-94262914D02*
X123327976Y-94310533D01*
X134289642Y-131809580D02*
X134242023Y-131857200D01*
X134242023Y-131857200D02*
X134099166Y-131904819D01*
X134099166Y-131904819D02*
X134003928Y-131904819D01*
X134003928Y-131904819D02*
X133861071Y-131857200D01*
X133861071Y-131857200D02*
X133765833Y-131761961D01*
X133765833Y-131761961D02*
X133718214Y-131666723D01*
X133718214Y-131666723D02*
X133670595Y-131476247D01*
X133670595Y-131476247D02*
X133670595Y-131333390D01*
X133670595Y-131333390D02*
X133718214Y-131142914D01*
X133718214Y-131142914D02*
X133765833Y-131047676D01*
X133765833Y-131047676D02*
X133861071Y-130952438D01*
X133861071Y-130952438D02*
X134003928Y-130904819D01*
X134003928Y-130904819D02*
X134099166Y-130904819D01*
X134099166Y-130904819D02*
X134242023Y-130952438D01*
X134242023Y-130952438D02*
X134289642Y-131000057D01*
X135242023Y-131904819D02*
X134670595Y-131904819D01*
X134956309Y-131904819D02*
X134956309Y-130904819D01*
X134956309Y-130904819D02*
X134861071Y-131047676D01*
X134861071Y-131047676D02*
X134765833Y-131142914D01*
X134765833Y-131142914D02*
X134670595Y-131190533D01*
X135861071Y-130904819D02*
X135956309Y-130904819D01*
X135956309Y-130904819D02*
X136051547Y-130952438D01*
X136051547Y-130952438D02*
X136099166Y-131000057D01*
X136099166Y-131000057D02*
X136146785Y-131095295D01*
X136146785Y-131095295D02*
X136194404Y-131285771D01*
X136194404Y-131285771D02*
X136194404Y-131523866D01*
X136194404Y-131523866D02*
X136146785Y-131714342D01*
X136146785Y-131714342D02*
X136099166Y-131809580D01*
X136099166Y-131809580D02*
X136051547Y-131857200D01*
X136051547Y-131857200D02*
X135956309Y-131904819D01*
X135956309Y-131904819D02*
X135861071Y-131904819D01*
X135861071Y-131904819D02*
X135765833Y-131857200D01*
X135765833Y-131857200D02*
X135718214Y-131809580D01*
X135718214Y-131809580D02*
X135670595Y-131714342D01*
X135670595Y-131714342D02*
X135622976Y-131523866D01*
X135622976Y-131523866D02*
X135622976Y-131285771D01*
X135622976Y-131285771D02*
X135670595Y-131095295D01*
X135670595Y-131095295D02*
X135718214Y-131000057D01*
X135718214Y-131000057D02*
X135765833Y-130952438D01*
X135765833Y-130952438D02*
X135861071Y-130904819D01*
X147400833Y-103409580D02*
X147353214Y-103457200D01*
X147353214Y-103457200D02*
X147210357Y-103504819D01*
X147210357Y-103504819D02*
X147115119Y-103504819D01*
X147115119Y-103504819D02*
X146972262Y-103457200D01*
X146972262Y-103457200D02*
X146877024Y-103361961D01*
X146877024Y-103361961D02*
X146829405Y-103266723D01*
X146829405Y-103266723D02*
X146781786Y-103076247D01*
X146781786Y-103076247D02*
X146781786Y-102933390D01*
X146781786Y-102933390D02*
X146829405Y-102742914D01*
X146829405Y-102742914D02*
X146877024Y-102647676D01*
X146877024Y-102647676D02*
X146972262Y-102552438D01*
X146972262Y-102552438D02*
X147115119Y-102504819D01*
X147115119Y-102504819D02*
X147210357Y-102504819D01*
X147210357Y-102504819D02*
X147353214Y-102552438D01*
X147353214Y-102552438D02*
X147400833Y-102600057D01*
X147877024Y-103504819D02*
X148067500Y-103504819D01*
X148067500Y-103504819D02*
X148162738Y-103457200D01*
X148162738Y-103457200D02*
X148210357Y-103409580D01*
X148210357Y-103409580D02*
X148305595Y-103266723D01*
X148305595Y-103266723D02*
X148353214Y-103076247D01*
X148353214Y-103076247D02*
X148353214Y-102695295D01*
X148353214Y-102695295D02*
X148305595Y-102600057D01*
X148305595Y-102600057D02*
X148257976Y-102552438D01*
X148257976Y-102552438D02*
X148162738Y-102504819D01*
X148162738Y-102504819D02*
X147972262Y-102504819D01*
X147972262Y-102504819D02*
X147877024Y-102552438D01*
X147877024Y-102552438D02*
X147829405Y-102600057D01*
X147829405Y-102600057D02*
X147781786Y-102695295D01*
X147781786Y-102695295D02*
X147781786Y-102933390D01*
X147781786Y-102933390D02*
X147829405Y-103028628D01*
X147829405Y-103028628D02*
X147877024Y-103076247D01*
X147877024Y-103076247D02*
X147972262Y-103123866D01*
X147972262Y-103123866D02*
X148162738Y-103123866D01*
X148162738Y-103123866D02*
X148257976Y-103076247D01*
X148257976Y-103076247D02*
X148305595Y-103028628D01*
X148305595Y-103028628D02*
X148353214Y-102933390D01*
X153058333Y-94289580D02*
X153010714Y-94337200D01*
X153010714Y-94337200D02*
X152867857Y-94384819D01*
X152867857Y-94384819D02*
X152772619Y-94384819D01*
X152772619Y-94384819D02*
X152629762Y-94337200D01*
X152629762Y-94337200D02*
X152534524Y-94241961D01*
X152534524Y-94241961D02*
X152486905Y-94146723D01*
X152486905Y-94146723D02*
X152439286Y-93956247D01*
X152439286Y-93956247D02*
X152439286Y-93813390D01*
X152439286Y-93813390D02*
X152486905Y-93622914D01*
X152486905Y-93622914D02*
X152534524Y-93527676D01*
X152534524Y-93527676D02*
X152629762Y-93432438D01*
X152629762Y-93432438D02*
X152772619Y-93384819D01*
X152772619Y-93384819D02*
X152867857Y-93384819D01*
X152867857Y-93384819D02*
X153010714Y-93432438D01*
X153010714Y-93432438D02*
X153058333Y-93480057D01*
X153629762Y-93813390D02*
X153534524Y-93765771D01*
X153534524Y-93765771D02*
X153486905Y-93718152D01*
X153486905Y-93718152D02*
X153439286Y-93622914D01*
X153439286Y-93622914D02*
X153439286Y-93575295D01*
X153439286Y-93575295D02*
X153486905Y-93480057D01*
X153486905Y-93480057D02*
X153534524Y-93432438D01*
X153534524Y-93432438D02*
X153629762Y-93384819D01*
X153629762Y-93384819D02*
X153820238Y-93384819D01*
X153820238Y-93384819D02*
X153915476Y-93432438D01*
X153915476Y-93432438D02*
X153963095Y-93480057D01*
X153963095Y-93480057D02*
X154010714Y-93575295D01*
X154010714Y-93575295D02*
X154010714Y-93622914D01*
X154010714Y-93622914D02*
X153963095Y-93718152D01*
X153963095Y-93718152D02*
X153915476Y-93765771D01*
X153915476Y-93765771D02*
X153820238Y-93813390D01*
X153820238Y-93813390D02*
X153629762Y-93813390D01*
X153629762Y-93813390D02*
X153534524Y-93861009D01*
X153534524Y-93861009D02*
X153486905Y-93908628D01*
X153486905Y-93908628D02*
X153439286Y-94003866D01*
X153439286Y-94003866D02*
X153439286Y-94194342D01*
X153439286Y-94194342D02*
X153486905Y-94289580D01*
X153486905Y-94289580D02*
X153534524Y-94337200D01*
X153534524Y-94337200D02*
X153629762Y-94384819D01*
X153629762Y-94384819D02*
X153820238Y-94384819D01*
X153820238Y-94384819D02*
X153915476Y-94337200D01*
X153915476Y-94337200D02*
X153963095Y-94289580D01*
X153963095Y-94289580D02*
X154010714Y-94194342D01*
X154010714Y-94194342D02*
X154010714Y-94003866D01*
X154010714Y-94003866D02*
X153963095Y-93908628D01*
X153963095Y-93908628D02*
X153915476Y-93861009D01*
X153915476Y-93861009D02*
X153820238Y-93813390D01*
X144333333Y-105809580D02*
X144285714Y-105857200D01*
X144285714Y-105857200D02*
X144142857Y-105904819D01*
X144142857Y-105904819D02*
X144047619Y-105904819D01*
X144047619Y-105904819D02*
X143904762Y-105857200D01*
X143904762Y-105857200D02*
X143809524Y-105761961D01*
X143809524Y-105761961D02*
X143761905Y-105666723D01*
X143761905Y-105666723D02*
X143714286Y-105476247D01*
X143714286Y-105476247D02*
X143714286Y-105333390D01*
X143714286Y-105333390D02*
X143761905Y-105142914D01*
X143761905Y-105142914D02*
X143809524Y-105047676D01*
X143809524Y-105047676D02*
X143904762Y-104952438D01*
X143904762Y-104952438D02*
X144047619Y-104904819D01*
X144047619Y-104904819D02*
X144142857Y-104904819D01*
X144142857Y-104904819D02*
X144285714Y-104952438D01*
X144285714Y-104952438D02*
X144333333Y-105000057D01*
X144666667Y-104904819D02*
X145333333Y-104904819D01*
X145333333Y-104904819D02*
X144904762Y-105904819D01*
X135058333Y-111929580D02*
X135010714Y-111977200D01*
X135010714Y-111977200D02*
X134867857Y-112024819D01*
X134867857Y-112024819D02*
X134772619Y-112024819D01*
X134772619Y-112024819D02*
X134629762Y-111977200D01*
X134629762Y-111977200D02*
X134534524Y-111881961D01*
X134534524Y-111881961D02*
X134486905Y-111786723D01*
X134486905Y-111786723D02*
X134439286Y-111596247D01*
X134439286Y-111596247D02*
X134439286Y-111453390D01*
X134439286Y-111453390D02*
X134486905Y-111262914D01*
X134486905Y-111262914D02*
X134534524Y-111167676D01*
X134534524Y-111167676D02*
X134629762Y-111072438D01*
X134629762Y-111072438D02*
X134772619Y-111024819D01*
X134772619Y-111024819D02*
X134867857Y-111024819D01*
X134867857Y-111024819D02*
X135010714Y-111072438D01*
X135010714Y-111072438D02*
X135058333Y-111120057D01*
X135915476Y-111024819D02*
X135725000Y-111024819D01*
X135725000Y-111024819D02*
X135629762Y-111072438D01*
X135629762Y-111072438D02*
X135582143Y-111120057D01*
X135582143Y-111120057D02*
X135486905Y-111262914D01*
X135486905Y-111262914D02*
X135439286Y-111453390D01*
X135439286Y-111453390D02*
X135439286Y-111834342D01*
X135439286Y-111834342D02*
X135486905Y-111929580D01*
X135486905Y-111929580D02*
X135534524Y-111977200D01*
X135534524Y-111977200D02*
X135629762Y-112024819D01*
X135629762Y-112024819D02*
X135820238Y-112024819D01*
X135820238Y-112024819D02*
X135915476Y-111977200D01*
X135915476Y-111977200D02*
X135963095Y-111929580D01*
X135963095Y-111929580D02*
X136010714Y-111834342D01*
X136010714Y-111834342D02*
X136010714Y-111596247D01*
X136010714Y-111596247D02*
X135963095Y-111501009D01*
X135963095Y-111501009D02*
X135915476Y-111453390D01*
X135915476Y-111453390D02*
X135820238Y-111405771D01*
X135820238Y-111405771D02*
X135629762Y-111405771D01*
X135629762Y-111405771D02*
X135534524Y-111453390D01*
X135534524Y-111453390D02*
X135486905Y-111501009D01*
X135486905Y-111501009D02*
X135439286Y-111596247D01*
X131470833Y-144929580D02*
X131423214Y-144977200D01*
X131423214Y-144977200D02*
X131280357Y-145024819D01*
X131280357Y-145024819D02*
X131185119Y-145024819D01*
X131185119Y-145024819D02*
X131042262Y-144977200D01*
X131042262Y-144977200D02*
X130947024Y-144881961D01*
X130947024Y-144881961D02*
X130899405Y-144786723D01*
X130899405Y-144786723D02*
X130851786Y-144596247D01*
X130851786Y-144596247D02*
X130851786Y-144453390D01*
X130851786Y-144453390D02*
X130899405Y-144262914D01*
X130899405Y-144262914D02*
X130947024Y-144167676D01*
X130947024Y-144167676D02*
X131042262Y-144072438D01*
X131042262Y-144072438D02*
X131185119Y-144024819D01*
X131185119Y-144024819D02*
X131280357Y-144024819D01*
X131280357Y-144024819D02*
X131423214Y-144072438D01*
X131423214Y-144072438D02*
X131470833Y-144120057D01*
X132375595Y-144024819D02*
X131899405Y-144024819D01*
X131899405Y-144024819D02*
X131851786Y-144501009D01*
X131851786Y-144501009D02*
X131899405Y-144453390D01*
X131899405Y-144453390D02*
X131994643Y-144405771D01*
X131994643Y-144405771D02*
X132232738Y-144405771D01*
X132232738Y-144405771D02*
X132327976Y-144453390D01*
X132327976Y-144453390D02*
X132375595Y-144501009D01*
X132375595Y-144501009D02*
X132423214Y-144596247D01*
X132423214Y-144596247D02*
X132423214Y-144834342D01*
X132423214Y-144834342D02*
X132375595Y-144929580D01*
X132375595Y-144929580D02*
X132327976Y-144977200D01*
X132327976Y-144977200D02*
X132232738Y-145024819D01*
X132232738Y-145024819D02*
X131994643Y-145024819D01*
X131994643Y-145024819D02*
X131899405Y-144977200D01*
X131899405Y-144977200D02*
X131851786Y-144929580D01*
X155058333Y-100789580D02*
X155010714Y-100837200D01*
X155010714Y-100837200D02*
X154867857Y-100884819D01*
X154867857Y-100884819D02*
X154772619Y-100884819D01*
X154772619Y-100884819D02*
X154629762Y-100837200D01*
X154629762Y-100837200D02*
X154534524Y-100741961D01*
X154534524Y-100741961D02*
X154486905Y-100646723D01*
X154486905Y-100646723D02*
X154439286Y-100456247D01*
X154439286Y-100456247D02*
X154439286Y-100313390D01*
X154439286Y-100313390D02*
X154486905Y-100122914D01*
X154486905Y-100122914D02*
X154534524Y-100027676D01*
X154534524Y-100027676D02*
X154629762Y-99932438D01*
X154629762Y-99932438D02*
X154772619Y-99884819D01*
X154772619Y-99884819D02*
X154867857Y-99884819D01*
X154867857Y-99884819D02*
X155010714Y-99932438D01*
X155010714Y-99932438D02*
X155058333Y-99980057D01*
X155915476Y-100218152D02*
X155915476Y-100884819D01*
X155677381Y-99837200D02*
X155439286Y-100551485D01*
X155439286Y-100551485D02*
X156058333Y-100551485D01*
X122833333Y-138159580D02*
X122785714Y-138207200D01*
X122785714Y-138207200D02*
X122642857Y-138254819D01*
X122642857Y-138254819D02*
X122547619Y-138254819D01*
X122547619Y-138254819D02*
X122404762Y-138207200D01*
X122404762Y-138207200D02*
X122309524Y-138111961D01*
X122309524Y-138111961D02*
X122261905Y-138016723D01*
X122261905Y-138016723D02*
X122214286Y-137826247D01*
X122214286Y-137826247D02*
X122214286Y-137683390D01*
X122214286Y-137683390D02*
X122261905Y-137492914D01*
X122261905Y-137492914D02*
X122309524Y-137397676D01*
X122309524Y-137397676D02*
X122404762Y-137302438D01*
X122404762Y-137302438D02*
X122547619Y-137254819D01*
X122547619Y-137254819D02*
X122642857Y-137254819D01*
X122642857Y-137254819D02*
X122785714Y-137302438D01*
X122785714Y-137302438D02*
X122833333Y-137350057D01*
X123166667Y-137254819D02*
X123785714Y-137254819D01*
X123785714Y-137254819D02*
X123452381Y-137635771D01*
X123452381Y-137635771D02*
X123595238Y-137635771D01*
X123595238Y-137635771D02*
X123690476Y-137683390D01*
X123690476Y-137683390D02*
X123738095Y-137731009D01*
X123738095Y-137731009D02*
X123785714Y-137826247D01*
X123785714Y-137826247D02*
X123785714Y-138064342D01*
X123785714Y-138064342D02*
X123738095Y-138159580D01*
X123738095Y-138159580D02*
X123690476Y-138207200D01*
X123690476Y-138207200D02*
X123595238Y-138254819D01*
X123595238Y-138254819D02*
X123309524Y-138254819D01*
X123309524Y-138254819D02*
X123214286Y-138207200D01*
X123214286Y-138207200D02*
X123166667Y-138159580D01*
X106833333Y-112659580D02*
X106785714Y-112707200D01*
X106785714Y-112707200D02*
X106642857Y-112754819D01*
X106642857Y-112754819D02*
X106547619Y-112754819D01*
X106547619Y-112754819D02*
X106404762Y-112707200D01*
X106404762Y-112707200D02*
X106309524Y-112611961D01*
X106309524Y-112611961D02*
X106261905Y-112516723D01*
X106261905Y-112516723D02*
X106214286Y-112326247D01*
X106214286Y-112326247D02*
X106214286Y-112183390D01*
X106214286Y-112183390D02*
X106261905Y-111992914D01*
X106261905Y-111992914D02*
X106309524Y-111897676D01*
X106309524Y-111897676D02*
X106404762Y-111802438D01*
X106404762Y-111802438D02*
X106547619Y-111754819D01*
X106547619Y-111754819D02*
X106642857Y-111754819D01*
X106642857Y-111754819D02*
X106785714Y-111802438D01*
X106785714Y-111802438D02*
X106833333Y-111850057D01*
X107214286Y-111850057D02*
X107261905Y-111802438D01*
X107261905Y-111802438D02*
X107357143Y-111754819D01*
X107357143Y-111754819D02*
X107595238Y-111754819D01*
X107595238Y-111754819D02*
X107690476Y-111802438D01*
X107690476Y-111802438D02*
X107738095Y-111850057D01*
X107738095Y-111850057D02*
X107785714Y-111945295D01*
X107785714Y-111945295D02*
X107785714Y-112040533D01*
X107785714Y-112040533D02*
X107738095Y-112183390D01*
X107738095Y-112183390D02*
X107166667Y-112754819D01*
X107166667Y-112754819D02*
X107785714Y-112754819D01*
X156558333Y-82929580D02*
X156510714Y-82977200D01*
X156510714Y-82977200D02*
X156367857Y-83024819D01*
X156367857Y-83024819D02*
X156272619Y-83024819D01*
X156272619Y-83024819D02*
X156129762Y-82977200D01*
X156129762Y-82977200D02*
X156034524Y-82881961D01*
X156034524Y-82881961D02*
X155986905Y-82786723D01*
X155986905Y-82786723D02*
X155939286Y-82596247D01*
X155939286Y-82596247D02*
X155939286Y-82453390D01*
X155939286Y-82453390D02*
X155986905Y-82262914D01*
X155986905Y-82262914D02*
X156034524Y-82167676D01*
X156034524Y-82167676D02*
X156129762Y-82072438D01*
X156129762Y-82072438D02*
X156272619Y-82024819D01*
X156272619Y-82024819D02*
X156367857Y-82024819D01*
X156367857Y-82024819D02*
X156510714Y-82072438D01*
X156510714Y-82072438D02*
X156558333Y-82120057D01*
X157510714Y-83024819D02*
X156939286Y-83024819D01*
X157225000Y-83024819D02*
X157225000Y-82024819D01*
X157225000Y-82024819D02*
X157129762Y-82167676D01*
X157129762Y-82167676D02*
X157034524Y-82262914D01*
X157034524Y-82262914D02*
X156939286Y-82310533D01*
D11*
%TO.C,U5*%
X135940000Y-96127500D02*
X135940000Y-95617500D01*
X135940000Y-101597500D02*
X135940000Y-100847500D01*
X136690000Y-95377500D02*
X136240000Y-95377500D01*
X136690000Y-101597500D02*
X135940000Y-101597500D01*
X141410000Y-95377500D02*
X142160000Y-95377500D01*
X141410000Y-101597500D02*
X142160000Y-101597500D01*
X142160000Y-95377500D02*
X142160000Y-96127500D01*
X142160000Y-101597500D02*
X142160000Y-100847500D01*
X135940000Y-95377500D02*
X135700000Y-95047500D01*
X136180000Y-95047500D01*
X135940000Y-95377500D01*
G36*
X135940000Y-95377500D02*
G01*
X135700000Y-95047500D01*
X136180000Y-95047500D01*
X135940000Y-95377500D01*
G37*
%TO.C,U3*%
X138640000Y-129927500D02*
X138640000Y-129692500D01*
X138640000Y-133672500D02*
X138640000Y-133197500D01*
X139115000Y-129452500D02*
X138940000Y-129452500D01*
X139115000Y-133672500D02*
X138640000Y-133672500D01*
X142385000Y-129452500D02*
X142860000Y-129452500D01*
X142385000Y-133672500D02*
X142860000Y-133672500D01*
X142860000Y-129452500D02*
X142860000Y-129927500D01*
X142860000Y-133672500D02*
X142860000Y-133197500D01*
X138640000Y-129452500D02*
X138400000Y-129122500D01*
X138880000Y-129122500D01*
X138640000Y-129452500D01*
G36*
X138640000Y-129452500D02*
G01*
X138400000Y-129122500D01*
X138880000Y-129122500D01*
X138640000Y-129452500D01*
G37*
D12*
%TO.C,U2*%
X127750000Y-43560000D02*
X127750000Y-50110000D01*
X127750000Y-74960000D02*
X145750000Y-74960000D01*
X145750000Y-43560000D02*
X127750000Y-43560000D01*
X145750000Y-50110000D02*
X145750000Y-43560000D01*
D13*
X126690000Y-51000000D02*
G75*
G02*
X126490000Y-51000000I-100000J0D01*
G01*
X126490000Y-51000000D02*
G75*
G02*
X126690000Y-51000000I100000J0D01*
G01*
D11*
%TO.C,U1*%
X109825000Y-123200000D02*
X109825000Y-124150000D01*
X109825000Y-133600000D02*
X109825000Y-132650000D01*
X111325000Y-123200000D02*
X109825000Y-123200000D01*
X111325000Y-133600000D02*
X109825000Y-133600000D01*
X107262500Y-124150000D02*
X107022500Y-123820000D01*
X107502500Y-123820000D01*
X107262500Y-124150000D01*
G36*
X107262500Y-124150000D02*
G01*
X107022500Y-123820000D01*
X107502500Y-123820000D01*
X107262500Y-124150000D01*
G37*
%TO.C,R5*%
X134783767Y-139510000D02*
X134491233Y-139510000D01*
X134783767Y-138490000D02*
X134491233Y-138490000D01*
%TO.C,R4*%
X145491233Y-138490000D02*
X145783767Y-138490000D01*
X145491233Y-139510000D02*
X145783767Y-139510000D01*
%TO.C,R3*%
X131991233Y-128990000D02*
X132283767Y-128990000D01*
X131991233Y-130010000D02*
X132283767Y-130010000D01*
%TO.C,R2*%
X150491233Y-128990000D02*
X150783767Y-128990000D01*
X150491233Y-130010000D02*
X150783767Y-130010000D01*
%TO.C,Q2*%
X130930000Y-124850000D02*
X134530000Y-124850000D01*
X130891522Y-124838478D02*
G75*
G02*
X132730000Y-120399999I1838478J1838478D01*
G01*
X132730000Y-120400000D02*
G75*
G02*
X134568478Y-124838478I0J-2600000D01*
G01*
%TO.C,Q1*%
X148430000Y-124850000D02*
X152030000Y-124850000D01*
X148391522Y-124838478D02*
G75*
G02*
X150230000Y-120399999I1838478J1838478D01*
G01*
X150230000Y-120400000D02*
G75*
G02*
X152068478Y-124838478I0J-2600000D01*
G01*
D12*
%TO.C,J5*%
X104800000Y-87650000D02*
X102200000Y-87650000D01*
D11*
%TO.C,J4*%
X134830000Y-146325000D02*
X134830000Y-144625000D01*
X144170000Y-146325000D02*
X144170000Y-144625000D01*
%TO.C,J1*%
X164160000Y-63800000D02*
X164900000Y-63800000D01*
X164900000Y-63800000D02*
X164900000Y-63300000D01*
X158340000Y-63560000D02*
X164660000Y-63560000D01*
X158340000Y-63560000D02*
X158340000Y-57900000D01*
X158800000Y-63560000D02*
X158800000Y-57900000D01*
X164100000Y-63560000D02*
X164100000Y-62790000D01*
X164660000Y-63560000D02*
X164660000Y-62790000D01*
X164100000Y-61210000D02*
X164100000Y-60250000D01*
X164660000Y-61210000D02*
X164660000Y-60250000D01*
X164100000Y-58670000D02*
X164100000Y-57900000D01*
X164660000Y-58670000D02*
X164660000Y-57900000D01*
X158340000Y-57900000D02*
X164660000Y-57900000D01*
%TO.C,C13*%
X125701248Y-117235000D02*
X126223752Y-117235000D01*
X125701248Y-115765000D02*
X126223752Y-115765000D01*
%TO.C,C12*%
X128701248Y-103235000D02*
X129223752Y-103235000D01*
X128701248Y-101765000D02*
X129223752Y-101765000D01*
%TO.C,C11*%
X122491233Y-96510000D02*
X122783767Y-96510000D01*
X122491233Y-95490000D02*
X122783767Y-95490000D01*
%TO.C,C8*%
X153365580Y-93010000D02*
X153084420Y-93010000D01*
X153365580Y-91990000D02*
X153084420Y-91990000D01*
%TO.C,C6*%
X135084420Y-112490000D02*
X135365580Y-112490000D01*
X135084420Y-113510000D02*
X135365580Y-113510000D01*
%TO.C,C5*%
X131491233Y-145490000D02*
X131783767Y-145490000D01*
X131491233Y-146510000D02*
X131783767Y-146510000D01*
%TO.C,C4*%
X155365580Y-99510000D02*
X155084420Y-99510000D01*
X155365580Y-98490000D02*
X155084420Y-98490000D01*
%TO.C,C3*%
X120625000Y-139065000D02*
X121000000Y-139065000D01*
X120812500Y-138877500D02*
X120812500Y-139252500D01*
X121429437Y-139440000D02*
X122129437Y-138740000D01*
X121429437Y-141560000D02*
X122129437Y-142260000D01*
X122129437Y-138740000D02*
X124760000Y-138740000D01*
X122129437Y-142260000D02*
X124760000Y-142260000D01*
X124760000Y-138740000D02*
X124760000Y-139440000D01*
X124760000Y-142260000D02*
X124760000Y-141560000D01*
%TO.C,C2*%
X104625000Y-113565000D02*
X105000000Y-113565000D01*
X104812500Y-113377500D02*
X104812500Y-113752500D01*
X105429437Y-113940000D02*
X106129437Y-113240000D01*
X105429437Y-116060000D02*
X106129437Y-116760000D01*
X106129437Y-113240000D02*
X108760000Y-113240000D01*
X106129437Y-116760000D02*
X108760000Y-116760000D01*
X108760000Y-113240000D02*
X108760000Y-113940000D01*
X108760000Y-116760000D02*
X108760000Y-116060000D01*
%TO.C,C1*%
X156584420Y-83490000D02*
X156865580Y-83490000D01*
X156584420Y-84510000D02*
X156865580Y-84510000D01*
%TD*%
M02*
