%TF.GenerationSoftware,KiCad,Pcbnew,8.0.4*%
%TF.CreationDate,2025-07-24T11:12:48+05:30*%
%TF.ProjectId,SIH Smart Irrigation System,53494820-536d-4617-9274-204972726967,rev?*%
%TF.SameCoordinates,Original*%
%TF.FileFunction,Soldermask,Top*%
%TF.FilePolarity,Negative*%
%FSLAX46Y46*%
G04 Gerber Fmt 4.6, Leading zero omitted, Abs format (unit mm)*
G04 Created by KiCad (PCBNEW 8.0.4) date 2025-07-24 11:12:48*
%MOMM*%
%LPD*%
G01*
G04 APERTURE LIST*
G04 Aperture macros list*
%AMRoundRect*
0 Rectangle with rounded corners*
0 $1 Rounding radius*
0 $2 $3 $4 $5 $6 $7 $8 $9 X,Y pos of 4 corners*
0 Add a 4 corners polygon primitive as box body*
4,1,4,$2,$3,$4,$5,$6,$7,$8,$9,$2,$3,0*
0 Add four circle primitives for the rounded corners*
1,1,$1+$1,$2,$3*
1,1,$1+$1,$4,$5*
1,1,$1+$1,$6,$7*
1,1,$1+$1,$8,$9*
0 Add four rect primitives between the rounded corners*
20,1,$1+$1,$2,$3,$4,$5,0*
20,1,$1+$1,$4,$5,$6,$7,0*
20,1,$1+$1,$6,$7,$8,$9,0*
20,1,$1+$1,$8,$9,$2,$3,0*%
G04 Aperture macros list end*
%ADD10C,1.100000*%
%ADD11R,2.200000X2.200000*%
%ADD12C,2.200000*%
%ADD13C,3.000000*%
%ADD14RoundRect,0.075000X-0.312500X-0.075000X0.312500X-0.075000X0.312500X0.075000X-0.312500X0.075000X0*%
%ADD15RoundRect,0.075000X-0.075000X-0.312500X0.075000X-0.312500X0.075000X0.312500X-0.075000X0.312500X0*%
%ADD16R,4.800000X4.800000*%
%ADD17RoundRect,0.225000X-0.225000X-0.250000X0.225000X-0.250000X0.225000X0.250000X-0.225000X0.250000X0*%
%ADD18RoundRect,0.237500X-0.300000X-0.237500X0.300000X-0.237500X0.300000X0.237500X-0.300000X0.237500X0*%
%ADD19RoundRect,0.225000X-0.250000X0.225000X-0.250000X-0.225000X0.250000X-0.225000X0.250000X0.225000X0*%
%ADD20R,1.600000X2.200000*%
%ADD21R,1.500000X1.500000*%
%ADD22C,1.500000*%
%ADD23RoundRect,0.250000X-0.337500X-0.475000X0.337500X-0.475000X0.337500X0.475000X-0.337500X0.475000X0*%
%ADD24RoundRect,0.250000X-0.300000X2.050000X-0.300000X-2.050000X0.300000X-2.050000X0.300000X2.050000X0*%
%ADD25RoundRect,0.250002X-5.149998X4.449998X-5.149998X-4.449998X5.149998X-4.449998X5.149998X4.449998X0*%
%ADD26RoundRect,0.100000X-0.217500X-0.100000X0.217500X-0.100000X0.217500X0.100000X-0.217500X0.100000X0*%
%ADD27C,0.650000*%
%ADD28RoundRect,0.150000X-0.150000X-0.425000X0.150000X-0.425000X0.150000X0.425000X-0.150000X0.425000X0*%
%ADD29RoundRect,0.075000X-0.075000X-0.500000X0.075000X-0.500000X0.075000X0.500000X-0.075000X0.500000X0*%
%ADD30O,1.000000X2.100000*%
%ADD31O,1.000000X1.800000*%
%ADD32RoundRect,0.062500X-0.350000X-0.062500X0.350000X-0.062500X0.350000X0.062500X-0.350000X0.062500X0*%
%ADD33RoundRect,0.062500X-0.062500X-0.350000X0.062500X-0.350000X0.062500X0.350000X-0.062500X0.350000X0*%
%ADD34R,2.600000X2.600000*%
%ADD35R,1.050000X1.500000*%
%ADD36O,1.050000X1.500000*%
%ADD37RoundRect,0.102000X-0.550000X-1.125000X0.550000X-1.125000X0.550000X1.125000X-0.550000X1.125000X0*%
%ADD38RoundRect,0.102000X-0.525000X-0.550000X0.525000X-0.550000X0.525000X0.550000X-0.525000X0.550000X0*%
%ADD39R,1.500000X0.900000*%
%ADD40R,0.900000X1.500000*%
%ADD41C,0.600000*%
%ADD42R,3.800000X3.800000*%
G04 APERTURE END LIST*
D10*
%TO.C,J1*%
X135460000Y-130826000D03*
X135460000Y-133366000D03*
X135460000Y-135906000D03*
D11*
X138000000Y-130826000D03*
D12*
X138000000Y-133366000D03*
X138000000Y-135906000D03*
%TD*%
D13*
%TO.C,J3*%
X138500000Y-55906000D03*
%TD*%
D14*
%TO.C,U3*%
X137012500Y-105056000D03*
X137012500Y-105706000D03*
X137012500Y-106356000D03*
X137012500Y-107006000D03*
X137012500Y-107656000D03*
X137012500Y-108306000D03*
X137012500Y-108956000D03*
D15*
X138050000Y-109993500D03*
X138700000Y-109993500D03*
X139350000Y-109993500D03*
X140000000Y-109993500D03*
X140650000Y-109993500D03*
X141300000Y-109993500D03*
X141950000Y-109993500D03*
D14*
X142987500Y-108956000D03*
X142987500Y-108306000D03*
X142987500Y-107656000D03*
X142987500Y-107006000D03*
X142987500Y-106356000D03*
X142987500Y-105706000D03*
X142987500Y-105056000D03*
D15*
X141950000Y-104018500D03*
X141300000Y-104018500D03*
X140650000Y-104018500D03*
X140000000Y-104018500D03*
X139350000Y-104018500D03*
X138700000Y-104018500D03*
X138050000Y-104018500D03*
D16*
X140000000Y-107006000D03*
%TD*%
D17*
%TO.C,C12*%
X145225000Y-80406000D03*
X146775000Y-80406000D03*
%TD*%
D18*
%TO.C,C6*%
X150637500Y-106906000D03*
X152362500Y-106906000D03*
%TD*%
D13*
%TO.C,J4*%
X138500000Y-66906000D03*
%TD*%
D17*
%TO.C,C10*%
X145450000Y-90406000D03*
X147000000Y-90406000D03*
%TD*%
D19*
%TO.C,C2*%
X147500000Y-56131000D03*
X147500000Y-57681000D03*
%TD*%
D20*
%TO.C,C4*%
X167000000Y-66406000D03*
X167000000Y-69406000D03*
%TD*%
D21*
%TO.C,U5*%
X138000000Y-80193500D03*
D22*
X138000000Y-82733500D03*
X138000000Y-85273500D03*
X138000000Y-87813500D03*
%TD*%
D18*
%TO.C,C11*%
X152275000Y-129406000D03*
X154000000Y-129406000D03*
%TD*%
D20*
%TO.C,C1*%
X167000000Y-56906000D03*
X167000000Y-59906000D03*
%TD*%
D18*
%TO.C,R5*%
X167412500Y-111906000D03*
X169137500Y-111906000D03*
%TD*%
D23*
%TO.C,C5*%
X152000000Y-103006000D03*
X154075000Y-103006000D03*
%TD*%
%TO.C,C13*%
X135500000Y-115006000D03*
X137575000Y-115006000D03*
%TD*%
D24*
%TO.C,U4*%
X159900000Y-56756000D03*
X158200000Y-56756000D03*
X156500000Y-56756000D03*
D25*
X156500000Y-65906000D03*
D24*
X154800000Y-56756000D03*
X153100000Y-56756000D03*
%TD*%
D26*
%TO.C,C9*%
X145750000Y-93906000D03*
X146565000Y-93906000D03*
%TD*%
D27*
%TO.C,J2*%
X156655400Y-134539800D03*
X162435400Y-134539800D03*
D28*
X156345400Y-133464800D03*
X157145400Y-133464800D03*
D29*
X158295400Y-133464800D03*
X159295400Y-133464800D03*
X159795400Y-133464800D03*
X160795400Y-133464800D03*
D28*
X161945400Y-133464800D03*
X162745400Y-133464800D03*
X162745400Y-133464800D03*
X161945400Y-133464800D03*
D29*
X161295400Y-133464800D03*
X160295400Y-133464800D03*
X158795400Y-133464800D03*
X157795400Y-133464800D03*
D28*
X157145400Y-133464800D03*
X156345400Y-133464800D03*
D30*
X155225400Y-134039800D03*
D31*
X155225400Y-138219800D03*
D30*
X163865400Y-134039800D03*
D31*
X163865400Y-138219800D03*
%TD*%
D26*
%TO.C,C7*%
X146092500Y-112406000D03*
X146907500Y-112406000D03*
%TD*%
D18*
%TO.C,R3*%
X160775000Y-129406000D03*
X162500000Y-129406000D03*
%TD*%
D26*
%TO.C,C8*%
X146025000Y-109906000D03*
X146840000Y-109906000D03*
%TD*%
D18*
%TO.C,R4*%
X167275000Y-107906000D03*
X169000000Y-107906000D03*
%TD*%
D32*
%TO.C,U2*%
X160625000Y-114906000D03*
X160625000Y-115406000D03*
X160625000Y-115906000D03*
X160625000Y-116406000D03*
X160625000Y-116906000D03*
X160625000Y-117406000D03*
D33*
X161312500Y-118093500D03*
X161812500Y-118093500D03*
X162312500Y-118093500D03*
X162812500Y-118093500D03*
X163312500Y-118093500D03*
X163812500Y-118093500D03*
D32*
X164500000Y-117406000D03*
X164500000Y-116906000D03*
X164500000Y-116406000D03*
X164500000Y-115906000D03*
X164500000Y-115406000D03*
X164500000Y-114906000D03*
D33*
X163812500Y-114218500D03*
X163312500Y-114218500D03*
X162812500Y-114218500D03*
X162312500Y-114218500D03*
X161812500Y-114218500D03*
X161312500Y-114218500D03*
D34*
X162562500Y-116156000D03*
%TD*%
D35*
%TO.C,Q1*%
X152960000Y-115406000D03*
D36*
X154230000Y-115406000D03*
X155500000Y-115406000D03*
%TD*%
D37*
%TO.C,J5*%
X135525000Y-99356000D03*
X138475000Y-99356000D03*
D38*
X137000000Y-100906000D03*
%TD*%
D39*
%TO.C,U1*%
X151350000Y-78241000D03*
X151350000Y-79511000D03*
X151350000Y-80781000D03*
X151350000Y-82051000D03*
X151350000Y-83321000D03*
X151350000Y-84591000D03*
X151350000Y-85861000D03*
X151350000Y-87131000D03*
X151350000Y-88401000D03*
X151350000Y-89671000D03*
X151350000Y-90941000D03*
X151350000Y-92211000D03*
X151350000Y-93481000D03*
X151350000Y-94751000D03*
D40*
X154385000Y-95846000D03*
X155655000Y-95846000D03*
X156925000Y-95846000D03*
X158195000Y-95846000D03*
X159465000Y-95846000D03*
X160735000Y-95846000D03*
X162005000Y-95846000D03*
X163275000Y-95846000D03*
X164545000Y-95846000D03*
X165815000Y-95846000D03*
D39*
X168850000Y-94751000D03*
X168850000Y-93481000D03*
X168850000Y-92211000D03*
X168850000Y-90941000D03*
X168850000Y-89671000D03*
X168850000Y-88401000D03*
X168850000Y-87131000D03*
X168850000Y-85861000D03*
X168850000Y-84591000D03*
X168850000Y-83321000D03*
X168850000Y-82051000D03*
X168850000Y-80781000D03*
X168850000Y-79511000D03*
X168850000Y-78241000D03*
D41*
X157200000Y-85106000D03*
X157200000Y-86506000D03*
X157900000Y-84406000D03*
X157900000Y-85806000D03*
X157900000Y-87206000D03*
X158600000Y-85106000D03*
D42*
X158600000Y-85806000D03*
D41*
X158600000Y-86506000D03*
X159300000Y-84406000D03*
X159300000Y-85806000D03*
X159300000Y-87206000D03*
X160000000Y-85106000D03*
X160000000Y-86506000D03*
%TD*%
D18*
%TO.C,R2*%
X165275000Y-129406000D03*
X167000000Y-129406000D03*
%TD*%
%TO.C,R1*%
X146275000Y-101406000D03*
X148000000Y-101406000D03*
%TD*%
D35*
%TO.C,Q2*%
X154460000Y-123406000D03*
D36*
X155730000Y-123406000D03*
X157000000Y-123406000D03*
%TD*%
D19*
%TO.C,C3*%
X147500000Y-66631000D03*
X147500000Y-68181000D03*
%TD*%
M02*
