%TF.GenerationSoftware,KiCad,Pcbnew,8.0.4*%
%TF.CreationDate,2025-07-24T11:12:47+05:30*%
%TF.ProjectId,SIH Smart Irrigation System,53494820-536d-4617-9274-204972726967,rev?*%
%TF.SameCoordinates,Original*%
%TF.FileFunction,Copper,L2,Bot*%
%TF.FilePolarity,Positive*%
%FSLAX46Y46*%
G04 Gerber Fmt 4.6, Leading zero omitted, Abs format (unit mm)*
G04 Created by KiCad (PCBNEW 8.0.4) date 2025-07-24 11:12:47*
%MOMM*%
%LPD*%
G01*
G04 APERTURE LIST*
%TA.AperFunction,ComponentPad*%
%ADD10R,2.200000X2.200000*%
%TD*%
%TA.AperFunction,ComponentPad*%
%ADD11C,2.200000*%
%TD*%
%TA.AperFunction,ComponentPad*%
%ADD12C,3.000000*%
%TD*%
%TA.AperFunction,ComponentPad*%
%ADD13R,1.500000X1.500000*%
%TD*%
%TA.AperFunction,ComponentPad*%
%ADD14C,1.500000*%
%TD*%
%TA.AperFunction,ComponentPad*%
%ADD15O,1.000000X2.100000*%
%TD*%
%TA.AperFunction,ComponentPad*%
%ADD16O,1.000000X1.800000*%
%TD*%
%TA.AperFunction,ComponentPad*%
%ADD17R,1.050000X1.500000*%
%TD*%
%TA.AperFunction,ComponentPad*%
%ADD18O,1.050000X1.500000*%
%TD*%
%TA.AperFunction,HeatsinkPad*%
%ADD19C,0.600000*%
%TD*%
%TA.AperFunction,ViaPad*%
%ADD20C,0.600000*%
%TD*%
%TA.AperFunction,Conductor*%
%ADD21C,0.250000*%
%TD*%
G04 APERTURE END LIST*
D10*
%TO.P,J1,1,Pin_1*%
%TO.N,GND*%
X138000000Y-130826000D03*
D11*
%TO.P,J1,2,Pin_2*%
%TO.N,Net-(J1-Pin_2)*%
X138000000Y-133366000D03*
%TO.P,J1,3,Pin_3*%
%TO.N,Net-(J1-Pin_3)*%
X138000000Y-135906000D03*
%TD*%
D12*
%TO.P,J3,1,Pin_1*%
%TO.N,+12V*%
X138500000Y-55906000D03*
%TD*%
%TO.P,J4,1,Pin_1*%
%TO.N,GND*%
X138500000Y-66906000D03*
%TD*%
D13*
%TO.P,U5,1,VDD*%
%TO.N,Net-(J1-Pin_3)*%
X138000000Y-80193500D03*
D14*
%TO.P,U5,2,DATA*%
%TO.N,Net-(U1-IO4)*%
X138000000Y-82733500D03*
%TO.P,U5,3,NC*%
%TO.N,unconnected-(U5-NC-Pad3)*%
X138000000Y-85273500D03*
%TO.P,U5,4,GND*%
%TO.N,GND*%
X138000000Y-87813500D03*
%TD*%
D15*
%TO.P,J2,S1,SHIELD*%
%TO.N,Net-(J2-SHIELD)*%
X155225400Y-134039800D03*
D16*
X155225400Y-138219800D03*
D15*
X163865400Y-134039800D03*
D16*
X163865400Y-138219800D03*
%TD*%
D17*
%TO.P,Q1,1,E*%
%TO.N,GND*%
X152960000Y-115406000D03*
D18*
%TO.P,Q1,2,B*%
%TO.N,Net-(Q1-B)*%
X154230000Y-115406000D03*
%TO.P,Q1,3,C*%
%TO.N,Net-(Q1-C)*%
X155500000Y-115406000D03*
%TD*%
D19*
%TO.P,U1,39,GND*%
%TO.N,GND*%
X157200000Y-85106000D03*
X157200000Y-86506000D03*
X157900000Y-84406000D03*
X157900000Y-85806000D03*
X157900000Y-87206000D03*
X158600000Y-85106000D03*
X158600000Y-86506000D03*
X159300000Y-84406000D03*
X159300000Y-85806000D03*
X159300000Y-87206000D03*
X160000000Y-85106000D03*
X160000000Y-86506000D03*
%TD*%
D17*
%TO.P,Q2,1,E*%
%TO.N,GND*%
X154460000Y-123406000D03*
D18*
%TO.P,Q2,2,B*%
%TO.N,Net-(Q2-B)*%
X155730000Y-123406000D03*
%TO.P,Q2,3,C*%
%TO.N,Net-(Q2-C)*%
X157000000Y-123406000D03*
%TD*%
D20*
%TO.N,GND*%
X164864900Y-125002600D03*
X147874500Y-62750500D03*
X149935400Y-66719000D03*
X146339100Y-66719000D03*
X161801400Y-125002600D03*
%TO.N,+12V*%
X161868000Y-55169800D03*
X146388700Y-55169800D03*
%TO.N,Net-(J1-Pin_3)*%
X147123300Y-113712500D03*
X159990300Y-119183200D03*
%TO.N,Net-(U3-VR_DIG)*%
X152499400Y-105568200D03*
X141431500Y-111416000D03*
%TO.N,Net-(U3-VR_ANA)*%
X135948400Y-104918500D03*
X150637500Y-118388000D03*
%TO.N,Net-(J2-SHIELD)*%
X152954300Y-128140600D03*
%TO.N,Net-(U1-EN)*%
X145280300Y-81846900D03*
X150010900Y-80355200D03*
%TO.N,Net-(Q2-C)*%
X153663200Y-101275100D03*
X153777300Y-108277300D03*
X147849000Y-80751900D03*
X153284800Y-81357100D03*
%TO.N,Net-(U3-VR_PA)*%
X136187500Y-102504300D03*
X139021500Y-102521700D03*
%TO.N,Net-(J1-Pin_2)*%
X141095400Y-113452800D03*
X149821800Y-103700000D03*
%TO.N,Net-(U2-VBUS)*%
X161135900Y-127468900D03*
X158011100Y-129928800D03*
%TO.N,Net-(U2-D+)*%
X158396100Y-130822000D03*
X159369700Y-134551700D03*
%TO.N,Net-(Q1-C)*%
X169459800Y-103409100D03*
%TO.N,Net-(Q1-B)*%
X167934300Y-106713100D03*
%TO.N,Net-(Q2-B)*%
X168950400Y-113600300D03*
%TO.N,Net-(U1-IO4)*%
X147674200Y-100134200D03*
X167773300Y-96910300D03*
%TO.N,Net-(U2-~{DTR})*%
X161517000Y-110461700D03*
X165531300Y-108918500D03*
%TO.N,Net-(U1-IO26)*%
X152310500Y-101098800D03*
X138956800Y-111049800D03*
%TO.N,Net-(U1-IO18)*%
X167408900Y-92448500D03*
X144576600Y-97655700D03*
%TO.N,Net-(U1-IO14)*%
X141633000Y-112217800D03*
X150231900Y-104559400D03*
%TO.N,Net-(U1-IO5)*%
X143357800Y-101725000D03*
X171455000Y-89270100D03*
%TO.N,Net-(U1-RXD0{slash}IO3)*%
X167446300Y-87338100D03*
X164754300Y-87176500D03*
%TO.N,Net-(U1-IO19)*%
X170795000Y-87176500D03*
X145241500Y-98704300D03*
%TO.N,Net-(U1-IO23)*%
X167161800Y-79134100D03*
X145334500Y-99545200D03*
%TD*%
D21*
%TO.N,GND*%
X159300000Y-87206000D02*
X157900000Y-87206000D01*
X146339100Y-66719000D02*
X138687000Y-66719000D01*
X164864900Y-125002600D02*
X161801400Y-125002600D01*
X154460000Y-124482700D02*
X154979900Y-125002600D01*
X154979900Y-125002600D02*
X161801400Y-125002600D01*
X147874500Y-65183600D02*
X146339100Y-66719000D01*
X138687000Y-66719000D02*
X138500000Y-66906000D01*
X159300000Y-85806000D02*
X160000000Y-85106000D01*
X146339100Y-66719000D02*
X149935400Y-66719000D01*
X140000000Y-127246000D02*
X151696700Y-127246000D01*
X147874500Y-62750500D02*
X147874500Y-65183600D01*
X154460000Y-123406000D02*
X154460000Y-124482700D01*
X157200000Y-85106000D02*
X158600000Y-85106000D01*
X151696700Y-127246000D02*
X154460000Y-124482700D01*
X158600000Y-85106000D02*
X159300000Y-85806000D01*
%TO.N,+12V*%
X139236200Y-55169800D02*
X138500000Y-55906000D01*
X146388700Y-55169800D02*
X139236200Y-55169800D01*
X161868000Y-55169800D02*
X146388700Y-55169800D01*
%TO.N,Net-(J1-Pin_3)*%
X159990300Y-119183200D02*
X152594000Y-119183200D01*
X152594000Y-119183200D02*
X147123300Y-113712500D01*
%TO.N,Net-(U3-VR_DIG)*%
X146651700Y-111415900D02*
X141431500Y-111415900D01*
X141431500Y-111415900D02*
X141431500Y-111416000D01*
X152499400Y-105568200D02*
X146651700Y-111415900D01*
%TO.N,Net-(U3-VR_ANA)*%
X145144300Y-118388000D02*
X150637500Y-118388000D01*
X135948400Y-109192100D02*
X145144300Y-118388000D01*
X135948400Y-104918500D02*
X135948400Y-109192100D01*
%TO.N,Net-(J2-SHIELD)*%
X155225400Y-130411700D02*
X152954300Y-128140600D01*
X155225400Y-134039800D02*
X155225400Y-130411700D01*
X155225400Y-138219800D02*
X155225400Y-134039800D01*
X155225400Y-138219800D02*
X163865400Y-138219800D01*
%TO.N,Net-(U1-EN)*%
X147042800Y-80084400D02*
X149740100Y-80084400D01*
X145280300Y-81846900D02*
X147042800Y-80084400D01*
X149740100Y-80084400D02*
X150010900Y-80355200D01*
%TO.N,Net-(Q2-C)*%
X153777300Y-101389200D02*
X153663200Y-101275100D01*
X147849000Y-80751900D02*
X148454200Y-81357100D01*
X153777300Y-108277300D02*
X153777300Y-101389200D01*
X148454200Y-81357100D02*
X153284800Y-81357100D01*
%TO.N,Net-(U3-VR_PA)*%
X136187500Y-102504300D02*
X136204900Y-102521700D01*
X136204900Y-102521700D02*
X139021500Y-102521700D01*
%TO.N,Net-(J1-Pin_2)*%
X140236600Y-112594000D02*
X140236600Y-111085500D01*
X141095400Y-113452800D02*
X140236600Y-112594000D01*
X147622100Y-103700000D02*
X149821800Y-103700000D01*
X140236600Y-111085500D02*
X147622100Y-103700000D01*
%TO.N,Net-(U2-VBUS)*%
X158676000Y-129928800D02*
X158011100Y-129928800D01*
X161135900Y-127468900D02*
X158676000Y-129928800D01*
%TO.N,Net-(U2-D+)*%
X159369700Y-131795600D02*
X158396100Y-130822000D01*
X159369700Y-134551700D02*
X159369700Y-131795600D01*
%TO.N,Net-(Q1-C)*%
X169459700Y-106609600D02*
X169459700Y-103409100D01*
X169459700Y-103409100D02*
X169459800Y-103409100D01*
X160663300Y-115406000D02*
X169459700Y-106609600D01*
X156351700Y-115406000D02*
X160663300Y-115406000D01*
X155500000Y-115406000D02*
X156351700Y-115406000D01*
%TO.N,Net-(Q1-B)*%
X161045200Y-114329300D02*
X154230000Y-114329300D01*
X154230000Y-115406000D02*
X154230000Y-114329300D01*
X167934300Y-107440200D02*
X161045200Y-114329300D01*
X167934300Y-106713100D02*
X167934300Y-107440200D01*
%TO.N,Net-(Q2-B)*%
X155730000Y-123406000D02*
X155730000Y-122329300D01*
X155730000Y-122329300D02*
X160221400Y-122329300D01*
X160221400Y-122329300D02*
X168950400Y-113600300D01*
%TO.N,Net-(U1-IO4)*%
X167773300Y-96910300D02*
X164549400Y-100134200D01*
X167773300Y-100134200D02*
X167773300Y-96910300D01*
X167773300Y-96910300D02*
X167773300Y-100134200D01*
X164549400Y-100134200D02*
X147674200Y-100134200D01*
%TO.N,Net-(U2-~{DTR})*%
X165531300Y-108918500D02*
X163060200Y-108918500D01*
X163060200Y-108918500D02*
X161517000Y-110461700D01*
%TO.N,Net-(U1-IO26)*%
X138956800Y-111049800D02*
X138956600Y-111050000D01*
X138956600Y-111050000D02*
X138956800Y-111049800D01*
X148907800Y-101098800D02*
X138956600Y-111050000D01*
X138956600Y-111050000D02*
X138956800Y-111049800D01*
X152310500Y-101098800D02*
X148907800Y-101098800D01*
%TO.N,Net-(U1-IO18)*%
X149783800Y-92448500D02*
X144576600Y-97655700D01*
X144576600Y-97655700D02*
X144533700Y-97698600D01*
X144533700Y-97698600D02*
X144576600Y-97655700D01*
X167408900Y-92448500D02*
X167408900Y-92446900D01*
X167408900Y-92446900D02*
X167408900Y-92448500D01*
X167408900Y-92448500D02*
X149783800Y-92448500D01*
%TO.N,Net-(U1-IO14)*%
X148001400Y-104559400D02*
X150231900Y-104559400D01*
X150464300Y-104327000D02*
X150231900Y-104559400D01*
X147549700Y-105011100D02*
X147814300Y-104746500D01*
X147814300Y-104746500D02*
X148001400Y-104559400D01*
X147814300Y-104746500D02*
X148001400Y-104559400D01*
X140724700Y-111236200D02*
X146949800Y-105011100D01*
X140724700Y-111661000D02*
X140724700Y-111236200D01*
X141281500Y-112217800D02*
X140724700Y-111661000D01*
X150231900Y-104559400D02*
X150464300Y-104327000D01*
X146949800Y-105011100D02*
X147549700Y-105011100D01*
X141633000Y-112217800D02*
X141281500Y-112217800D01*
%TO.N,Net-(U1-IO5)*%
X171455000Y-89981400D02*
X171455000Y-89270100D01*
X171455000Y-89270100D02*
X171455000Y-89981400D01*
X171455000Y-89981400D02*
X171455000Y-89270100D01*
X145058200Y-101725000D02*
X147603700Y-99179500D01*
X162256900Y-99179500D02*
X171455000Y-89981400D01*
X143357800Y-101725000D02*
X145058200Y-101725000D01*
X147603700Y-99179500D02*
X162256900Y-99179500D01*
%TO.N,Net-(U1-RXD0{slash}IO3)*%
X167446300Y-87338100D02*
X164915900Y-87338100D01*
X164915900Y-87338100D02*
X164754300Y-87176500D01*
%TO.N,Net-(U1-IO19)*%
X170795000Y-89960700D02*
X162051400Y-98704300D01*
X170795000Y-87176500D02*
X170126500Y-87176500D01*
X162051400Y-98704300D02*
X145241500Y-98704300D01*
X170795000Y-87176500D02*
X170795000Y-89960700D01*
X170126500Y-87176500D02*
X170795000Y-87176500D01*
%TO.N,Net-(U1-IO23)*%
X167161800Y-79134100D02*
X162203600Y-79134100D01*
X143903900Y-98252900D02*
X145196200Y-99545200D01*
X145196200Y-99545200D02*
X145334500Y-99545200D01*
X162203600Y-79134100D02*
X143903900Y-97433800D01*
X143903900Y-97433800D02*
X143903900Y-98252900D01*
%TD*%
M02*
