%TF.GenerationSoftware,KiCad,Pcbnew,8.0.4*%
%TF.CreationDate,2025-07-24T11:12:47+05:30*%
%TF.ProjectId,SIH Smart Irrigation System,53494820-536d-4617-9274-204972726967,rev?*%
%TF.SameCoordinates,Original*%
%TF.FileFunction,Copper,L1,Top*%
%TF.FilePolarity,Positive*%
%FSLAX46Y46*%
G04 Gerber Fmt 4.6, Leading zero omitted, Abs format (unit mm)*
G04 Created by KiCad (PCBNEW 8.0.4) date 2025-07-24 11:12:47*
%MOMM*%
%LPD*%
G01*
G04 APERTURE LIST*
G04 Aperture macros list*
%AMRoundRect*
0 Rectangle with rounded corners*
0 $1 Rounding radius*
0 $2 $3 $4 $5 $6 $7 $8 $9 X,Y pos of 4 corners*
0 Add a 4 corners polygon primitive as box body*
4,1,4,$2,$3,$4,$5,$6,$7,$8,$9,$2,$3,0*
0 Add four circle primitives for the rounded corners*
1,1,$1+$1,$2,$3*
1,1,$1+$1,$4,$5*
1,1,$1+$1,$6,$7*
1,1,$1+$1,$8,$9*
0 Add four rect primitives between the rounded corners*
20,1,$1+$1,$2,$3,$4,$5,0*
20,1,$1+$1,$4,$5,$6,$7,0*
20,1,$1+$1,$6,$7,$8,$9,0*
20,1,$1+$1,$8,$9,$2,$3,0*%
G04 Aperture macros list end*
%ADD10C,0.300000*%
%TA.AperFunction,NonConductor*%
%ADD11C,0.300000*%
%TD*%
%TA.AperFunction,ComponentPad*%
%ADD12R,2.200000X2.200000*%
%TD*%
%TA.AperFunction,ComponentPad*%
%ADD13C,2.200000*%
%TD*%
%TA.AperFunction,ComponentPad*%
%ADD14C,3.000000*%
%TD*%
%TA.AperFunction,SMDPad,CuDef*%
%ADD15RoundRect,0.075000X-0.312500X-0.075000X0.312500X-0.075000X0.312500X0.075000X-0.312500X0.075000X0*%
%TD*%
%TA.AperFunction,SMDPad,CuDef*%
%ADD16RoundRect,0.075000X-0.075000X-0.312500X0.075000X-0.312500X0.075000X0.312500X-0.075000X0.312500X0*%
%TD*%
%TA.AperFunction,HeatsinkPad*%
%ADD17R,4.800000X4.800000*%
%TD*%
%TA.AperFunction,SMDPad,CuDef*%
%ADD18RoundRect,0.225000X-0.225000X-0.250000X0.225000X-0.250000X0.225000X0.250000X-0.225000X0.250000X0*%
%TD*%
%TA.AperFunction,SMDPad,CuDef*%
%ADD19RoundRect,0.237500X-0.300000X-0.237500X0.300000X-0.237500X0.300000X0.237500X-0.300000X0.237500X0*%
%TD*%
%TA.AperFunction,SMDPad,CuDef*%
%ADD20RoundRect,0.225000X-0.250000X0.225000X-0.250000X-0.225000X0.250000X-0.225000X0.250000X0.225000X0*%
%TD*%
%TA.AperFunction,SMDPad,CuDef*%
%ADD21R,1.600000X2.200000*%
%TD*%
%TA.AperFunction,ComponentPad*%
%ADD22R,1.500000X1.500000*%
%TD*%
%TA.AperFunction,ComponentPad*%
%ADD23C,1.500000*%
%TD*%
%TA.AperFunction,SMDPad,CuDef*%
%ADD24RoundRect,0.250000X-0.337500X-0.475000X0.337500X-0.475000X0.337500X0.475000X-0.337500X0.475000X0*%
%TD*%
%TA.AperFunction,SMDPad,CuDef*%
%ADD25RoundRect,0.250000X-0.300000X2.050000X-0.300000X-2.050000X0.300000X-2.050000X0.300000X2.050000X0*%
%TD*%
%TA.AperFunction,SMDPad,CuDef*%
%ADD26RoundRect,0.250000X-2.375000X2.025000X-2.375000X-2.025000X2.375000X-2.025000X2.375000X2.025000X0*%
%TD*%
%TA.AperFunction,SMDPad,CuDef*%
%ADD27RoundRect,0.250002X-5.149998X4.449998X-5.149998X-4.449998X5.149998X-4.449998X5.149998X4.449998X0*%
%TD*%
%TA.AperFunction,SMDPad,CuDef*%
%ADD28RoundRect,0.100000X-0.217500X-0.100000X0.217500X-0.100000X0.217500X0.100000X-0.217500X0.100000X0*%
%TD*%
%TA.AperFunction,SMDPad,CuDef*%
%ADD29RoundRect,0.150000X-0.150000X-0.425000X0.150000X-0.425000X0.150000X0.425000X-0.150000X0.425000X0*%
%TD*%
%TA.AperFunction,SMDPad,CuDef*%
%ADD30RoundRect,0.075000X-0.075000X-0.500000X0.075000X-0.500000X0.075000X0.500000X-0.075000X0.500000X0*%
%TD*%
%TA.AperFunction,ComponentPad*%
%ADD31O,1.000000X2.100000*%
%TD*%
%TA.AperFunction,ComponentPad*%
%ADD32O,1.000000X1.800000*%
%TD*%
%TA.AperFunction,SMDPad,CuDef*%
%ADD33RoundRect,0.062500X-0.350000X-0.062500X0.350000X-0.062500X0.350000X0.062500X-0.350000X0.062500X0*%
%TD*%
%TA.AperFunction,SMDPad,CuDef*%
%ADD34RoundRect,0.062500X-0.062500X-0.350000X0.062500X-0.350000X0.062500X0.350000X-0.062500X0.350000X0*%
%TD*%
%TA.AperFunction,HeatsinkPad*%
%ADD35R,2.600000X2.600000*%
%TD*%
%TA.AperFunction,ComponentPad*%
%ADD36R,1.050000X1.500000*%
%TD*%
%TA.AperFunction,ComponentPad*%
%ADD37O,1.050000X1.500000*%
%TD*%
%TA.AperFunction,SMDPad,CuDef*%
%ADD38R,1.100000X2.250000*%
%TD*%
%TA.AperFunction,SMDPad,CuDef*%
%ADD39R,1.050000X1.100000*%
%TD*%
%TA.AperFunction,SMDPad,CuDef*%
%ADD40R,1.500000X0.900000*%
%TD*%
%TA.AperFunction,SMDPad,CuDef*%
%ADD41R,0.900000X1.500000*%
%TD*%
%TA.AperFunction,SMDPad,CuDef*%
%ADD42R,0.900000X0.900000*%
%TD*%
%TA.AperFunction,HeatsinkPad*%
%ADD43C,0.600000*%
%TD*%
%TA.AperFunction,SMDPad,CuDef*%
%ADD44R,3.800000X3.800000*%
%TD*%
%TA.AperFunction,ViaPad*%
%ADD45C,0.600000*%
%TD*%
%TA.AperFunction,Conductor*%
%ADD46C,0.250000*%
%TD*%
G04 APERTURE END LIST*
D10*
D11*
X114149748Y-15760590D02*
X119864034Y-15760590D01*
X117006891Y-25760590D02*
X117006891Y-15760590D01*
X123197368Y-25760590D02*
X123197368Y-19093923D01*
X123197368Y-20998685D02*
X123673558Y-20046304D01*
X123673558Y-20046304D02*
X124149749Y-19570114D01*
X124149749Y-19570114D02*
X125102130Y-19093923D01*
X125102130Y-19093923D02*
X126054511Y-19093923D01*
X133673558Y-25760590D02*
X133673558Y-20522495D01*
X133673558Y-20522495D02*
X133197368Y-19570114D01*
X133197368Y-19570114D02*
X132244987Y-19093923D01*
X132244987Y-19093923D02*
X130340225Y-19093923D01*
X130340225Y-19093923D02*
X129387844Y-19570114D01*
X133673558Y-25284400D02*
X132721177Y-25760590D01*
X132721177Y-25760590D02*
X130340225Y-25760590D01*
X130340225Y-25760590D02*
X129387844Y-25284400D01*
X129387844Y-25284400D02*
X128911653Y-24332019D01*
X128911653Y-24332019D02*
X128911653Y-23379638D01*
X128911653Y-23379638D02*
X129387844Y-22427257D01*
X129387844Y-22427257D02*
X130340225Y-21951066D01*
X130340225Y-21951066D02*
X132721177Y-21951066D01*
X132721177Y-21951066D02*
X133673558Y-21474876D01*
X138435463Y-19093923D02*
X138435463Y-25760590D01*
X138435463Y-20046304D02*
X138911653Y-19570114D01*
X138911653Y-19570114D02*
X139864034Y-19093923D01*
X139864034Y-19093923D02*
X141292606Y-19093923D01*
X141292606Y-19093923D02*
X142244987Y-19570114D01*
X142244987Y-19570114D02*
X142721177Y-20522495D01*
X142721177Y-20522495D02*
X142721177Y-25760590D01*
X147006891Y-25284400D02*
X147959272Y-25760590D01*
X147959272Y-25760590D02*
X149864034Y-25760590D01*
X149864034Y-25760590D02*
X150816415Y-25284400D01*
X150816415Y-25284400D02*
X151292606Y-24332019D01*
X151292606Y-24332019D02*
X151292606Y-23855828D01*
X151292606Y-23855828D02*
X150816415Y-22903447D01*
X150816415Y-22903447D02*
X149864034Y-22427257D01*
X149864034Y-22427257D02*
X148435463Y-22427257D01*
X148435463Y-22427257D02*
X147483082Y-21951066D01*
X147483082Y-21951066D02*
X147006891Y-20998685D01*
X147006891Y-20998685D02*
X147006891Y-20522495D01*
X147006891Y-20522495D02*
X147483082Y-19570114D01*
X147483082Y-19570114D02*
X148435463Y-19093923D01*
X148435463Y-19093923D02*
X149864034Y-19093923D01*
X149864034Y-19093923D02*
X150816415Y-19570114D01*
X155578320Y-25760590D02*
X155578320Y-19093923D01*
X155578320Y-20046304D02*
X156054510Y-19570114D01*
X156054510Y-19570114D02*
X157006891Y-19093923D01*
X157006891Y-19093923D02*
X158435463Y-19093923D01*
X158435463Y-19093923D02*
X159387844Y-19570114D01*
X159387844Y-19570114D02*
X159864034Y-20522495D01*
X159864034Y-20522495D02*
X159864034Y-25760590D01*
X159864034Y-20522495D02*
X160340225Y-19570114D01*
X160340225Y-19570114D02*
X161292606Y-19093923D01*
X161292606Y-19093923D02*
X162721177Y-19093923D01*
X162721177Y-19093923D02*
X163673558Y-19570114D01*
X163673558Y-19570114D02*
X164149748Y-20522495D01*
X164149748Y-20522495D02*
X164149748Y-25760590D01*
X168911653Y-25760590D02*
X168911653Y-19093923D01*
X168911653Y-15760590D02*
X168435462Y-16236780D01*
X168435462Y-16236780D02*
X168911653Y-16712971D01*
X168911653Y-16712971D02*
X169387843Y-16236780D01*
X169387843Y-16236780D02*
X168911653Y-15760590D01*
X168911653Y-15760590D02*
X168911653Y-16712971D01*
X172244986Y-19093923D02*
X176054510Y-19093923D01*
X173673558Y-15760590D02*
X173673558Y-24332019D01*
X173673558Y-24332019D02*
X174149748Y-25284400D01*
X174149748Y-25284400D02*
X175102129Y-25760590D01*
X175102129Y-25760590D02*
X176054510Y-25760590D01*
X177959272Y-19093923D02*
X181768796Y-19093923D01*
X179387844Y-15760590D02*
X179387844Y-24332019D01*
X179387844Y-24332019D02*
X179864034Y-25284400D01*
X179864034Y-25284400D02*
X180816415Y-25760590D01*
X180816415Y-25760590D02*
X181768796Y-25760590D01*
X188911654Y-25284400D02*
X187959273Y-25760590D01*
X187959273Y-25760590D02*
X186054511Y-25760590D01*
X186054511Y-25760590D02*
X185102130Y-25284400D01*
X185102130Y-25284400D02*
X184625939Y-24332019D01*
X184625939Y-24332019D02*
X184625939Y-20522495D01*
X184625939Y-20522495D02*
X185102130Y-19570114D01*
X185102130Y-19570114D02*
X186054511Y-19093923D01*
X186054511Y-19093923D02*
X187959273Y-19093923D01*
X187959273Y-19093923D02*
X188911654Y-19570114D01*
X188911654Y-19570114D02*
X189387844Y-20522495D01*
X189387844Y-20522495D02*
X189387844Y-21474876D01*
X189387844Y-21474876D02*
X184625939Y-22427257D01*
X193673559Y-25760590D02*
X193673559Y-19093923D01*
X193673559Y-20998685D02*
X194149749Y-20046304D01*
X194149749Y-20046304D02*
X194625940Y-19570114D01*
X194625940Y-19570114D02*
X195578321Y-19093923D01*
X195578321Y-19093923D02*
X196530702Y-19093923D01*
D12*
%TO.P,J1,1,Pin_1*%
%TO.N,GND*%
X138000000Y-130826000D03*
D13*
%TO.P,J1,2,Pin_2*%
%TO.N,Net-(J1-Pin_2)*%
X138000000Y-133366000D03*
%TO.P,J1,3,Pin_3*%
%TO.N,Net-(J1-Pin_3)*%
X138000000Y-135906000D03*
%TD*%
D14*
%TO.P,J3,1,Pin_1*%
%TO.N,+12V*%
X138500000Y-55906000D03*
%TD*%
D15*
%TO.P,U3,1,RFI_LF*%
%TO.N,unconnected-(U3-RFI_LF-Pad1)*%
X137012500Y-105056000D03*
%TO.P,U3,2,VR_ANA*%
%TO.N,Net-(U3-VR_ANA)*%
X137012500Y-105706000D03*
%TO.P,U3,3,VBAT_ANA*%
%TO.N,Net-(J1-Pin_3)*%
X137012500Y-106356000D03*
%TO.P,U3,4,VR_DIG*%
%TO.N,Net-(U3-VR_DIG)*%
X137012500Y-107006000D03*
%TO.P,U3,5,XTA*%
%TO.N,unconnected-(U3-XTA-Pad5)*%
X137012500Y-107656000D03*
%TO.P,U3,6,XTB*%
%TO.N,unconnected-(U3-XTB-Pad6)*%
X137012500Y-108306000D03*
%TO.P,U3,7,~{RESET}*%
%TO.N,Net-(U1-IO14)*%
X137012500Y-108956000D03*
D16*
%TO.P,U3,8,DIO0*%
%TO.N,Net-(U1-IO26)*%
X138050000Y-109993500D03*
%TO.P,U3,9,DIO1*%
%TO.N,unconnected-(U3-DIO1-Pad9)*%
X138700000Y-109993500D03*
%TO.P,U3,10,DIO2*%
%TO.N,unconnected-(U3-DIO2-Pad10)*%
X139350000Y-109993500D03*
%TO.P,U3,11,DIO3*%
%TO.N,unconnected-(U3-DIO3-Pad11)*%
X140000000Y-109993500D03*
%TO.P,U3,12,DIO4*%
%TO.N,unconnected-(U3-DIO4-Pad12)*%
X140650000Y-109993500D03*
%TO.P,U3,13,DIO5*%
%TO.N,unconnected-(U3-DIO5-Pad13)*%
X141300000Y-109993500D03*
%TO.P,U3,14,VBAT_DIG*%
%TO.N,Net-(J1-Pin_3)*%
X141950000Y-109993500D03*
D15*
%TO.P,U3,15,GND*%
%TO.N,GND*%
X142987500Y-108956000D03*
%TO.P,U3,16,SCK*%
%TO.N,Net-(U1-IO23)*%
X142987500Y-108306000D03*
%TO.P,U3,17,MISO*%
%TO.N,Net-(U1-IO19)*%
X142987500Y-107656000D03*
%TO.P,U3,18,MOSI*%
%TO.N,Net-(U1-IO18)*%
X142987500Y-107006000D03*
%TO.P,U3,19,NSS*%
%TO.N,Net-(U1-IO5)*%
X142987500Y-106356000D03*
%TO.P,U3,20,RXTX/RF_MOD*%
%TO.N,unconnected-(U3-RXTX{slash}RF_MOD-Pad20)*%
X142987500Y-105706000D03*
%TO.P,U3,21,GND*%
%TO.N,GND*%
X142987500Y-105056000D03*
D16*
%TO.P,U3,22,GND*%
X141950000Y-104018500D03*
%TO.P,U3,23,GND*%
X141300000Y-104018500D03*
%TO.P,U3,24,VBAT_RF*%
%TO.N,unconnected-(U3-VBAT_RF-Pad24)*%
X140650000Y-104018500D03*
%TO.P,U3,25,VR_PA*%
%TO.N,Net-(U3-VR_PA)*%
X140000000Y-104018500D03*
%TO.P,U3,26,GND*%
%TO.N,GND*%
X139350000Y-104018500D03*
%TO.P,U3,27,PA_BOOST*%
%TO.N,Net-(J5-SIG)*%
X138700000Y-104018500D03*
%TO.P,U3,28,RFO_LF*%
%TO.N,unconnected-(U3-RFO_LF-Pad28)*%
X138050000Y-104018500D03*
D17*
%TO.P,U3,29,GND*%
%TO.N,GND*%
X140000000Y-107006000D03*
%TD*%
D18*
%TO.P,C12,1*%
%TO.N,Net-(U1-EN)*%
X145225000Y-80406000D03*
%TO.P,C12,2*%
%TO.N,Net-(Q2-C)*%
X146775000Y-80406000D03*
%TD*%
D19*
%TO.P,C6,1*%
%TO.N,Net-(U3-VR_ANA)*%
X150637500Y-106906000D03*
%TO.P,C6,2*%
%TO.N,GND*%
X152362500Y-106906000D03*
%TD*%
D14*
%TO.P,J4,1,Pin_1*%
%TO.N,GND*%
X138500000Y-66906000D03*
%TD*%
D18*
%TO.P,C10,1*%
%TO.N,Net-(J1-Pin_3)*%
X145450000Y-90406000D03*
%TO.P,C10,2*%
%TO.N,GND*%
X147000000Y-90406000D03*
%TD*%
D20*
%TO.P,C2,1*%
%TO.N,+12V*%
X147500000Y-56131000D03*
%TO.P,C2,2*%
%TO.N,GND*%
X147500000Y-57681000D03*
%TD*%
D21*
%TO.P,C4,1*%
%TO.N,Net-(J1-Pin_3)*%
X167000000Y-66406000D03*
%TO.P,C4,2*%
%TO.N,GND*%
X167000000Y-69406000D03*
%TD*%
D22*
%TO.P,U5,1,VDD*%
%TO.N,Net-(J1-Pin_3)*%
X138000000Y-80193500D03*
D23*
%TO.P,U5,2,DATA*%
%TO.N,Net-(U1-IO4)*%
X138000000Y-82733500D03*
%TO.P,U5,3,NC*%
%TO.N,unconnected-(U5-NC-Pad3)*%
X138000000Y-85273500D03*
%TO.P,U5,4,GND*%
%TO.N,GND*%
X138000000Y-87813500D03*
%TD*%
D19*
%TO.P,C11,1*%
%TO.N,Net-(J2-SHIELD)*%
X152275000Y-129406000D03*
%TO.P,C11,2*%
%TO.N,GND*%
X154000000Y-129406000D03*
%TD*%
D21*
%TO.P,C1,1*%
%TO.N,+12V*%
X167000000Y-56906000D03*
%TO.P,C1,2*%
%TO.N,GND*%
X167000000Y-59906000D03*
%TD*%
D19*
%TO.P,R5,1*%
%TO.N,Net-(U2-~{DTR})*%
X167412500Y-111906000D03*
%TO.P,R5,2*%
%TO.N,Net-(Q2-B)*%
X169137500Y-111906000D03*
%TD*%
D24*
%TO.P,C5,1*%
%TO.N,Net-(U3-VR_DIG)*%
X152000000Y-103006000D03*
%TO.P,C5,2*%
%TO.N,GND*%
X154075000Y-103006000D03*
%TD*%
%TO.P,C13,1*%
%TO.N,Net-(U3-VR_PA)*%
X135500000Y-115006000D03*
%TO.P,C13,2*%
%TO.N,GND*%
X137575000Y-115006000D03*
%TD*%
D25*
%TO.P,U4,1,VIN*%
%TO.N,+12V*%
X159900000Y-56756000D03*
%TO.P,U4,2,OUT*%
%TO.N,Net-(J1-Pin_3)*%
X158200000Y-56756000D03*
%TO.P,U4,3,GND*%
%TO.N,GND*%
X156500000Y-56756000D03*
D26*
X159275000Y-63481000D03*
X153725000Y-63481000D03*
D27*
X156500000Y-65906000D03*
D26*
X159275000Y-68331000D03*
X153725000Y-68331000D03*
D25*
%TO.P,U4,4,FB*%
%TO.N,unconnected-(U4-FB-Pad4)*%
X154800000Y-56756000D03*
%TO.P,U4,5,~{ON}/OFF*%
%TO.N,unconnected-(U4-~{ON}{slash}OFF-Pad5)*%
X153100000Y-56756000D03*
%TD*%
D28*
%TO.P,C9,1*%
%TO.N,Net-(J1-Pin_3)*%
X145750000Y-93906000D03*
%TO.P,C9,2*%
%TO.N,GND*%
X146565000Y-93906000D03*
%TD*%
D29*
%TO.P,J2,A1,GND*%
%TO.N,GND*%
X156345400Y-133464800D03*
%TO.P,J2,A4,VBUS*%
%TO.N,Net-(U2-VBUS)*%
X157145400Y-133464800D03*
D30*
%TO.P,J2,A5,CC1*%
%TO.N,Net-(J2-CC1)*%
X158295400Y-133464800D03*
%TO.P,J2,A6,D+*%
%TO.N,Net-(U2-D+)*%
X159295400Y-133464800D03*
%TO.P,J2,A7,D-*%
%TO.N,Net-(U2-D-)*%
X159795400Y-133464800D03*
%TO.P,J2,A8,SBU1*%
%TO.N,unconnected-(J2-SBU1-PadA8)*%
X160795400Y-133464800D03*
D29*
%TO.P,J2,A9,VBUS*%
%TO.N,Net-(U2-VBUS)*%
X161945400Y-133464800D03*
%TO.P,J2,A12,GND*%
%TO.N,GND*%
X162745400Y-133464800D03*
%TO.P,J2,B1,GND*%
X162745400Y-133464800D03*
%TO.P,J2,B4,VBUS*%
%TO.N,Net-(U2-VBUS)*%
X161945400Y-133464800D03*
D30*
%TO.P,J2,B5,CC2*%
%TO.N,Net-(J2-CC2)*%
X161295400Y-133464800D03*
%TO.P,J2,B6,D+*%
%TO.N,Net-(U2-D+)*%
X160295400Y-133464800D03*
%TO.P,J2,B7,D-*%
%TO.N,Net-(U2-D-)*%
X158795400Y-133464800D03*
%TO.P,J2,B8,SBU2*%
%TO.N,unconnected-(J2-SBU2-PadB8)*%
X157795400Y-133464800D03*
D29*
%TO.P,J2,B9,VBUS*%
%TO.N,Net-(U2-VBUS)*%
X157145400Y-133464800D03*
%TO.P,J2,B12,GND*%
%TO.N,GND*%
X156345400Y-133464800D03*
D31*
%TO.P,J2,S1,SHIELD*%
%TO.N,Net-(J2-SHIELD)*%
X155225400Y-134039800D03*
D32*
X155225400Y-138219800D03*
D31*
X163865400Y-134039800D03*
D32*
X163865400Y-138219800D03*
%TD*%
D28*
%TO.P,C7,1*%
%TO.N,Net-(J1-Pin_3)*%
X146092500Y-112406000D03*
%TO.P,C7,2*%
%TO.N,GND*%
X146907500Y-112406000D03*
%TD*%
D19*
%TO.P,R3,1*%
%TO.N,Net-(J2-CC2)*%
X160775000Y-129406000D03*
%TO.P,R3,2*%
%TO.N,GND*%
X162500000Y-129406000D03*
%TD*%
D28*
%TO.P,C8,1*%
%TO.N,Net-(J1-Pin_3)*%
X146025000Y-109906000D03*
%TO.P,C8,2*%
%TO.N,GND*%
X146840000Y-109906000D03*
%TD*%
D19*
%TO.P,R4,1*%
%TO.N,Net-(U2-~{RTS})*%
X167275000Y-107906000D03*
%TO.P,R4,2*%
%TO.N,Net-(Q1-B)*%
X169000000Y-107906000D03*
%TD*%
D33*
%TO.P,U2,1,~{RI}/CLK*%
%TO.N,unconnected-(U2-~{RI}{slash}CLK-Pad1)*%
X160625000Y-114906000D03*
%TO.P,U2,2,GND*%
%TO.N,GND*%
X160625000Y-115406000D03*
%TO.P,U2,3,D+*%
%TO.N,Net-(U2-D+)*%
X160625000Y-115906000D03*
%TO.P,U2,4,D-*%
%TO.N,Net-(U2-D-)*%
X160625000Y-116406000D03*
%TO.P,U2,5,VIO*%
%TO.N,Net-(J1-Pin_3)*%
X160625000Y-116906000D03*
%TO.P,U2,6,VDD*%
%TO.N,unconnected-(U2-VDD-Pad6)*%
X160625000Y-117406000D03*
D34*
%TO.P,U2,7,VREGIN*%
%TO.N,Net-(U2-VBUS)*%
X161312500Y-118093500D03*
%TO.P,U2,8,VBUS*%
X161812500Y-118093500D03*
%TO.P,U2,9,~{RST}*%
%TO.N,unconnected-(U2-~{RST}-Pad9)*%
X162312500Y-118093500D03*
%TO.P,U2,10,NC*%
%TO.N,unconnected-(U2-NC-Pad10)*%
X162812500Y-118093500D03*
%TO.P,U2,11,~{WAKEUP}/GPIO.3*%
%TO.N,unconnected-(U2-~{WAKEUP}{slash}GPIO.3-Pad11)*%
X163312500Y-118093500D03*
%TO.P,U2,12,RS485/GPIO.2*%
%TO.N,unconnected-(U2-RS485{slash}GPIO.2-Pad12)*%
X163812500Y-118093500D03*
D33*
%TO.P,U2,13,~{RXT}/GPIO.1*%
%TO.N,unconnected-(U2-~{RXT}{slash}GPIO.1-Pad13)*%
X164500000Y-117406000D03*
%TO.P,U2,14,~{TXT}/GPIO.0*%
%TO.N,unconnected-(U2-~{TXT}{slash}GPIO.0-Pad14)*%
X164500000Y-116906000D03*
%TO.P,U2,15,~{SUSPEND}*%
%TO.N,unconnected-(U2-~{SUSPEND}-Pad15)*%
X164500000Y-116406000D03*
%TO.P,U2,16,NC*%
%TO.N,unconnected-(U2-NC-Pad16)*%
X164500000Y-115906000D03*
%TO.P,U2,17,SUSPEND*%
%TO.N,unconnected-(U2-SUSPEND-Pad17)*%
X164500000Y-115406000D03*
%TO.P,U2,18,~{CTS}*%
%TO.N,unconnected-(U2-~{CTS}-Pad18)*%
X164500000Y-114906000D03*
D34*
%TO.P,U2,19,~{RTS}*%
%TO.N,Net-(U2-~{RTS})*%
X163812500Y-114218500D03*
%TO.P,U2,20,RXD*%
%TO.N,Net-(U1-TXD0{slash}IO1)*%
X163312500Y-114218500D03*
%TO.P,U2,21,TXD*%
%TO.N,Net-(U1-RXD0{slash}IO3)*%
X162812500Y-114218500D03*
%TO.P,U2,22,~{DSR}*%
%TO.N,unconnected-(U2-~{DSR}-Pad22)*%
X162312500Y-114218500D03*
%TO.P,U2,23,~{DTR}*%
%TO.N,Net-(U2-~{DTR})*%
X161812500Y-114218500D03*
%TO.P,U2,24,~{DCD}*%
%TO.N,unconnected-(U2-~{DCD}-Pad24)*%
X161312500Y-114218500D03*
D35*
%TO.P,U2,25,GND*%
%TO.N,GND*%
X162562500Y-116156000D03*
%TD*%
D36*
%TO.P,Q1,1,E*%
%TO.N,GND*%
X152960000Y-115406000D03*
D37*
%TO.P,Q1,2,B*%
%TO.N,Net-(Q1-B)*%
X154230000Y-115406000D03*
%TO.P,Q1,3,C*%
%TO.N,Net-(Q1-C)*%
X155500000Y-115406000D03*
%TD*%
D38*
%TO.P,J5,1,GND*%
%TO.N,GND*%
X135525000Y-99356000D03*
%TO.P,J5,2,GND*%
X138475000Y-99356000D03*
D39*
%TO.P,J5,3,SIG*%
%TO.N,Net-(J5-SIG)*%
X137000000Y-100906000D03*
%TD*%
D40*
%TO.P,U1,1,GND*%
%TO.N,GND*%
X151350000Y-78241000D03*
%TO.P,U1,2,VDD*%
%TO.N,Net-(J1-Pin_3)*%
X151350000Y-79511000D03*
%TO.P,U1,3,EN*%
%TO.N,Net-(U1-EN)*%
X151350000Y-80781000D03*
%TO.P,U1,4,SENSOR_VP*%
%TO.N,unconnected-(U1-SENSOR_VP-Pad4)*%
X151350000Y-82051000D03*
%TO.P,U1,5,SENSOR_VN*%
%TO.N,unconnected-(U1-SENSOR_VN-Pad5)*%
X151350000Y-83321000D03*
%TO.P,U1,6,IO34*%
%TO.N,unconnected-(U1-IO34-Pad6)*%
X151350000Y-84591000D03*
%TO.P,U1,7,IO35*%
%TO.N,unconnected-(U1-IO35-Pad7)*%
X151350000Y-85861000D03*
%TO.P,U1,8,IO32*%
%TO.N,unconnected-(U1-IO32-Pad8)*%
X151350000Y-87131000D03*
%TO.P,U1,9,IO33*%
%TO.N,Net-(J1-Pin_2)*%
X151350000Y-88401000D03*
%TO.P,U1,10,IO25*%
%TO.N,unconnected-(U1-IO25-Pad10)*%
X151350000Y-89671000D03*
%TO.P,U1,11,IO26*%
%TO.N,Net-(U1-IO26)*%
X151350000Y-90941000D03*
%TO.P,U1,12,IO27*%
%TO.N,unconnected-(U1-IO27-Pad12)*%
X151350000Y-92211000D03*
%TO.P,U1,13,IO14*%
%TO.N,Net-(U1-IO14)*%
X151350000Y-93481000D03*
%TO.P,U1,14,IO12*%
%TO.N,unconnected-(U1-IO12-Pad14)*%
X151350000Y-94751000D03*
D41*
%TO.P,U1,15,GND*%
%TO.N,GND*%
X154385000Y-95846000D03*
%TO.P,U1,16,IO13*%
%TO.N,unconnected-(U1-IO13-Pad16)*%
X155655000Y-95846000D03*
%TO.P,U1,17,SHD/SD2*%
%TO.N,unconnected-(U1-SHD{slash}SD2-Pad17)*%
X156925000Y-95846000D03*
%TO.P,U1,18,SWP/SD3*%
%TO.N,unconnected-(U1-SWP{slash}SD3-Pad18)*%
X158195000Y-95846000D03*
%TO.P,U1,19,SCS/CMD*%
%TO.N,unconnected-(U1-SCS{slash}CMD-Pad19)*%
X159465000Y-95846000D03*
%TO.P,U1,20,SCK/CLK*%
%TO.N,unconnected-(U1-SCK{slash}CLK-Pad20)*%
X160735000Y-95846000D03*
%TO.P,U1,21,SDO/SD0*%
%TO.N,unconnected-(U1-SDO{slash}SD0-Pad21)*%
X162005000Y-95846000D03*
%TO.P,U1,22,SDI/SD1*%
%TO.N,unconnected-(U1-SDI{slash}SD1-Pad22)*%
X163275000Y-95846000D03*
%TO.P,U1,23,IO15*%
%TO.N,unconnected-(U1-IO15-Pad23)*%
X164545000Y-95846000D03*
%TO.P,U1,24,IO2*%
%TO.N,unconnected-(U1-IO2-Pad24)*%
X165815000Y-95846000D03*
D40*
%TO.P,U1,25,IO0*%
%TO.N,Net-(Q1-C)*%
X168850000Y-94751000D03*
%TO.P,U1,26,IO4*%
%TO.N,Net-(U1-IO4)*%
X168850000Y-93481000D03*
%TO.P,U1,27,IO16*%
%TO.N,unconnected-(U1-IO16-Pad27)*%
X168850000Y-92211000D03*
%TO.P,U1,28,IO17*%
%TO.N,unconnected-(U1-IO17-Pad28)*%
X168850000Y-90941000D03*
%TO.P,U1,29,IO5*%
%TO.N,Net-(U1-IO5)*%
X168850000Y-89671000D03*
%TO.P,U1,30,IO18*%
%TO.N,Net-(U1-IO18)*%
X168850000Y-88401000D03*
%TO.P,U1,31,IO19*%
%TO.N,Net-(U1-IO19)*%
X168850000Y-87131000D03*
%TO.P,U1,32,NC*%
%TO.N,unconnected-(U1-NC-Pad32)*%
X168850000Y-85861000D03*
%TO.P,U1,33,IO21*%
%TO.N,unconnected-(U1-IO21-Pad33)*%
X168850000Y-84591000D03*
%TO.P,U1,34,RXD0/IO3*%
%TO.N,Net-(U1-RXD0{slash}IO3)*%
X168850000Y-83321000D03*
%TO.P,U1,35,TXD0/IO1*%
%TO.N,Net-(U1-TXD0{slash}IO1)*%
X168850000Y-82051000D03*
%TO.P,U1,36,IO22*%
%TO.N,unconnected-(U1-IO22-Pad36)*%
X168850000Y-80781000D03*
%TO.P,U1,37,IO23*%
%TO.N,Net-(U1-IO23)*%
X168850000Y-79511000D03*
%TO.P,U1,38,GND*%
%TO.N,GND*%
X168850000Y-78241000D03*
D42*
%TO.P,U1,39,GND*%
X157200000Y-84406000D03*
D43*
X157200000Y-85106000D03*
D42*
X157200000Y-85806000D03*
D43*
X157200000Y-86506000D03*
D42*
X157200000Y-87206000D03*
D43*
X157900000Y-84406000D03*
X157900000Y-85806000D03*
X157900000Y-87206000D03*
D42*
X158600000Y-84406000D03*
D43*
X158600000Y-85106000D03*
D42*
X158600000Y-85806000D03*
D44*
X158600000Y-85806000D03*
D43*
X158600000Y-86506000D03*
D42*
X158600000Y-87206000D03*
D43*
X159300000Y-84406000D03*
X159300000Y-85806000D03*
X159300000Y-87206000D03*
D42*
X160000000Y-84406000D03*
D43*
X160000000Y-85106000D03*
D42*
X160000000Y-85806000D03*
D43*
X160000000Y-86506000D03*
D42*
X160000000Y-87206000D03*
%TD*%
D19*
%TO.P,R2,1*%
%TO.N,Net-(J2-CC1)*%
X165275000Y-129406000D03*
%TO.P,R2,2*%
%TO.N,GND*%
X167000000Y-129406000D03*
%TD*%
%TO.P,R1,1*%
%TO.N,Net-(J1-Pin_3)*%
X146275000Y-101406000D03*
%TO.P,R1,2*%
%TO.N,Net-(U1-IO4)*%
X148000000Y-101406000D03*
%TD*%
D36*
%TO.P,Q2,1,E*%
%TO.N,GND*%
X154460000Y-123406000D03*
D37*
%TO.P,Q2,2,B*%
%TO.N,Net-(Q2-B)*%
X155730000Y-123406000D03*
%TO.P,Q2,3,C*%
%TO.N,Net-(Q2-C)*%
X157000000Y-123406000D03*
%TD*%
D20*
%TO.P,C3,1*%
%TO.N,Net-(J1-Pin_3)*%
X147500000Y-66631000D03*
%TO.P,C3,2*%
%TO.N,GND*%
X147500000Y-68181000D03*
%TD*%
D45*
%TO.N,GND*%
X164864900Y-125002600D03*
X147874500Y-62750500D03*
X149935400Y-66719000D03*
X146339100Y-66719000D03*
X161801400Y-125002600D03*
%TO.N,+12V*%
X161868000Y-55169800D03*
X146388700Y-55169800D03*
%TO.N,Net-(J1-Pin_3)*%
X147123300Y-113712500D03*
X159990300Y-119183200D03*
%TO.N,Net-(U3-VR_DIG)*%
X152499400Y-105568200D03*
X141431500Y-111416000D03*
%TO.N,Net-(U3-VR_ANA)*%
X135948400Y-104918500D03*
X150637500Y-118388000D03*
%TO.N,Net-(J2-SHIELD)*%
X152954300Y-128140600D03*
%TO.N,Net-(U1-EN)*%
X145280300Y-81846900D03*
X150010900Y-80355200D03*
%TO.N,Net-(Q2-C)*%
X153663200Y-101275100D03*
X153777300Y-108277300D03*
X147849000Y-80751900D03*
X153284800Y-81357100D03*
%TO.N,Net-(U3-VR_PA)*%
X136187500Y-102504300D03*
X139021500Y-102521700D03*
%TO.N,Net-(J1-Pin_2)*%
X141095400Y-113452800D03*
X149821800Y-103700000D03*
%TO.N,Net-(U2-VBUS)*%
X161135900Y-127468900D03*
X158011100Y-129928800D03*
%TO.N,Net-(U2-D+)*%
X158396100Y-130822000D03*
X159369700Y-134551700D03*
%TO.N,Net-(Q1-C)*%
X169459800Y-103409100D03*
%TO.N,Net-(Q1-B)*%
X167934300Y-106713100D03*
%TO.N,Net-(Q2-B)*%
X168950400Y-113600300D03*
%TO.N,Net-(U1-IO4)*%
X147674200Y-100134200D03*
X167773300Y-96910300D03*
%TO.N,Net-(U2-~{DTR})*%
X161517000Y-110461700D03*
X165531300Y-108918500D03*
%TO.N,Net-(U1-IO26)*%
X152310500Y-101098800D03*
X138956800Y-111049800D03*
%TO.N,Net-(U1-IO18)*%
X167408900Y-92448500D03*
X144576600Y-97655700D03*
%TO.N,Net-(U1-IO14)*%
X141633000Y-112217800D03*
X150231900Y-104559400D03*
%TO.N,Net-(U1-IO5)*%
X143357800Y-101725000D03*
X171455000Y-89270100D03*
%TO.N,Net-(U1-RXD0{slash}IO3)*%
X167446300Y-87338100D03*
X164754300Y-87176500D03*
%TO.N,Net-(U1-IO19)*%
X170795000Y-87176500D03*
X145241500Y-98704300D03*
%TO.N,Net-(U1-IO23)*%
X167161800Y-79134100D03*
X145334500Y-99545200D03*
%TD*%
D46*
%TO.N,GND*%
X138000000Y-129246000D02*
X140000000Y-127246000D01*
X138000000Y-86796200D02*
X138000100Y-86796200D01*
X158600000Y-85106000D02*
X158600000Y-85806000D01*
X157200000Y-84406000D02*
X157200000Y-85106000D01*
X162745400Y-133464800D02*
X162745400Y-132912900D01*
X164864900Y-128570000D02*
X164864900Y-125002600D01*
X160625000Y-115406000D02*
X159654900Y-115406000D01*
X162500000Y-125701200D02*
X162500000Y-129406000D01*
X158600000Y-84406000D02*
X158600000Y-85106000D01*
X164347300Y-128958100D02*
X164735400Y-128570000D01*
X154075000Y-105193500D02*
X154075000Y-103006000D01*
X167773300Y-77464300D02*
X167773300Y-78241000D01*
X138000000Y-130826000D02*
X138000000Y-129246000D01*
X152426700Y-78241000D02*
X152426700Y-69210300D01*
X159275000Y-68331000D02*
X160000000Y-69056000D01*
X139350000Y-104018500D02*
X139350000Y-106031000D01*
X141950000Y-104018500D02*
X141950000Y-101954300D01*
X142681400Y-108956000D02*
X141950000Y-108224600D01*
X161801400Y-125002600D02*
X162500000Y-125701200D01*
X136522300Y-113953300D02*
X134923300Y-113953300D01*
X138700000Y-99356000D02*
X138700000Y-87496100D01*
X160000000Y-69406000D02*
X160000000Y-84406000D01*
X138475000Y-99356000D02*
X138700000Y-99356000D01*
X134584800Y-120204100D02*
X140000000Y-125619300D01*
X164735400Y-128570000D02*
X164864900Y-128570000D01*
X146840000Y-109906000D02*
X146907500Y-109906000D01*
X149371600Y-106103400D02*
X146907500Y-108567500D01*
X152960000Y-115406000D02*
X152960000Y-122757700D01*
X141950000Y-106681000D02*
X141950000Y-104018500D01*
X149158500Y-103477100D02*
X149158500Y-105890300D01*
X135525000Y-99356000D02*
X134648300Y-99356000D01*
X164347300Y-131311000D02*
X164347300Y-128958100D01*
X166164000Y-128570000D02*
X167000000Y-129406000D01*
X152362500Y-106906000D02*
X154075000Y-105193500D01*
X157900000Y-87206000D02*
X157900000Y-85806000D01*
X159300000Y-84406000D02*
X159300000Y-85806000D01*
X168125200Y-69406000D02*
X168126700Y-69406000D01*
X168126700Y-69406000D02*
X168126700Y-77110900D01*
X152845700Y-69210300D02*
X153725000Y-68331000D01*
X147500000Y-62376000D02*
X147874500Y-62750500D01*
X157200000Y-85806000D02*
X157200000Y-85106000D01*
X162562500Y-116156000D02*
X161812500Y-115406000D01*
X160000000Y-86506000D02*
X160000000Y-87206000D01*
X157200000Y-86506000D02*
X157200000Y-85806000D01*
X134923300Y-113953300D02*
X134584800Y-114291800D01*
X140000000Y-106681000D02*
X140000000Y-107006000D01*
X138446100Y-84196800D02*
X137892700Y-84196800D01*
X153608300Y-123406000D02*
X151409900Y-125604400D01*
X156500000Y-56756000D02*
X156500000Y-63481000D01*
X134648300Y-113678300D02*
X134923300Y-113953300D01*
X140000000Y-127246000D02*
X140000000Y-125619300D01*
X157200000Y-87206000D02*
X157200000Y-86506000D01*
X153725000Y-65906000D02*
X153725000Y-63481000D01*
X146907500Y-109906000D02*
X146907500Y-112406000D01*
X149370100Y-103265500D02*
X149158500Y-103477100D01*
X159300000Y-87206000D02*
X159300000Y-85806000D01*
X168126700Y-59906000D02*
X168126700Y-69404500D01*
X167000000Y-69406000D02*
X160000000Y-69406000D01*
X152960000Y-107503500D02*
X152960000Y-115406000D01*
X159654900Y-115406000D02*
X158154000Y-116906900D01*
X139076700Y-84827400D02*
X138446100Y-84196800D01*
X151350000Y-78241000D02*
X152426700Y-78241000D01*
X168126700Y-77110900D02*
X167773300Y-77464300D01*
X138700000Y-87496100D02*
X138000100Y-86796200D01*
X161812500Y-115406000D02*
X160625000Y-115406000D01*
X160000000Y-84406000D02*
X159300000Y-84406000D01*
X168850000Y-78241000D02*
X167773300Y-78241000D01*
X154385000Y-95846000D02*
X154385000Y-102696000D01*
X134584800Y-114291800D02*
X134584800Y-120204100D01*
X152426700Y-69210300D02*
X152845700Y-69210300D01*
X158154000Y-116906900D02*
X158154000Y-125252000D01*
X136869800Y-83173900D02*
X136869800Y-68536200D01*
X164864900Y-128570000D02*
X166164000Y-128570000D01*
X147500000Y-57681000D02*
X147500000Y-62376000D01*
X153725000Y-65906000D02*
X156500000Y-65906000D01*
X147000000Y-90406000D02*
X147000000Y-93471000D01*
X137892700Y-84196800D02*
X136869800Y-83173900D01*
X137575000Y-115006000D02*
X136522300Y-113953300D01*
X154385000Y-95846000D02*
X154385000Y-90797700D01*
X167562600Y-69406000D02*
X168125200Y-69406000D01*
X146907500Y-108567500D02*
X146907500Y-109906000D01*
X157200000Y-87206000D02*
X157200000Y-87982700D01*
X160000000Y-85806000D02*
X160000000Y-85106000D01*
X149370100Y-96711100D02*
X149370100Y-103265500D01*
X142327400Y-104018500D02*
X142987500Y-104678600D01*
X142987500Y-108956000D02*
X142681400Y-108956000D01*
X139350000Y-106031000D02*
X140000000Y-106681000D01*
X156500000Y-63481000D02*
X159275000Y-63481000D01*
X154460000Y-123406000D02*
X153608300Y-123406000D01*
X141950000Y-101954300D02*
X139351700Y-99356000D01*
X167000000Y-59906000D02*
X168126700Y-59906000D01*
X151740800Y-130208600D02*
X153197400Y-130208600D01*
X141950000Y-104018500D02*
X142327400Y-104018500D01*
X153197400Y-130208600D02*
X156345400Y-133356600D01*
X136869800Y-68536200D02*
X138500000Y-66906000D01*
X141950000Y-104018500D02*
X141300000Y-104018500D01*
X157900000Y-85806000D02*
X157900000Y-84406000D01*
X140000000Y-106681000D02*
X141950000Y-106681000D01*
X167562600Y-69406000D02*
X167000000Y-69406000D01*
X158600000Y-87206000D02*
X158600000Y-86506000D01*
X168126700Y-69404500D02*
X168125200Y-69406000D01*
X138700000Y-99356000D02*
X139351700Y-99356000D01*
X154385000Y-90797700D02*
X157200000Y-87982700D01*
X152362500Y-106906000D02*
X152960000Y-107503500D01*
X160000000Y-69056000D02*
X160000000Y-69406000D01*
X152362500Y-106906000D02*
X151559900Y-106103400D01*
X158600000Y-85806000D02*
X158600000Y-86506000D01*
X134648300Y-99356000D02*
X134648300Y-113678300D01*
X138000100Y-86796200D02*
X139076700Y-85719600D01*
X139076700Y-85719600D02*
X139076700Y-84827400D01*
X153197400Y-130208600D02*
X154000000Y-129406000D01*
X153725000Y-68331000D02*
X153725000Y-65906000D01*
X151409900Y-125604400D02*
X151409900Y-129877700D01*
X151409900Y-129877700D02*
X151740800Y-130208600D01*
X141950000Y-108224600D02*
X141950000Y-106681000D01*
X156500000Y-63481000D02*
X156500000Y-65906000D01*
X146565000Y-93906000D02*
X149370100Y-96711100D01*
X147500000Y-68181000D02*
X146339100Y-67020100D01*
X154385000Y-102696000D02*
X154075000Y-103006000D01*
X149935400Y-66719000D02*
X152426700Y-69210300D01*
X158154000Y-125252000D02*
X154000000Y-129406000D01*
X146339100Y-67020100D02*
X146339100Y-66719000D01*
X142987500Y-104678600D02*
X142987500Y-105056000D01*
X151559900Y-106103400D02*
X149371600Y-106103400D01*
X159275000Y-68331000D02*
X159275000Y-63481000D01*
X138000000Y-87813500D02*
X138000000Y-86796200D01*
X149158500Y-105890300D02*
X149371600Y-106103400D01*
X160000000Y-85806000D02*
X160000000Y-86506000D01*
X147000000Y-93471000D02*
X146565000Y-93906000D01*
X156345400Y-133356600D02*
X156345400Y-133464800D01*
X162745400Y-132912900D02*
X164347300Y-131311000D01*
X152960000Y-122757700D02*
X153608300Y-123406000D01*
%TO.N,+12V*%
X146538800Y-55169800D02*
X146388700Y-55169800D01*
X147500000Y-56131000D02*
X146538800Y-55169800D01*
X167000000Y-56906000D02*
X162018000Y-56906000D01*
X162018000Y-56906000D02*
X161868000Y-56756000D01*
X161868000Y-56756000D02*
X159900000Y-56756000D01*
X161868000Y-56756000D02*
X161868000Y-55169800D01*
%TO.N,Net-(J1-Pin_3)*%
X147123300Y-113712500D02*
X146092500Y-112681700D01*
X149384200Y-80201100D02*
X145397300Y-84188000D01*
X140383800Y-112674400D02*
X141203400Y-112674400D01*
X157046800Y-54060800D02*
X158200000Y-55214000D01*
X147101600Y-102232600D02*
X148579600Y-102232600D01*
X146025000Y-110897200D02*
X146025000Y-109906000D01*
X135833500Y-110090700D02*
X138609600Y-112866800D01*
X145450000Y-90406000D02*
X145750000Y-90706000D01*
X149384200Y-80095700D02*
X149384200Y-80201100D01*
X146025000Y-101656000D02*
X146025000Y-109906000D01*
X145450000Y-84240700D02*
X145450000Y-90406000D01*
X159989300Y-60027300D02*
X158200000Y-58238000D01*
X137012500Y-106356000D02*
X136679500Y-106356000D01*
X162048000Y-60027300D02*
X159989300Y-60027300D01*
X138000000Y-80193500D02*
X138000000Y-81270200D01*
X159883100Y-117184500D02*
X159883100Y-119076000D01*
X141203400Y-112674400D02*
X141373500Y-112844500D01*
X158200000Y-58238000D02*
X158200000Y-56756000D01*
X149968900Y-79511000D02*
X149384200Y-80095700D01*
X142509900Y-110897200D02*
X141950000Y-110337300D01*
X160161600Y-116906000D02*
X159883100Y-117184500D01*
X159883100Y-119076000D02*
X159990300Y-119183200D01*
X142121300Y-113073200D02*
X141892600Y-112844500D01*
X158200000Y-55214000D02*
X158200000Y-56756000D01*
X148579600Y-102232600D02*
X148916900Y-101895300D01*
X146092500Y-112681700D02*
X146092500Y-112406000D01*
X138609600Y-112866800D02*
X140191400Y-112866800D01*
X167000000Y-64979300D02*
X162048000Y-60027300D01*
X151350000Y-79511000D02*
X150498300Y-79511000D01*
X145750000Y-97323700D02*
X145750000Y-93906000D01*
X136679500Y-106356000D02*
X135833500Y-107202000D01*
X141950000Y-110337300D02*
X141950000Y-109993500D01*
X146025000Y-112338500D02*
X146025000Y-110897200D01*
X148933300Y-57658400D02*
X152530900Y-54060800D01*
X148933300Y-66631000D02*
X148933300Y-57658400D01*
X141500000Y-135906000D02*
X142121300Y-135284700D01*
X138000000Y-135906000D02*
X141500000Y-135906000D01*
X142479500Y-81270200D02*
X145397300Y-84188000D01*
X146275000Y-101406000D02*
X147101600Y-102232600D01*
X142509900Y-112227200D02*
X142509900Y-110897200D01*
X145750000Y-90706000D02*
X145750000Y-93906000D01*
X167000000Y-66406000D02*
X167000000Y-64979300D01*
X138000000Y-81270200D02*
X142479500Y-81270200D01*
X141373500Y-112844500D02*
X141892600Y-112844500D01*
X146092500Y-112406000D02*
X146025000Y-112338500D01*
X148916900Y-101895300D02*
X148916900Y-100490600D01*
X148933300Y-77946000D02*
X150498300Y-79511000D01*
X146275000Y-101406000D02*
X146025000Y-101656000D01*
X148933300Y-66631000D02*
X148933300Y-77946000D01*
X145397300Y-84188000D02*
X145450000Y-84240700D01*
X148916900Y-100490600D02*
X145750000Y-97323700D01*
X140191400Y-112866800D02*
X140383800Y-112674400D01*
X152530900Y-54060800D02*
X157046800Y-54060800D01*
X146025000Y-110897200D02*
X142509900Y-110897200D01*
X150498300Y-79511000D02*
X149968900Y-79511000D01*
X142121300Y-135284700D02*
X142121300Y-113073200D01*
X135833500Y-107202000D02*
X135833500Y-110090700D01*
X147500000Y-66631000D02*
X148933300Y-66631000D01*
X141892600Y-112844500D02*
X142509900Y-112227200D01*
X160625000Y-116906000D02*
X160161600Y-116906000D01*
%TO.N,Net-(U3-VR_DIG)*%
X138796700Y-112415100D02*
X139866700Y-112415100D01*
X140865800Y-111416000D02*
X141431500Y-111416000D01*
X137012500Y-107006000D02*
X136706500Y-107006000D01*
X136285200Y-109264800D02*
X136553400Y-109533000D01*
X136553400Y-110171800D02*
X138796700Y-112415100D01*
X152000000Y-103006000D02*
X152000000Y-105068800D01*
X136285200Y-107427300D02*
X136285200Y-109264800D01*
X152000000Y-105068800D02*
X152499400Y-105568200D01*
X136553400Y-109533000D02*
X136553400Y-110171800D01*
X136706500Y-107006000D02*
X136285200Y-107427300D01*
X139866700Y-112415100D02*
X140865800Y-111416000D01*
%TO.N,Net-(U3-VR_ANA)*%
X137012500Y-105706000D02*
X136648400Y-105706000D01*
X136648400Y-105706000D02*
X135948400Y-105006000D01*
X150637500Y-118388000D02*
X150637500Y-106906000D01*
X135948400Y-105006000D02*
X135948400Y-104918500D01*
%TO.N,Net-(J2-SHIELD)*%
X152275000Y-128819900D02*
X152275000Y-129406000D01*
X163865400Y-134039800D02*
X163865400Y-138219800D01*
X152954300Y-128140600D02*
X152275000Y-128819900D01*
%TO.N,Net-(U1-EN)*%
X145280300Y-81846900D02*
X145225000Y-81791600D01*
X145225000Y-81791600D02*
X145225000Y-80406000D01*
X150273300Y-80617600D02*
X150273300Y-80781000D01*
X150010900Y-80355200D02*
X150273300Y-80617600D01*
X151350000Y-80781000D02*
X150273300Y-80781000D01*
%TO.N,Net-(Q2-C)*%
X157000000Y-123406000D02*
X157000000Y-111500000D01*
X153330100Y-100942000D02*
X153330100Y-81402400D01*
X157000000Y-111500000D02*
X153777300Y-108277300D01*
X147503100Y-80406000D02*
X147849000Y-80751900D01*
X153663200Y-101275100D02*
X153330100Y-100942000D01*
X146775000Y-80406000D02*
X147503100Y-80406000D01*
X153330100Y-81402400D02*
X153284800Y-81357100D01*
%TO.N,Net-(U3-VR_PA)*%
X138190000Y-116058700D02*
X136552700Y-116058700D01*
X135295600Y-110196500D02*
X138550400Y-113451300D01*
X138550400Y-113451300D02*
X138550400Y-115698300D01*
X136552700Y-116058700D02*
X135500000Y-115006000D01*
X140000000Y-103500200D02*
X140000000Y-104018500D01*
X139021500Y-102521700D02*
X140000000Y-103500200D01*
X135295600Y-103396200D02*
X135295600Y-110196500D01*
X138550400Y-115698300D02*
X138190000Y-116058700D01*
X136187500Y-102504300D02*
X135295600Y-103396200D01*
%TO.N,Net-(J1-Pin_2)*%
X138000000Y-133366000D02*
X138709600Y-133366000D01*
X149821800Y-95002800D02*
X149821800Y-103700000D01*
X149764400Y-94945400D02*
X149821800Y-95002800D01*
X138709600Y-133366000D02*
X141669600Y-130406000D01*
X141669600Y-130406000D02*
X141669600Y-114027000D01*
X151350000Y-88401000D02*
X150273300Y-88401000D01*
X141669600Y-114027000D02*
X141095400Y-113452800D01*
X149764400Y-88909900D02*
X149764400Y-94945400D01*
X150273300Y-88401000D02*
X149764400Y-88909900D01*
%TO.N,Net-(U2-VBUS)*%
X161135900Y-124371700D02*
X161135900Y-127468900D01*
X163381200Y-125634600D02*
X162118300Y-124371700D01*
X162118300Y-124371700D02*
X161812500Y-124371700D01*
X157145400Y-130794500D02*
X157145400Y-133464800D01*
X161312500Y-118093500D02*
X161812500Y-118093500D01*
X161812500Y-118093500D02*
X161812500Y-124371700D01*
X158011100Y-129928800D02*
X157145400Y-130794500D01*
X161945400Y-133464800D02*
X161945400Y-131308000D01*
X161945400Y-131308000D02*
X163381200Y-129872200D01*
X163381200Y-129872200D02*
X163381200Y-125634600D01*
X161812500Y-124371700D02*
X161135900Y-124371700D01*
%TO.N,Net-(U2-D+)*%
X159295400Y-133464800D02*
X159295400Y-134344800D01*
X159867900Y-115906000D02*
X158770700Y-117003200D01*
X160625000Y-115906000D02*
X159867900Y-115906000D01*
X159295400Y-134344800D02*
X159369700Y-134419100D01*
X159369700Y-134419100D02*
X160015700Y-134419100D01*
X160015700Y-134419100D02*
X160295400Y-134139400D01*
X158770700Y-130447400D02*
X158396100Y-130822000D01*
X159369700Y-134419100D02*
X159369700Y-134551700D01*
X158770700Y-117003200D02*
X158770700Y-130447400D01*
X160295400Y-134139400D02*
X160295400Y-133464800D01*
%TO.N,Net-(U2-D-)*%
X159363600Y-132519100D02*
X159509100Y-132519100D01*
X158795400Y-133464800D02*
X158795400Y-132755500D01*
X160625000Y-116406000D02*
X160007600Y-116406000D01*
X159795400Y-132805400D02*
X159795400Y-133464800D01*
X158795400Y-132755500D02*
X159031800Y-132519100D01*
X159363600Y-117050000D02*
X159363600Y-132519100D01*
X159031800Y-132519100D02*
X159363600Y-132519100D01*
X159509100Y-132519100D02*
X159795400Y-132805400D01*
X160007600Y-116406000D02*
X159363600Y-117050000D01*
%TO.N,Net-(J2-CC1)*%
X158295400Y-133464800D02*
X158295400Y-134363600D01*
X158295400Y-134363600D02*
X163426900Y-139495100D01*
X165275000Y-138390800D02*
X165275000Y-129406000D01*
X163426900Y-139495100D02*
X164170700Y-139495100D01*
X164170700Y-139495100D02*
X165275000Y-138390800D01*
%TO.N,Net-(J2-CC2)*%
X161295400Y-129926400D02*
X160775000Y-129406000D01*
X161295400Y-133464800D02*
X161295400Y-129926400D01*
%TO.N,Net-(Q1-C)*%
X169459800Y-103409100D02*
X169926700Y-102942200D01*
X168850000Y-94751000D02*
X169926700Y-94751000D01*
X169926700Y-102942200D02*
X169926700Y-94751000D01*
%TO.N,Net-(Q1-B)*%
X169000000Y-107778800D02*
X167934300Y-106713100D01*
X169000000Y-107906000D02*
X169000000Y-107778800D01*
%TO.N,Net-(Q2-B)*%
X168950400Y-113600300D02*
X169137500Y-113413200D01*
X169137500Y-113413200D02*
X169137500Y-111906000D01*
%TO.N,Net-(U1-IO4)*%
X168850000Y-93481000D02*
X167773300Y-93481000D01*
X144300800Y-89034300D02*
X138000000Y-82733500D01*
X167773300Y-100134200D02*
X167773300Y-96910300D01*
X144300900Y-96493700D02*
X144300800Y-96493700D01*
X148000000Y-101406000D02*
X148000000Y-100460000D01*
X148000000Y-100460000D02*
X147674200Y-100134200D01*
X144300800Y-96493700D02*
X144300800Y-89034300D01*
X147674200Y-100134200D02*
X145203300Y-97663300D01*
X167773300Y-93481000D02*
X167773300Y-96910300D01*
X145203300Y-97663300D02*
X145203300Y-97396100D01*
X145203300Y-97396100D02*
X144300900Y-96493700D01*
X167773300Y-96910300D02*
X167773300Y-100134200D01*
%TO.N,Net-(U2-~{RTS})*%
X170038600Y-110669600D02*
X167275000Y-107906000D01*
X163812500Y-114218500D02*
X163910700Y-114316700D01*
X170038600Y-113398500D02*
X170038600Y-110669600D01*
X169120400Y-114316700D02*
X170038600Y-113398500D01*
X163910700Y-114316700D02*
X169120400Y-114316700D01*
%TO.N,Net-(U2-~{DTR})*%
X161517000Y-110461700D02*
X161812500Y-110757200D01*
X165531300Y-110024800D02*
X165531300Y-108918500D01*
X167412500Y-111906000D02*
X165531300Y-110024800D01*
X161812500Y-110757200D02*
X161812500Y-114218500D01*
%TO.N,Net-(U1-IO26)*%
X138743900Y-111050000D02*
X138050000Y-110356100D01*
X152878400Y-93978500D02*
X152613800Y-93713900D01*
X152613800Y-93713900D02*
X152426700Y-93526800D01*
X138956600Y-111050000D02*
X138743900Y-111050000D01*
X152310500Y-101098800D02*
X152878400Y-100530900D01*
X138956600Y-111050000D02*
X138956800Y-111049800D01*
X138956800Y-111049800D02*
X138956600Y-111050000D01*
X152426700Y-93526800D02*
X152426700Y-90941000D01*
X152613800Y-93713900D02*
X152426700Y-93526800D01*
X151350000Y-90941000D02*
X152426700Y-90941000D01*
X152878400Y-100530900D02*
X152878400Y-93978500D01*
X138050000Y-110356100D02*
X138050000Y-109993500D01*
X138956600Y-111050000D02*
X138956800Y-111049800D01*
%TO.N,Net-(U1-TXD0{slash}IO1)*%
X166405700Y-91143000D02*
X166591300Y-91328600D01*
X163312500Y-114218500D02*
X163312500Y-100885000D01*
X166778800Y-94508900D02*
X166592800Y-94322900D01*
X168850000Y-82051000D02*
X167773300Y-82051000D01*
X166405700Y-83418600D02*
X166405700Y-91143000D01*
X167043400Y-97154100D02*
X167043400Y-94773500D01*
X166778800Y-94508900D02*
X166592800Y-94322900D01*
X166591300Y-91328600D02*
X166592800Y-91330100D01*
X166592800Y-91330100D02*
X166592800Y-94322900D01*
X167773300Y-82051000D02*
X166405700Y-83418600D01*
X163312500Y-100885000D02*
X167043400Y-97154100D01*
X167043400Y-94773500D02*
X166778800Y-94508900D01*
X166405700Y-91143000D02*
X166591300Y-91328600D01*
%TO.N,Net-(U1-IO18)*%
X142987500Y-107006000D02*
X143375500Y-107006000D01*
X144312100Y-102280600D02*
X144125000Y-102093500D01*
X144576700Y-105804800D02*
X144576700Y-102545200D01*
X144533700Y-97698600D02*
X144576600Y-97655700D01*
X144576600Y-97655700D02*
X144533700Y-97698600D01*
X144125000Y-102093500D02*
X144125000Y-98107300D01*
X144312100Y-102280600D02*
X144125000Y-102093500D01*
X144125000Y-98107300D02*
X144576600Y-97655700D01*
X167773300Y-88401000D02*
X167408900Y-88765400D01*
X144576700Y-102545200D02*
X144312100Y-102280600D01*
X167408900Y-88765400D02*
X167408900Y-92448500D01*
X143375500Y-107006000D02*
X144576700Y-105804800D01*
X168850000Y-88401000D02*
X167773300Y-88401000D01*
%TO.N,Net-(U1-IO14)*%
X152426700Y-95336400D02*
X152426700Y-94165600D01*
X150464300Y-97298700D02*
X150464400Y-97298700D01*
X140574800Y-110764600D02*
X139376000Y-111963400D01*
X152426700Y-94165600D02*
X152235400Y-93974300D01*
X150464600Y-93974300D02*
X150325000Y-94113900D01*
X137005100Y-108963400D02*
X137012500Y-108956000D01*
X152235400Y-93974300D02*
X150464600Y-93974300D01*
X150273300Y-94062300D02*
X150273300Y-93481000D01*
X150325000Y-94113900D02*
X150324900Y-94113900D01*
X141633000Y-112217800D02*
X142058200Y-111792600D01*
X150231900Y-104559400D02*
X150464300Y-104327000D01*
X139376000Y-111963400D02*
X138983800Y-111963400D01*
X137005100Y-109984700D02*
X137005100Y-108963400D01*
X150464300Y-104327000D02*
X150464300Y-97298700D01*
X150231900Y-104559400D02*
X150464300Y-104327000D01*
X141666400Y-110764600D02*
X140574800Y-110764600D01*
X150324900Y-94113900D02*
X150273300Y-94062300D01*
X151350000Y-93481000D02*
X150273300Y-93481000D01*
X150464300Y-104327000D02*
X150231900Y-104559400D01*
X150464400Y-97298700D02*
X152426700Y-95336400D01*
X142058200Y-111156400D02*
X141666400Y-110764600D01*
X142058200Y-111792600D02*
X142058200Y-111156400D01*
X138983800Y-111963400D02*
X137005100Y-109984700D01*
%TO.N,Net-(U1-IO5)*%
X171455000Y-89981400D02*
X171455000Y-89270100D01*
X170327600Y-89270100D02*
X169926700Y-89671000D01*
X143357800Y-102190300D02*
X143357800Y-101725000D01*
X142987500Y-106356000D02*
X143380500Y-106356000D01*
X143380500Y-106356000D02*
X143752700Y-105983800D01*
X143752700Y-102585200D02*
X143357800Y-102190300D01*
X171455000Y-89270100D02*
X171455000Y-89981400D01*
X171455000Y-89270100D02*
X170327600Y-89270100D01*
X143752700Y-105983800D02*
X143752700Y-102585200D01*
X168850000Y-89671000D02*
X169926700Y-89671000D01*
%TO.N,Net-(U1-RXD0{slash}IO3)*%
X166591700Y-94960600D02*
X166400400Y-94769300D01*
X166400400Y-94769300D02*
X166270700Y-94769300D01*
X162812500Y-100637900D02*
X166591700Y-96858700D01*
X166591700Y-96858700D02*
X166591700Y-94960600D01*
X166270700Y-94769300D02*
X164754300Y-93252900D01*
X167773300Y-87011100D02*
X167446300Y-87338100D01*
X164754300Y-93252900D02*
X164754300Y-87176500D01*
X167773300Y-83321000D02*
X167773300Y-87011100D01*
X162812500Y-114218500D02*
X162812500Y-100637900D01*
X168850000Y-83321000D02*
X167773300Y-83321000D01*
%TO.N,Net-(U1-IO19)*%
X144763800Y-102093500D02*
X144642500Y-101972200D01*
X145028400Y-102358100D02*
X144763800Y-102093500D01*
X169972200Y-87176500D02*
X169926700Y-87131000D01*
X144763800Y-102093500D02*
X144642500Y-101972200D01*
X142987500Y-107656000D02*
X143378700Y-107656000D01*
X170126500Y-87176500D02*
X170795000Y-87176500D01*
X143378700Y-107656000D02*
X145028400Y-106006300D01*
X145028400Y-106006300D02*
X145028400Y-102358100D01*
X144642500Y-101972200D02*
X144642500Y-99303300D01*
X170795000Y-87176500D02*
X170126500Y-87176500D01*
X144642500Y-99303300D02*
X145241500Y-98704300D01*
X170795000Y-87176500D02*
X169972200Y-87176500D01*
X168850000Y-87131000D02*
X169926700Y-87131000D01*
%TO.N,Net-(U1-IO23)*%
X167396400Y-79134100D02*
X167773300Y-79511000D01*
X145480100Y-102171000D02*
X145334500Y-102025400D01*
X168850000Y-79511000D02*
X167773300Y-79511000D01*
X142987500Y-108306000D02*
X143486400Y-108306000D01*
X145334500Y-102025400D02*
X145334500Y-99545200D01*
X167161800Y-79134100D02*
X167396400Y-79134100D01*
X143486400Y-108306000D02*
X145480100Y-106312300D01*
X145480100Y-106312300D02*
X145480100Y-102171000D01*
%TO.N,Net-(J5-SIG)*%
X137851700Y-100906000D02*
X137851700Y-102238100D01*
X137851700Y-102238100D02*
X138700000Y-103086400D01*
X137000000Y-100906000D02*
X137851700Y-100906000D01*
X138700000Y-103086400D02*
X138700000Y-104018500D01*
%TD*%
M02*
